G04*
G04 #@! TF.GenerationSoftware,Altium Limited,Altium Designer,22.8.2 (66)*
G04*
G04 Layer_Color=65535*
%FSLAX25Y25*%
%MOIN*%
G70*
G04*
G04 #@! TF.SameCoordinates,958647FC-F202-49BF-B8C2-F494824E5218*
G04*
G04*
G04 #@! TF.FilePolarity,Positive*
G04*
G01*
G75*
%ADD11C,0.00800*%
%ADD12C,0.00600*%
%ADD38C,0.00500*%
%ADD39C,0.01000*%
%ADD74C,0.00984*%
%ADD75C,0.00400*%
%ADD76C,0.00787*%
G36*
X298255Y240156D02*
X295133D01*
X298255Y243278D01*
Y240156D01*
D02*
G37*
G36*
X191483D02*
X188361D01*
X191483Y243278D01*
Y240156D01*
D02*
G37*
G36*
X84711D02*
X81590D01*
X84711Y243278D01*
Y240156D01*
D02*
G37*
G36*
X298255Y81652D02*
X295133D01*
X298255Y84774D01*
Y81652D01*
D02*
G37*
G36*
X191483D02*
X188361D01*
X191483Y84774D01*
Y81652D01*
D02*
G37*
G36*
X84711D02*
X81590D01*
X84711Y84774D01*
Y81652D01*
D02*
G37*
D11*
X115857Y138157D02*
G03*
X117057Y136957I1200J0D01*
G01*
X122457D02*
G03*
X123657Y138157I0J1200D01*
G01*
X117057Y150357D02*
G03*
X115857Y149157I0J-1200D01*
G01*
X123657D02*
G03*
X122457Y150357I-1200J0D01*
G01*
X38357Y150157D02*
G03*
X37157Y151357I-1200J0D01*
G01*
X31757D02*
G03*
X30557Y150157I0J-1200D01*
G01*
X37157Y137957D02*
G03*
X38357Y139157I0J1200D01*
G01*
X30557D02*
G03*
X31757Y137957I1200J0D01*
G01*
X123657Y72057D02*
G03*
X122457Y73257I-1200J0D01*
G01*
X117057D02*
G03*
X115857Y72057I0J-1200D01*
G01*
X122457Y59857D02*
G03*
X123657Y61057I0J1200D01*
G01*
X115857D02*
G03*
X117057Y59857I1200J0D01*
G01*
X30257Y61057D02*
G03*
X31457Y59857I1200J0D01*
G01*
X36857D02*
G03*
X38057Y61057I0J1200D01*
G01*
X31457Y73257D02*
G03*
X30257Y72057I0J-1200D01*
G01*
X38057D02*
G03*
X36857Y73257I-1200J0D01*
G01*
X108057Y136857D02*
X115857D01*
X108057Y150257D02*
X115857D01*
X108057Y146357D02*
Y150257D01*
Y136857D02*
Y140757D01*
X115857Y136857D02*
Y140757D01*
Y146357D02*
Y150257D01*
X117057Y136957D02*
X122457D01*
X115857Y146657D02*
Y149157D01*
X123657Y146657D02*
Y149157D01*
X117057Y150357D02*
X122457D01*
X123657Y138157D02*
Y140657D01*
X115857Y138157D02*
Y140657D01*
X30557Y139157D02*
Y141657D01*
X38357Y139157D02*
Y141657D01*
X31757Y151357D02*
X37157D01*
X38357Y147657D02*
Y150157D01*
X30557Y147657D02*
Y150157D01*
X31757Y137957D02*
X37157D01*
X117057Y73257D02*
X122457D01*
X123657Y61057D02*
Y63557D01*
X115857Y61057D02*
Y63557D01*
X117057Y59857D02*
X122457D01*
X115857Y69557D02*
Y72057D01*
X123657Y69557D02*
Y72057D01*
X38057Y69557D02*
Y72057D01*
X30257Y69557D02*
Y72057D01*
X31457Y59857D02*
X36857D01*
X30257Y61057D02*
Y63557D01*
X38057Y61057D02*
Y63557D01*
X31457Y73257D02*
X36857D01*
X222628Y138157D02*
G03*
X223828Y136957I1200J0D01*
G01*
X229228D02*
G03*
X230428Y138157I0J1200D01*
G01*
X223828Y150357D02*
G03*
X222628Y149157I0J-1200D01*
G01*
X230428D02*
G03*
X229228Y150357I-1200J0D01*
G01*
X145128Y150157D02*
G03*
X143928Y151357I-1200J0D01*
G01*
X138528D02*
G03*
X137328Y150157I0J-1200D01*
G01*
X143928Y137957D02*
G03*
X145128Y139157I0J1200D01*
G01*
X137328D02*
G03*
X138528Y137957I1200J0D01*
G01*
X230428Y72057D02*
G03*
X229228Y73257I-1200J0D01*
G01*
X223828D02*
G03*
X222628Y72057I0J-1200D01*
G01*
X229228Y59857D02*
G03*
X230428Y61057I0J1200D01*
G01*
X222628D02*
G03*
X223828Y59857I1200J0D01*
G01*
X137028Y61057D02*
G03*
X138228Y59857I1200J0D01*
G01*
X143628D02*
G03*
X144828Y61057I0J1200D01*
G01*
X138228Y73257D02*
G03*
X137028Y72057I0J-1200D01*
G01*
X144828D02*
G03*
X143628Y73257I-1200J0D01*
G01*
X214828Y136857D02*
X222628D01*
X214828Y150257D02*
X222628D01*
X214828Y146357D02*
Y150257D01*
Y136857D02*
Y140757D01*
X222628Y136857D02*
Y140757D01*
Y146357D02*
Y150257D01*
X223828Y136957D02*
X229228D01*
X222628Y146657D02*
Y149157D01*
X230428Y146657D02*
Y149157D01*
X223828Y150357D02*
X229228D01*
X230428Y138157D02*
Y140657D01*
X222628Y138157D02*
Y140657D01*
X137328Y139157D02*
Y141657D01*
X145128Y139157D02*
Y141657D01*
X138528Y151357D02*
X143928D01*
X145128Y147657D02*
Y150157D01*
X137328Y147657D02*
Y150157D01*
X138528Y137957D02*
X143928D01*
X223828Y73257D02*
X229228D01*
X230428Y61057D02*
Y63557D01*
X222628Y61057D02*
Y63557D01*
X223828Y59857D02*
X229228D01*
X222628Y69557D02*
Y72057D01*
X230428Y69557D02*
Y72057D01*
X144828Y69557D02*
Y72057D01*
X137028Y69557D02*
Y72057D01*
X138228Y59857D02*
X143628D01*
X137028Y61057D02*
Y63557D01*
X144828Y61057D02*
Y63557D01*
X138228Y73257D02*
X143628D01*
X329400Y138157D02*
G03*
X330600Y136957I1200J0D01*
G01*
X336000D02*
G03*
X337200Y138157I0J1200D01*
G01*
X330600Y150357D02*
G03*
X329400Y149157I0J-1200D01*
G01*
X337200D02*
G03*
X336000Y150357I-1200J0D01*
G01*
X251900Y150157D02*
G03*
X250700Y151357I-1200J0D01*
G01*
X245300D02*
G03*
X244100Y150157I0J-1200D01*
G01*
X250700Y137957D02*
G03*
X251900Y139157I0J1200D01*
G01*
X244100D02*
G03*
X245300Y137957I1200J0D01*
G01*
X337200Y72057D02*
G03*
X336000Y73257I-1200J0D01*
G01*
X330600D02*
G03*
X329400Y72057I0J-1200D01*
G01*
X336000Y59857D02*
G03*
X337200Y61057I0J1200D01*
G01*
X329400D02*
G03*
X330600Y59857I1200J0D01*
G01*
X243800Y61057D02*
G03*
X245000Y59857I1200J0D01*
G01*
X250400D02*
G03*
X251600Y61057I0J1200D01*
G01*
X245000Y73257D02*
G03*
X243800Y72057I0J-1200D01*
G01*
X251600D02*
G03*
X250400Y73257I-1200J0D01*
G01*
X321600Y136857D02*
X329400D01*
X321600Y150257D02*
X329400D01*
X321600Y146357D02*
Y150257D01*
Y136857D02*
Y140757D01*
X329400Y136857D02*
Y140757D01*
Y146357D02*
Y150257D01*
X330600Y136957D02*
X336000D01*
X329400Y146657D02*
Y149157D01*
X337200Y146657D02*
Y149157D01*
X330600Y150357D02*
X336000D01*
X337200Y138157D02*
Y140657D01*
X329400Y138157D02*
Y140657D01*
X244100Y139157D02*
Y141657D01*
X251900Y139157D02*
Y141657D01*
X245300Y151357D02*
X250700D01*
X251900Y147657D02*
Y150157D01*
X244100Y147657D02*
Y150157D01*
X245300Y137957D02*
X250700D01*
X330600Y73257D02*
X336000D01*
X337200Y61057D02*
Y63557D01*
X329400Y61057D02*
Y63557D01*
X330600Y59857D02*
X336000D01*
X329400Y69557D02*
Y72057D01*
X337200Y69557D02*
Y72057D01*
X251600Y69557D02*
Y72057D01*
X243800Y69557D02*
Y72057D01*
X245000Y59857D02*
X250400D01*
X243800Y61057D02*
Y63557D01*
X251600Y61057D02*
Y63557D01*
X245000Y73257D02*
X250400D01*
X115857Y296661D02*
G03*
X117057Y295461I1200J0D01*
G01*
X122457D02*
G03*
X123657Y296661I0J1200D01*
G01*
X117057Y308861D02*
G03*
X115857Y307661I0J-1200D01*
G01*
X123657D02*
G03*
X122457Y308861I-1200J0D01*
G01*
X38357Y308661D02*
G03*
X37157Y309861I-1200J0D01*
G01*
X31757D02*
G03*
X30557Y308661I0J-1200D01*
G01*
X37157Y296461D02*
G03*
X38357Y297661I0J1200D01*
G01*
X30557D02*
G03*
X31757Y296461I1200J0D01*
G01*
X123657Y230561D02*
G03*
X122457Y231761I-1200J0D01*
G01*
X117057D02*
G03*
X115857Y230561I0J-1200D01*
G01*
X122457Y218361D02*
G03*
X123657Y219561I0J1200D01*
G01*
X115857D02*
G03*
X117057Y218361I1200J0D01*
G01*
X30257Y219561D02*
G03*
X31457Y218361I1200J0D01*
G01*
X36857D02*
G03*
X38057Y219561I0J1200D01*
G01*
X31457Y231761D02*
G03*
X30257Y230561I0J-1200D01*
G01*
X38057D02*
G03*
X36857Y231761I-1200J0D01*
G01*
X108057Y295361D02*
X115857D01*
X108057Y308761D02*
X115857D01*
X108057Y304861D02*
Y308761D01*
Y295361D02*
Y299261D01*
X115857Y295361D02*
Y299261D01*
Y304861D02*
Y308761D01*
X117057Y295461D02*
X122457D01*
X115857Y305161D02*
Y307661D01*
X123657Y305161D02*
Y307661D01*
X117057Y308861D02*
X122457D01*
X123657Y296661D02*
Y299161D01*
X115857Y296661D02*
Y299161D01*
X30557Y297661D02*
Y300161D01*
X38357Y297661D02*
Y300161D01*
X31757Y309861D02*
X37157D01*
X38357Y306161D02*
Y308661D01*
X30557Y306161D02*
Y308661D01*
X31757Y296461D02*
X37157D01*
X117057Y231761D02*
X122457D01*
X123657Y219561D02*
Y222061D01*
X115857Y219561D02*
Y222061D01*
X117057Y218361D02*
X122457D01*
X115857Y228061D02*
Y230561D01*
X123657Y228061D02*
Y230561D01*
X38057Y228061D02*
Y230561D01*
X30257Y228061D02*
Y230561D01*
X31457Y218361D02*
X36857D01*
X30257Y219561D02*
Y222061D01*
X38057Y219561D02*
Y222061D01*
X31457Y231761D02*
X36857D01*
X222628Y296661D02*
G03*
X223828Y295461I1200J0D01*
G01*
X229228D02*
G03*
X230428Y296661I0J1200D01*
G01*
X223828Y308861D02*
G03*
X222628Y307661I0J-1200D01*
G01*
X230428D02*
G03*
X229228Y308861I-1200J0D01*
G01*
X145128Y308661D02*
G03*
X143928Y309861I-1200J0D01*
G01*
X138528D02*
G03*
X137328Y308661I0J-1200D01*
G01*
X143928Y296461D02*
G03*
X145128Y297661I0J1200D01*
G01*
X137328D02*
G03*
X138528Y296461I1200J0D01*
G01*
X230428Y230561D02*
G03*
X229228Y231761I-1200J0D01*
G01*
X223828D02*
G03*
X222628Y230561I0J-1200D01*
G01*
X229228Y218361D02*
G03*
X230428Y219561I0J1200D01*
G01*
X222628D02*
G03*
X223828Y218361I1200J0D01*
G01*
X137028Y219561D02*
G03*
X138228Y218361I1200J0D01*
G01*
X143628D02*
G03*
X144828Y219561I0J1200D01*
G01*
X138228Y231761D02*
G03*
X137028Y230561I0J-1200D01*
G01*
X144828D02*
G03*
X143628Y231761I-1200J0D01*
G01*
X214828Y295361D02*
X222628D01*
X214828Y308761D02*
X222628D01*
X214828Y304861D02*
Y308761D01*
Y295361D02*
Y299261D01*
X222628Y295361D02*
Y299261D01*
Y304861D02*
Y308761D01*
X223828Y295461D02*
X229228D01*
X222628Y305161D02*
Y307661D01*
X230428Y305161D02*
Y307661D01*
X223828Y308861D02*
X229228D01*
X230428Y296661D02*
Y299161D01*
X222628Y296661D02*
Y299161D01*
X137328Y297661D02*
Y300161D01*
X145128Y297661D02*
Y300161D01*
X138528Y309861D02*
X143928D01*
X145128Y306161D02*
Y308661D01*
X137328Y306161D02*
Y308661D01*
X138528Y296461D02*
X143928D01*
X223828Y231761D02*
X229228D01*
X230428Y219561D02*
Y222061D01*
X222628Y219561D02*
Y222061D01*
X223828Y218361D02*
X229228D01*
X222628Y228061D02*
Y230561D01*
X230428Y228061D02*
Y230561D01*
X144828Y228061D02*
Y230561D01*
X137028Y228061D02*
Y230561D01*
X138228Y218361D02*
X143628D01*
X137028Y219561D02*
Y222061D01*
X144828Y219561D02*
Y222061D01*
X138228Y231761D02*
X143628D01*
X329400Y296661D02*
G03*
X330600Y295461I1200J0D01*
G01*
X336000D02*
G03*
X337200Y296661I0J1200D01*
G01*
X330600Y308861D02*
G03*
X329400Y307661I0J-1200D01*
G01*
X337200D02*
G03*
X336000Y308861I-1200J0D01*
G01*
X251900Y308661D02*
G03*
X250700Y309861I-1200J0D01*
G01*
X245300D02*
G03*
X244100Y308661I0J-1200D01*
G01*
X250700Y296461D02*
G03*
X251900Y297661I0J1200D01*
G01*
X244100D02*
G03*
X245300Y296461I1200J0D01*
G01*
X337200Y230561D02*
G03*
X336000Y231761I-1200J0D01*
G01*
X330600D02*
G03*
X329400Y230561I0J-1200D01*
G01*
X336000Y218361D02*
G03*
X337200Y219561I0J1200D01*
G01*
X329400D02*
G03*
X330600Y218361I1200J0D01*
G01*
X243800Y219561D02*
G03*
X245000Y218361I1200J0D01*
G01*
X250400D02*
G03*
X251600Y219561I0J1200D01*
G01*
X245000Y231761D02*
G03*
X243800Y230561I0J-1200D01*
G01*
X251600D02*
G03*
X250400Y231761I-1200J0D01*
G01*
X321600Y295361D02*
X329400D01*
X321600Y308761D02*
X329400D01*
X321600Y304861D02*
Y308761D01*
Y295361D02*
Y299261D01*
X329400Y295361D02*
Y299261D01*
Y304861D02*
Y308761D01*
X330600Y295461D02*
X336000D01*
X329400Y305161D02*
Y307661D01*
X337200Y305161D02*
Y307661D01*
X330600Y308861D02*
X336000D01*
X337200Y296661D02*
Y299161D01*
X329400Y296661D02*
Y299161D01*
X244100Y297661D02*
Y300161D01*
X251900Y297661D02*
Y300161D01*
X245300Y309861D02*
X250700D01*
X251900Y306161D02*
Y308661D01*
X244100Y306161D02*
Y308661D01*
X245300Y296461D02*
X250700D01*
X330600Y231761D02*
X336000D01*
X337200Y219561D02*
Y222061D01*
X329400Y219561D02*
Y222061D01*
X330600Y218361D02*
X336000D01*
X329400Y228061D02*
Y230561D01*
X337200Y228061D02*
Y230561D01*
X251600Y228061D02*
Y230561D01*
X243800Y228061D02*
Y230561D01*
X245000Y218361D02*
X250400D01*
X243800Y219561D02*
Y222061D01*
X251600Y219561D02*
Y222061D01*
X245000Y231761D02*
X250400D01*
D12*
X94261Y47596D02*
G03*
X95261Y48596I0J1000D01*
G01*
Y51596D02*
G03*
X94261Y52596I-1000J0D01*
G01*
X85261D02*
G03*
X84261Y51596I0J-1000D01*
G01*
Y48596D02*
G03*
X85261Y47596I1000J0D01*
G01*
X76364Y41360D02*
G03*
X75364Y42360I-1000J0D01*
G01*
Y37360D02*
G03*
X76364Y38360I0J1000D01*
G01*
X65364D02*
G03*
X66364Y37360I1000J0D01*
G01*
Y42360D02*
G03*
X65364Y41360I0J-1000D01*
G01*
X89761Y48718D02*
Y51474D01*
X91087Y47596D02*
X94261D01*
X85261D02*
X88436D01*
X84261Y48596D02*
Y51596D01*
X85261Y52596D02*
X88436D01*
X91087D02*
X94261D01*
X95261Y48596D02*
Y51596D01*
X65364Y38360D02*
Y41360D01*
X66364Y37360D02*
X69539D01*
X72189D02*
X75364D01*
X76364Y38360D02*
Y41360D01*
X72189Y42360D02*
X75364D01*
X66364D02*
X69539D01*
X70864Y38482D02*
Y41238D01*
X60500Y132498D02*
X61900D01*
X55200Y120697D02*
Y130099D01*
X67200Y120697D02*
Y130099D01*
X60500Y118298D02*
X61900D01*
X107657Y86657D02*
X109057D01*
X114357Y89056D02*
Y98457D01*
X102357Y89056D02*
Y98457D01*
X107657Y100857D02*
X109057D01*
X201033Y47596D02*
G03*
X202033Y48596I0J1000D01*
G01*
Y51596D02*
G03*
X201033Y52596I-1000J0D01*
G01*
X192033D02*
G03*
X191033Y51596I0J-1000D01*
G01*
Y48596D02*
G03*
X192033Y47596I1000J0D01*
G01*
X183135Y41360D02*
G03*
X182135Y42360I-1000J0D01*
G01*
Y37360D02*
G03*
X183135Y38360I0J1000D01*
G01*
X172135D02*
G03*
X173135Y37360I1000J0D01*
G01*
Y42360D02*
G03*
X172135Y41360I0J-1000D01*
G01*
X196533Y48718D02*
Y51474D01*
X197858Y47596D02*
X201033D01*
X192033D02*
X195208D01*
X191033Y48596D02*
Y51596D01*
X192033Y52596D02*
X195208D01*
X197858D02*
X201033D01*
X202033Y48596D02*
Y51596D01*
X172135Y38360D02*
Y41360D01*
X173135Y37360D02*
X176310D01*
X178961D02*
X182135D01*
X183135Y38360D02*
Y41360D01*
X178961Y42360D02*
X182135D01*
X173135D02*
X176310D01*
X177635Y38482D02*
Y41238D01*
X167272Y132498D02*
X168672D01*
X161972Y120697D02*
Y130099D01*
X173972Y120697D02*
Y130099D01*
X167272Y118298D02*
X168672D01*
X214428Y86657D02*
X215828D01*
X221128Y89056D02*
Y98457D01*
X209128Y89056D02*
Y98457D01*
X214428Y100857D02*
X215828D01*
X307805Y47596D02*
G03*
X308805Y48596I0J1000D01*
G01*
Y51596D02*
G03*
X307805Y52596I-1000J0D01*
G01*
X298805D02*
G03*
X297805Y51596I0J-1000D01*
G01*
Y48596D02*
G03*
X298805Y47596I1000J0D01*
G01*
X289907Y41360D02*
G03*
X288907Y42360I-1000J0D01*
G01*
Y37360D02*
G03*
X289907Y38360I0J1000D01*
G01*
X278907D02*
G03*
X279907Y37360I1000J0D01*
G01*
Y42360D02*
G03*
X278907Y41360I0J-1000D01*
G01*
X303305Y48718D02*
Y51474D01*
X304630Y47596D02*
X307805D01*
X298805D02*
X301979D01*
X297805Y48596D02*
Y51596D01*
X298805Y52596D02*
X301979D01*
X304630D02*
X307805D01*
X308805Y48596D02*
Y51596D01*
X278907Y38360D02*
Y41360D01*
X279907Y37360D02*
X283082D01*
X285732D02*
X288907D01*
X289907Y38360D02*
Y41360D01*
X285732Y42360D02*
X288907D01*
X279907D02*
X283082D01*
X284407Y38482D02*
Y41238D01*
X274043Y132498D02*
X275444D01*
X268743Y120697D02*
Y130099D01*
X280744Y120697D02*
Y130099D01*
X274043Y118298D02*
X275444D01*
X321200Y86657D02*
X322600D01*
X327900Y89056D02*
Y98457D01*
X315900Y89056D02*
Y98457D01*
X321200Y100857D02*
X322600D01*
X94261Y206100D02*
G03*
X95261Y207100I0J1000D01*
G01*
Y210100D02*
G03*
X94261Y211100I-1000J0D01*
G01*
X85261D02*
G03*
X84261Y210100I0J-1000D01*
G01*
Y207100D02*
G03*
X85261Y206100I1000J0D01*
G01*
X76364Y199864D02*
G03*
X75364Y200864I-1000J0D01*
G01*
Y195864D02*
G03*
X76364Y196864I0J1000D01*
G01*
X65364D02*
G03*
X66364Y195864I1000J0D01*
G01*
Y200864D02*
G03*
X65364Y199864I0J-1000D01*
G01*
X89761Y207222D02*
Y209978D01*
X91087Y206100D02*
X94261D01*
X85261D02*
X88436D01*
X84261Y207100D02*
Y210100D01*
X85261Y211100D02*
X88436D01*
X91087D02*
X94261D01*
X95261Y207100D02*
Y210100D01*
X65364Y196864D02*
Y199864D01*
X66364Y195864D02*
X69539D01*
X72189D02*
X75364D01*
X76364Y196864D02*
Y199864D01*
X72189Y200864D02*
X75364D01*
X66364D02*
X69539D01*
X70864Y196986D02*
Y199742D01*
X60500Y291002D02*
X61900D01*
X55200Y279201D02*
Y288602D01*
X67200Y279201D02*
Y288602D01*
X60500Y276802D02*
X61900D01*
X107657Y245161D02*
X109057D01*
X114357Y247560D02*
Y256961D01*
X102357Y247560D02*
Y256961D01*
X107657Y259361D02*
X109057D01*
X201033Y206100D02*
G03*
X202033Y207100I0J1000D01*
G01*
Y210100D02*
G03*
X201033Y211100I-1000J0D01*
G01*
X192033D02*
G03*
X191033Y210100I0J-1000D01*
G01*
Y207100D02*
G03*
X192033Y206100I1000J0D01*
G01*
X183135Y199864D02*
G03*
X182135Y200864I-1000J0D01*
G01*
Y195864D02*
G03*
X183135Y196864I0J1000D01*
G01*
X172135D02*
G03*
X173135Y195864I1000J0D01*
G01*
Y200864D02*
G03*
X172135Y199864I0J-1000D01*
G01*
X196533Y207222D02*
Y209978D01*
X197858Y206100D02*
X201033D01*
X192033D02*
X195208D01*
X191033Y207100D02*
Y210100D01*
X192033Y211100D02*
X195208D01*
X197858D02*
X201033D01*
X202033Y207100D02*
Y210100D01*
X172135Y196864D02*
Y199864D01*
X173135Y195864D02*
X176310D01*
X178961D02*
X182135D01*
X183135Y196864D02*
Y199864D01*
X178961Y200864D02*
X182135D01*
X173135D02*
X176310D01*
X177635Y196986D02*
Y199742D01*
X167272Y291002D02*
X168672D01*
X161972Y279201D02*
Y288602D01*
X173972Y279201D02*
Y288602D01*
X167272Y276802D02*
X168672D01*
X214428Y245161D02*
X215828D01*
X221128Y247560D02*
Y256961D01*
X209128Y247560D02*
Y256961D01*
X214428Y259361D02*
X215828D01*
X307805Y206100D02*
G03*
X308805Y207100I0J1000D01*
G01*
Y210100D02*
G03*
X307805Y211100I-1000J0D01*
G01*
X298805D02*
G03*
X297805Y210100I0J-1000D01*
G01*
Y207100D02*
G03*
X298805Y206100I1000J0D01*
G01*
X289907Y199864D02*
G03*
X288907Y200864I-1000J0D01*
G01*
Y195864D02*
G03*
X289907Y196864I0J1000D01*
G01*
X278907D02*
G03*
X279907Y195864I1000J0D01*
G01*
Y200864D02*
G03*
X278907Y199864I0J-1000D01*
G01*
X303305Y207222D02*
Y209978D01*
X304630Y206100D02*
X307805D01*
X298805D02*
X301979D01*
X297805Y207100D02*
Y210100D01*
X298805Y211100D02*
X301979D01*
X304630D02*
X307805D01*
X308805Y207100D02*
Y210100D01*
X278907Y196864D02*
Y199864D01*
X279907Y195864D02*
X283082D01*
X285732D02*
X288907D01*
X289907Y196864D02*
Y199864D01*
X285732Y200864D02*
X288907D01*
X279907D02*
X283082D01*
X284407Y196986D02*
Y199742D01*
X274043Y291002D02*
X275444D01*
X268743Y279201D02*
Y288602D01*
X280744Y279201D02*
Y288602D01*
X274043Y276802D02*
X275444D01*
X321200Y245161D02*
X322600D01*
X327900Y247560D02*
Y256961D01*
X315900Y247560D02*
Y256961D01*
X321200Y259361D02*
X322600D01*
D38*
X90272Y40236D02*
Y45536D01*
X86372D02*
X90272D01*
X86372Y40236D02*
Y45536D01*
Y40236D02*
X90272D01*
X66061Y48298D02*
Y61523D01*
Y48298D02*
X79009D01*
Y61523D01*
X66061D02*
X79009D01*
X31557Y131594D02*
X47057D01*
Y92494D02*
Y131594D01*
X31557Y92494D02*
X47057D01*
X31557D02*
Y96591D01*
Y127652D02*
Y131594D01*
X57243Y162047D02*
Y177547D01*
X96343D01*
Y162047D02*
Y177547D01*
X92246Y162047D02*
X96343D01*
X57243D02*
X61184D01*
X55727Y157617D02*
Y160817D01*
X56794Y159750D01*
X57860Y160817D01*
Y157617D01*
X59460Y159750D02*
X60526D01*
X61059Y159217D01*
Y157617D01*
X59460D01*
X58926Y158151D01*
X59460Y158684D01*
X61059D01*
X62125Y157617D02*
X63192D01*
X62659D01*
Y159750D01*
X62125D01*
X64791Y157617D02*
Y159750D01*
X66391D01*
X66924Y159217D01*
Y157617D01*
X67990Y159217D02*
X70123D01*
X71189Y160817D02*
Y158684D01*
X72255Y157617D01*
X73322Y158684D01*
Y160817D01*
X74388Y157617D02*
X75454D01*
X74921D01*
Y160817D01*
X74388Y160283D01*
X77054Y157617D02*
Y158151D01*
X77587D01*
Y157617D01*
X77054D01*
X81852D02*
X79720D01*
X81852Y159750D01*
Y160283D01*
X81319Y160817D01*
X80253D01*
X79720Y160283D01*
X55727Y152579D02*
Y155778D01*
X56794Y154711D01*
X57860Y155778D01*
Y152579D01*
X58926Y155778D02*
Y152579D01*
X60526D01*
X61059Y153112D01*
Y155245D01*
X60526Y155778D01*
X58926D01*
X62125Y154178D02*
X64258D01*
X65324Y155245D02*
X65858Y155778D01*
X66924D01*
X67457Y155245D01*
Y153112D01*
X66924Y152579D01*
X65858D01*
X65324Y153112D01*
Y155245D01*
X68523Y152579D02*
X69590D01*
X69057D01*
Y155778D01*
X68523Y155245D01*
X197044Y40236D02*
Y45536D01*
X193144D02*
X197044D01*
X193144Y40236D02*
Y45536D01*
Y40236D02*
X197044D01*
X172833Y48298D02*
Y61523D01*
Y48298D02*
X185781D01*
Y61523D01*
X172833D02*
X185781D01*
X138328Y131594D02*
X153828D01*
Y92494D02*
Y131594D01*
X138328Y92494D02*
X153828D01*
X138328D02*
Y96591D01*
Y127652D02*
Y131594D01*
X164014Y162047D02*
Y177547D01*
X203114D01*
Y162047D02*
Y177547D01*
X199017Y162047D02*
X203114D01*
X164014D02*
X167956D01*
X162499Y157617D02*
Y160817D01*
X163566Y159750D01*
X164632Y160817D01*
Y157617D01*
X166231Y159750D02*
X167298D01*
X167831Y159217D01*
Y157617D01*
X166231D01*
X165698Y158151D01*
X166231Y158684D01*
X167831D01*
X168897Y157617D02*
X169963D01*
X169430D01*
Y159750D01*
X168897D01*
X171563Y157617D02*
Y159750D01*
X173162D01*
X173696Y159217D01*
Y157617D01*
X174762Y159217D02*
X176894D01*
X177961Y160817D02*
Y158684D01*
X179027Y157617D01*
X180094Y158684D01*
Y160817D01*
X181160Y157617D02*
X182226D01*
X181693D01*
Y160817D01*
X181160Y160283D01*
X183826Y157617D02*
Y158151D01*
X184359D01*
Y157617D01*
X183826D01*
X188624D02*
X186491D01*
X188624Y159750D01*
Y160283D01*
X188091Y160817D01*
X187025D01*
X186491Y160283D01*
X162499Y152579D02*
Y155778D01*
X163566Y154711D01*
X164632Y155778D01*
Y152579D01*
X165698Y155778D02*
Y152579D01*
X167298D01*
X167831Y153112D01*
Y155245D01*
X167298Y155778D01*
X165698D01*
X168897Y154178D02*
X171030D01*
X172096Y155245D02*
X172629Y155778D01*
X173696D01*
X174229Y155245D01*
Y153112D01*
X173696Y152579D01*
X172629D01*
X172096Y153112D01*
Y155245D01*
X175295Y152579D02*
X176361D01*
X175828D01*
Y155778D01*
X175295Y155245D01*
X303816Y40236D02*
Y45536D01*
X299916D02*
X303816D01*
X299916Y40236D02*
Y45536D01*
Y40236D02*
X303816D01*
X279604Y48298D02*
Y61523D01*
Y48298D02*
X292552D01*
Y61523D01*
X279604D02*
X292552D01*
X245100Y131594D02*
X260600D01*
Y92494D02*
Y131594D01*
X245100Y92494D02*
X260600D01*
X245100D02*
Y96591D01*
Y127652D02*
Y131594D01*
X270786Y162047D02*
Y177547D01*
X309886D01*
Y162047D02*
Y177547D01*
X305789Y162047D02*
X309886D01*
X270786D02*
X274728D01*
X269271Y157617D02*
Y160817D01*
X270337Y159750D01*
X271404Y160817D01*
Y157617D01*
X273003Y159750D02*
X274069D01*
X274603Y159217D01*
Y157617D01*
X273003D01*
X272470Y158151D01*
X273003Y158684D01*
X274603D01*
X275669Y157617D02*
X276735D01*
X276202D01*
Y159750D01*
X275669D01*
X278335Y157617D02*
Y159750D01*
X279934D01*
X280467Y159217D01*
Y157617D01*
X281534Y159217D02*
X283666D01*
X284733Y160817D02*
Y158684D01*
X285799Y157617D01*
X286865Y158684D01*
Y160817D01*
X287931Y157617D02*
X288998D01*
X288465D01*
Y160817D01*
X287931Y160283D01*
X290597Y157617D02*
Y158151D01*
X291130D01*
Y157617D01*
X290597D01*
X295396D02*
X293263D01*
X295396Y159750D01*
Y160283D01*
X294863Y160817D01*
X293796D01*
X293263Y160283D01*
X269271Y152579D02*
Y155778D01*
X270337Y154711D01*
X271404Y155778D01*
Y152579D01*
X272470Y155778D02*
Y152579D01*
X274069D01*
X274603Y153112D01*
Y155245D01*
X274069Y155778D01*
X272470D01*
X275669Y154178D02*
X277801D01*
X278868Y155245D02*
X279401Y155778D01*
X280467D01*
X281000Y155245D01*
Y153112D01*
X280467Y152579D01*
X279401D01*
X278868Y153112D01*
Y155245D01*
X282067Y152579D02*
X283133D01*
X282600D01*
Y155778D01*
X282067Y155245D01*
X90272Y198740D02*
Y204040D01*
X86372D02*
X90272D01*
X86372Y198740D02*
Y204040D01*
Y198740D02*
X90272D01*
X66061Y206802D02*
Y220027D01*
Y206802D02*
X79009D01*
Y220027D01*
X66061D02*
X79009D01*
X31557Y290098D02*
X47057D01*
Y250998D02*
Y290098D01*
X31557Y250998D02*
X47057D01*
X31557D02*
Y255095D01*
Y286156D02*
Y290098D01*
X57243Y320551D02*
Y336051D01*
X96343D01*
Y320551D02*
Y336051D01*
X92246Y320551D02*
X96343D01*
X57243D02*
X61184D01*
X55727Y316122D02*
Y319320D01*
X56794Y318254D01*
X57860Y319320D01*
Y316122D01*
X59460Y318254D02*
X60526D01*
X61059Y317721D01*
Y316122D01*
X59460D01*
X58926Y316655D01*
X59460Y317188D01*
X61059D01*
X62125Y316122D02*
X63192D01*
X62659D01*
Y318254D01*
X62125D01*
X64791Y316122D02*
Y318254D01*
X66391D01*
X66924Y317721D01*
Y316122D01*
X67990Y317721D02*
X70123D01*
X71189Y319320D02*
Y317188D01*
X72255Y316122D01*
X73322Y317188D01*
Y319320D01*
X74388Y316122D02*
X75454D01*
X74921D01*
Y319320D01*
X74388Y318787D01*
X77054Y316122D02*
Y316655D01*
X77587D01*
Y316122D01*
X77054D01*
X81852D02*
X79720D01*
X81852Y318254D01*
Y318787D01*
X81319Y319320D01*
X80253D01*
X79720Y318787D01*
X55727Y311083D02*
Y314282D01*
X56794Y313215D01*
X57860Y314282D01*
Y311083D01*
X58926Y314282D02*
Y311083D01*
X60526D01*
X61059Y311616D01*
Y313749D01*
X60526Y314282D01*
X58926D01*
X62125Y312682D02*
X64258D01*
X65324Y313749D02*
X65858Y314282D01*
X66924D01*
X67457Y313749D01*
Y311616D01*
X66924Y311083D01*
X65858D01*
X65324Y311616D01*
Y313749D01*
X68523Y311083D02*
X69590D01*
X69057D01*
Y314282D01*
X68523Y313749D01*
X197044Y198740D02*
Y204040D01*
X193144D02*
X197044D01*
X193144Y198740D02*
Y204040D01*
Y198740D02*
X197044D01*
X172833Y206802D02*
Y220027D01*
Y206802D02*
X185781D01*
Y220027D01*
X172833D02*
X185781D01*
X138328Y290098D02*
X153828D01*
Y250998D02*
Y290098D01*
X138328Y250998D02*
X153828D01*
X138328D02*
Y255095D01*
Y286156D02*
Y290098D01*
X164014Y320551D02*
Y336051D01*
X203114D01*
Y320551D02*
Y336051D01*
X199017Y320551D02*
X203114D01*
X164014D02*
X167956D01*
X162499Y316122D02*
Y319320D01*
X163566Y318254D01*
X164632Y319320D01*
Y316122D01*
X166231Y318254D02*
X167298D01*
X167831Y317721D01*
Y316122D01*
X166231D01*
X165698Y316655D01*
X166231Y317188D01*
X167831D01*
X168897Y316122D02*
X169963D01*
X169430D01*
Y318254D01*
X168897D01*
X171563Y316122D02*
Y318254D01*
X173162D01*
X173696Y317721D01*
Y316122D01*
X174762Y317721D02*
X176894D01*
X177961Y319320D02*
Y317188D01*
X179027Y316122D01*
X180094Y317188D01*
Y319320D01*
X181160Y316122D02*
X182226D01*
X181693D01*
Y319320D01*
X181160Y318787D01*
X183826Y316122D02*
Y316655D01*
X184359D01*
Y316122D01*
X183826D01*
X188624D02*
X186491D01*
X188624Y318254D01*
Y318787D01*
X188091Y319320D01*
X187025D01*
X186491Y318787D01*
X162499Y311083D02*
Y314282D01*
X163566Y313215D01*
X164632Y314282D01*
Y311083D01*
X165698Y314282D02*
Y311083D01*
X167298D01*
X167831Y311616D01*
Y313749D01*
X167298Y314282D01*
X165698D01*
X168897Y312682D02*
X171030D01*
X172096Y313749D02*
X172629Y314282D01*
X173696D01*
X174229Y313749D01*
Y311616D01*
X173696Y311083D01*
X172629D01*
X172096Y311616D01*
Y313749D01*
X175295Y311083D02*
X176361D01*
X175828D01*
Y314282D01*
X175295Y313749D01*
X303816Y198740D02*
Y204040D01*
X299916D02*
X303816D01*
X299916Y198740D02*
Y204040D01*
Y198740D02*
X303816D01*
X279604Y206802D02*
Y220027D01*
Y206802D02*
X292552D01*
Y220027D01*
X279604D02*
X292552D01*
X245100Y290098D02*
X260600D01*
Y250998D02*
Y290098D01*
X245100Y250998D02*
X260600D01*
X245100D02*
Y255095D01*
Y286156D02*
Y290098D01*
X270786Y320551D02*
Y336051D01*
X309886D01*
Y320551D02*
Y336051D01*
X305789Y320551D02*
X309886D01*
X270786D02*
X274728D01*
X269271Y316122D02*
Y319320D01*
X270337Y318254D01*
X271404Y319320D01*
Y316122D01*
X273003Y318254D02*
X274069D01*
X274603Y317721D01*
Y316122D01*
X273003D01*
X272470Y316655D01*
X273003Y317188D01*
X274603D01*
X275669Y316122D02*
X276735D01*
X276202D01*
Y318254D01*
X275669D01*
X278335Y316122D02*
Y318254D01*
X279934D01*
X280467Y317721D01*
Y316122D01*
X281534Y317721D02*
X283666D01*
X284733Y319320D02*
Y317188D01*
X285799Y316122D01*
X286865Y317188D01*
Y319320D01*
X287931Y316122D02*
X288998D01*
X288465D01*
Y319320D01*
X287931Y318787D01*
X290597Y316122D02*
Y316655D01*
X291130D01*
Y316122D01*
X290597D01*
X295396D02*
X293263D01*
X295396Y318254D01*
Y318787D01*
X294863Y319320D01*
X293796D01*
X293263Y318787D01*
X269271Y311083D02*
Y314282D01*
X270337Y313215D01*
X271404Y314282D01*
Y311083D01*
X272470Y314282D02*
Y311083D01*
X274069D01*
X274603Y311616D01*
Y313749D01*
X274069Y314282D01*
X272470D01*
X275669Y312682D02*
X277801D01*
X278868Y313749D02*
X279401Y314282D01*
X280467D01*
X281000Y313749D01*
Y311616D01*
X280467Y311083D01*
X279401D01*
X278868Y311616D01*
Y313749D01*
X282067Y311083D02*
X283133D01*
X282600D01*
Y314282D01*
X282067Y313749D01*
D39*
X90951Y41336D02*
G03*
X90951Y41336I-79J0D01*
G01*
X30557Y125894D02*
G03*
X30557Y125894I-200J0D01*
G01*
X57894Y133776D02*
G03*
X57894Y133776I-200J0D01*
G01*
X63143Y160847D02*
G03*
X63143Y160847I-200J0D01*
G01*
X112063Y85379D02*
G03*
X112063Y85379I-200J0D01*
G01*
X197723Y41336D02*
G03*
X197723Y41336I-79J0D01*
G01*
X137328Y125894D02*
G03*
X137328Y125894I-200J0D01*
G01*
X164666Y133776D02*
G03*
X164666Y133776I-200J0D01*
G01*
X169914Y160847D02*
G03*
X169914Y160847I-200J0D01*
G01*
X218834Y85379D02*
G03*
X218834Y85379I-200J0D01*
G01*
X304495Y41336D02*
G03*
X304495Y41336I-79J0D01*
G01*
X244100Y125894D02*
G03*
X244100Y125894I-200J0D01*
G01*
X271438Y133776D02*
G03*
X271438Y133776I-200J0D01*
G01*
X276686Y160847D02*
G03*
X276686Y160847I-200J0D01*
G01*
X325606Y85379D02*
G03*
X325606Y85379I-200J0D01*
G01*
X90951Y199840D02*
G03*
X90951Y199840I-79J0D01*
G01*
X30557Y284398D02*
G03*
X30557Y284398I-200J0D01*
G01*
X57894Y292280D02*
G03*
X57894Y292280I-200J0D01*
G01*
X63143Y319351D02*
G03*
X63143Y319351I-200J0D01*
G01*
X112063Y243883D02*
G03*
X112063Y243883I-200J0D01*
G01*
X197723Y199840D02*
G03*
X197723Y199840I-79J0D01*
G01*
X137328Y284398D02*
G03*
X137328Y284398I-200J0D01*
G01*
X164666Y292280D02*
G03*
X164666Y292280I-200J0D01*
G01*
X169914Y319351D02*
G03*
X169914Y319351I-200J0D01*
G01*
X218834Y243883D02*
G03*
X218834Y243883I-200J0D01*
G01*
X304495Y199840D02*
G03*
X304495Y199840I-79J0D01*
G01*
X244100Y284398D02*
G03*
X244100Y284398I-200J0D01*
G01*
X271438Y292280D02*
G03*
X271438Y292280I-200J0D01*
G01*
X276686Y319351D02*
G03*
X276686Y319351I-200J0D01*
G01*
X325606Y243883D02*
G03*
X325606Y243883I-200J0D01*
G01*
D74*
X73096Y149077D02*
G03*
X73096Y149077I-492J0D01*
G01*
X45148Y62908D02*
G03*
X45148Y62908I-492J0D01*
G01*
X86139Y83592D02*
G03*
X86139Y83592I-492J0D01*
G01*
X179867Y149077D02*
G03*
X179867Y149077I-492J0D01*
G01*
X151920Y62908D02*
G03*
X151920Y62908I-492J0D01*
G01*
X192911Y83592D02*
G03*
X192911Y83592I-492J0D01*
G01*
X286639Y149077D02*
G03*
X286639Y149077I-492J0D01*
G01*
X258691Y62908D02*
G03*
X258691Y62908I-492J0D01*
G01*
X299682Y83592D02*
G03*
X299682Y83592I-492J0D01*
G01*
X73096Y307581D02*
G03*
X73096Y307581I-492J0D01*
G01*
X45148Y221412D02*
G03*
X45148Y221412I-492J0D01*
G01*
X86139Y242096D02*
G03*
X86139Y242096I-492J0D01*
G01*
X179867Y307581D02*
G03*
X179867Y307581I-492J0D01*
G01*
X151920Y221412D02*
G03*
X151920Y221412I-492J0D01*
G01*
X192911Y242096D02*
G03*
X192911Y242096I-492J0D01*
G01*
X286639Y307581D02*
G03*
X286639Y307581I-492J0D01*
G01*
X258691Y221412D02*
G03*
X258691Y221412I-492J0D01*
G01*
X299682Y242096D02*
G03*
X299682Y242096I-492J0D01*
G01*
D75*
X94378Y105953D02*
G03*
X94382Y102157I1896J-1896D01*
G01*
X100731Y102157D02*
G03*
X100735Y105953I-1892J1900D01*
G01*
X51935Y59661D02*
G03*
X51931Y63457I-1896J1896D01*
G01*
X45582Y63457D02*
G03*
X45578Y59661I1892J-1900D01*
G01*
X61361Y72978D02*
G03*
X65157Y72982I1896J1896D01*
G01*
X65157Y79331D02*
G03*
X61361Y79335I-1900J-1892D01*
G01*
X57261Y72978D02*
G03*
X61057Y72982I1896J1896D01*
G01*
X61057Y79331D02*
G03*
X57261Y79335I-1900J-1892D01*
G01*
X100420Y38850D02*
G03*
X100416Y42646I-1896J1896D01*
G01*
X94067Y42646D02*
G03*
X94063Y38850I1892J-1900D01*
G01*
X86189Y38409D02*
G03*
X86193Y34613I1896J-1896D01*
G01*
X92542Y34613D02*
G03*
X92546Y38409I-1892J1900D01*
G01*
X73058Y43279D02*
G03*
X73054Y47075I-1896J1896D01*
G01*
X66705Y47075D02*
G03*
X66701Y43279I1892J-1900D01*
G01*
X81129Y43082D02*
G03*
X81125Y46878I-1896J1896D01*
G01*
X74776Y46878D02*
G03*
X74772Y43082I1892J-1900D01*
G01*
X65153Y59735D02*
G03*
X61357Y59731I-1896J-1896D01*
G01*
X61357Y53382D02*
G03*
X65153Y53378I1900J1892D01*
G01*
X83685Y62330D02*
G03*
X79889Y62325I-1896J-1896D01*
G01*
X79889Y55977D02*
G03*
X83685Y55973I1900J1892D01*
G01*
X86557Y83332D02*
G03*
X86553Y79536I1892J-1900D01*
G01*
X92910Y79536D02*
G03*
X92906Y83332I-1896J1896D01*
G01*
X86557Y91732D02*
G03*
X86553Y87936I1892J-1900D01*
G01*
X92910Y87936D02*
G03*
X92906Y91732I-1896J1896D01*
G01*
X86557Y87532D02*
G03*
X86553Y83736I1892J-1900D01*
G01*
X92910Y83736D02*
G03*
X92906Y87532I-1896J1896D01*
G01*
X86557Y97332D02*
G03*
X86553Y93536I1892J-1900D01*
G01*
X92910Y93536D02*
G03*
X92906Y97332I-1896J1896D01*
G01*
X86357Y106232D02*
G03*
X86353Y102436I1892J-1900D01*
G01*
X92710Y102436D02*
G03*
X92706Y106232I-1896J1896D01*
G01*
X103357Y105432D02*
G03*
X103353Y101636I1892J-1900D01*
G01*
X109710Y101636D02*
G03*
X109706Y105432I-1896J1896D01*
G01*
X86357Y110232D02*
G03*
X86353Y106436I1892J-1900D01*
G01*
X92710Y106436D02*
G03*
X92706Y110232I-1896J1896D01*
G01*
X112706Y80933D02*
G03*
X112710Y84729I-1892J1900D01*
G01*
X106353Y84729D02*
G03*
X106357Y80933I1896J-1896D01*
G01*
X72032Y120506D02*
G03*
X68236Y120510I-1900J-1892D01*
G01*
X68236Y114153D02*
G03*
X72032Y114157I1896J1896D01*
G01*
X63010Y134136D02*
G03*
X63006Y137932I-1896J1896D01*
G01*
X56657Y137932D02*
G03*
X56653Y134136I1892J-1900D01*
G01*
X72427Y141110D02*
G03*
X68632Y141106I-1896J-1896D01*
G01*
X68632Y134757D02*
G03*
X72427Y134753I1900J1892D01*
G01*
X68632Y142961D02*
G03*
X72427Y142956I1900J1892D01*
G01*
X72427Y149313D02*
G03*
X68632Y149309I-1896J-1896D01*
G01*
X64536Y134753D02*
G03*
X68332Y134757I1896J1896D01*
G01*
X68332Y141106D02*
G03*
X64536Y141110I-1900J-1892D01*
G01*
X68332Y149309D02*
G03*
X64536Y149313I-1900J-1892D01*
G01*
X64536Y142956D02*
G03*
X68332Y142961I1896J1896D01*
G01*
X94389Y133915D02*
G03*
X98184Y133919I1896J1896D01*
G01*
X98185Y140267D02*
G03*
X94389Y140271I-1900J-1892D01*
G01*
X51457Y96531D02*
G03*
X47661Y96535I-1900J-1892D01*
G01*
X47661Y90178D02*
G03*
X51457Y90182I1896J1896D01*
G01*
X55657Y96531D02*
G03*
X51861Y96535I-1900J-1892D01*
G01*
X51861Y90178D02*
G03*
X55657Y90182I1896J1896D01*
G01*
X102557Y106482D02*
G03*
X106352Y106478I1900J1892D01*
G01*
X106352Y112835D02*
G03*
X102557Y112831I-1896J-1896D01*
G01*
X94382Y102157D02*
X100731D01*
X94378Y105953D02*
X94382Y105957D01*
X100731D01*
X100735Y105953D01*
X86016Y75157D02*
X93497D01*
X86016D02*
Y78957D01*
X93497D01*
Y75157D02*
Y78957D01*
X40357Y64016D02*
X44157D01*
Y71497D01*
X40357D02*
X44157D01*
X40357Y64016D02*
Y71497D01*
Y71316D02*
X44157D01*
Y78797D01*
X40357D02*
X44157D01*
X40357Y71316D02*
Y78797D01*
X45582Y63457D02*
X51931D01*
X51931Y59657D02*
X51935Y59661D01*
X45582Y59657D02*
X51931D01*
X45578Y59661D02*
X45582Y59657D01*
X61057Y64517D02*
Y71997D01*
X57257Y64517D02*
X61057D01*
X57257D02*
Y71997D01*
X61057D01*
X61357Y64517D02*
Y71997D01*
X65157D01*
Y64517D02*
Y71997D01*
X61357Y64517D02*
X65157D01*
Y72982D02*
Y79331D01*
X61357Y72982D02*
X61361Y72978D01*
X61357Y72982D02*
Y79331D01*
X61361Y79335D01*
X61057Y72982D02*
Y79331D01*
X57257Y72982D02*
X57261Y72978D01*
X57257Y72982D02*
Y79331D01*
X57261Y79335D01*
X65617Y80057D02*
X73097D01*
Y76257D02*
Y80057D01*
X65617Y76257D02*
X73097D01*
X65617D02*
Y80057D01*
X87763Y55608D02*
Y63088D01*
X91563D01*
Y55608D02*
Y63088D01*
X87763Y55608D02*
X91563D01*
X92192D02*
Y63088D01*
X95992D01*
Y55608D02*
Y63088D01*
X92192Y55608D02*
X95992D01*
X96621D02*
X100421D01*
Y63088D01*
X96621D02*
X100421D01*
X96621Y55608D02*
Y63088D01*
X98817Y42979D02*
Y46780D01*
X91336D02*
X98817D01*
X91336Y42979D02*
Y46780D01*
Y42979D02*
X98817D01*
X94068Y42646D02*
X100416D01*
X100416Y38846D02*
X100420Y38850D01*
X94067Y38846D02*
X100416D01*
X94063Y38850D02*
X94067Y38846D01*
X100982Y34613D02*
Y38413D01*
X93502D02*
X100982D01*
X93502Y34613D02*
Y38413D01*
Y34613D02*
X100982D01*
X93502Y34280D02*
X100982D01*
Y30479D02*
Y34280D01*
X93502Y30479D02*
X100982D01*
X93502D02*
Y34280D01*
X86193Y34613D02*
X92542D01*
X86189Y38409D02*
X86193Y38413D01*
X92542D01*
X92546Y38409D01*
X66705Y47075D02*
X73054D01*
X73054Y43275D02*
X73058Y43279D01*
X66705Y43275D02*
X73054D01*
X66701Y43279D02*
X66705Y43275D01*
X74776Y46878D02*
X81125D01*
X81125Y43078D02*
X81129Y43082D01*
X74776Y43078D02*
X81125D01*
X74772Y43082D02*
X74776Y43078D01*
X61357Y53382D02*
Y59731D01*
X65153Y59735D02*
X65157Y59731D01*
Y53382D02*
Y59731D01*
X65153Y53378D02*
X65157Y53382D01*
X79889Y55977D02*
Y62325D01*
X83685Y62330D02*
X83689Y62325D01*
Y55977D02*
Y62325D01*
X83685Y55973D02*
X83689Y55977D01*
X79889Y47143D02*
X83689D01*
Y54624D01*
X79889D02*
X83689D01*
X79889Y47143D02*
Y54624D01*
X88030Y154193D02*
X93319Y148904D01*
X88030Y154193D02*
X90717Y156880D01*
X96006Y151591D01*
X93319Y148904D02*
X96006Y151591D01*
X110757Y109197D02*
X114557D01*
X110757Y101716D02*
Y109197D01*
Y101716D02*
X114557D01*
Y109197D01*
X93009Y67547D02*
X100490D01*
Y63747D02*
Y67547D01*
X93009Y63747D02*
X100490D01*
X93009D02*
Y67547D01*
X123649Y86773D02*
Y90573D01*
X116168D02*
X123649D01*
X116168Y86773D02*
Y90573D01*
Y86773D02*
X123649D01*
X85332Y67547D02*
X92813D01*
Y63747D02*
Y67547D01*
X85332Y63747D02*
X92813D01*
X85332D02*
Y67547D01*
X94632Y148972D02*
X98432D01*
X94632Y141491D02*
Y148972D01*
Y141491D02*
X98432D01*
Y148972D01*
X68232Y121492D02*
Y128972D01*
X72032D01*
Y121492D02*
Y128972D01*
X68232Y121492D02*
X72032D01*
X93516Y75157D02*
X100997D01*
X93516D02*
Y78957D01*
X100997D01*
Y75157D02*
Y78957D01*
X86553Y79536D02*
X86557Y79532D01*
X92906D01*
X92910Y79536D01*
X86557Y83332D02*
X92906D01*
X86553Y87936D02*
X86557Y87932D01*
X92906D01*
X92910Y87936D01*
X86557Y91732D02*
X92906D01*
X86553Y83736D02*
X86557Y83732D01*
X92906D01*
X92910Y83736D01*
X86557Y87532D02*
X92906D01*
X86553Y93536D02*
X86557Y93532D01*
X92906D01*
X92910Y93536D01*
X86557Y97332D02*
X92906D01*
X86353Y102436D02*
X86357Y102432D01*
X92706D01*
X92710Y102436D01*
X86357Y106232D02*
X92706D01*
X97230Y88991D02*
Y96472D01*
X101030D01*
Y88991D02*
Y96472D01*
X97230Y88991D02*
X101030D01*
X103353Y101636D02*
X103357Y101632D01*
X109706D01*
X109710Y101636D01*
X103357Y105432D02*
X109706D01*
X85891Y101830D02*
X93372D01*
Y98030D02*
Y101830D01*
X85891Y98030D02*
X93372D01*
X85891D02*
Y101830D01*
X86353Y106436D02*
X86357Y106432D01*
X92706D01*
X92710Y106436D01*
X86357Y110232D02*
X92706D01*
X93591Y97932D02*
X101072D01*
X93591D02*
Y101732D01*
X101072D01*
Y97932D02*
Y101732D01*
X112706Y84733D02*
X112710Y84729D01*
X106357Y84733D02*
X112706D01*
X106353Y84729D02*
X106357Y84733D01*
X106357Y80933D02*
X112706D01*
X85791Y110532D02*
Y114332D01*
Y110532D02*
X93272D01*
Y114332D01*
X85791D02*
X93272D01*
X68232Y120506D02*
X68236Y120510D01*
X68232Y114157D02*
Y120506D01*
Y114157D02*
X68236Y114153D01*
X72032Y114157D02*
Y120506D01*
X64332Y138391D02*
Y145872D01*
X60532Y138391D02*
X64332D01*
X60532D02*
Y145872D01*
X64332D01*
X56657Y137932D02*
X63006D01*
X63006Y134132D02*
X63010Y134136D01*
X56657Y134132D02*
X63006D01*
X56653Y134136D02*
X56657Y134132D01*
X68632Y134757D02*
Y141106D01*
X72427Y141110D02*
X72432Y141106D01*
Y134757D02*
Y141106D01*
X72427Y134753D02*
X72432Y134757D01*
X72427Y142956D02*
X72432Y142961D01*
Y149309D01*
X72427Y149313D02*
X72432Y149309D01*
X68632Y142961D02*
Y149309D01*
X73312Y130514D02*
X77112D01*
X73312Y123034D02*
Y130514D01*
Y123034D02*
X77112D01*
Y130514D01*
X77544Y130546D02*
X81344D01*
X77544Y123065D02*
Y130546D01*
Y123065D02*
X81344D01*
Y130546D01*
X81875D02*
X85675D01*
X81875Y123065D02*
Y130546D01*
Y123065D02*
X85675D01*
Y130546D01*
X68332Y134757D02*
Y141106D01*
X64532Y134757D02*
X64536Y134753D01*
X64532Y134757D02*
Y141106D01*
X64536Y141110D01*
X64532Y149309D02*
X64536Y149313D01*
X64532Y142961D02*
Y149309D01*
Y142961D02*
X64536Y142956D01*
X68332Y142961D02*
Y149309D01*
X90438Y130613D02*
X94238D01*
X90438Y123132D02*
Y130613D01*
Y123132D02*
X94238D01*
Y130613D01*
X86206D02*
X90006D01*
X86206Y123132D02*
Y130613D01*
Y123132D02*
X90006D01*
Y130613D01*
X80417Y152557D02*
Y156357D01*
Y152557D02*
X87897D01*
Y156357D01*
X80417D02*
X87897D01*
X102032Y133391D02*
Y140872D01*
X98232Y133391D02*
X102032D01*
X98232D02*
Y140872D01*
X102032D01*
X98185Y133919D02*
Y140267D01*
X94384Y133919D02*
X94389Y133915D01*
X94384Y133919D02*
Y140267D01*
X94389Y140271D01*
X68291Y113332D02*
X75772D01*
Y109532D02*
Y113332D01*
X68291Y109532D02*
X75772D01*
X68291D02*
Y113332D01*
X72132Y113592D02*
Y121072D01*
X75932D01*
Y113592D02*
Y121072D01*
X72132Y113592D02*
X75932D01*
X47657Y96531D02*
X47661Y96535D01*
X47657Y90182D02*
Y96531D01*
Y90182D02*
X47661Y90178D01*
X51457Y90182D02*
Y96531D01*
X51857Y96531D02*
X51861Y96535D01*
X51857Y90182D02*
Y96531D01*
Y90182D02*
X51861Y90178D01*
X55657Y90182D02*
Y96531D01*
X94617Y117357D02*
X102097D01*
Y113557D02*
Y117357D01*
X94617Y113557D02*
X102097D01*
X94617D02*
Y117357D01*
X106352Y106478D02*
X106357Y106482D01*
Y112831D01*
X106352Y112835D02*
X106357Y112831D01*
X102557Y106482D02*
Y112831D01*
X98357Y106017D02*
Y113497D01*
X94557Y106017D02*
X98357D01*
X94557D02*
Y113497D01*
X98357D01*
X98557D02*
X102357D01*
X98557Y106017D02*
Y113497D01*
Y106017D02*
X102357D01*
Y113497D01*
X201150Y105953D02*
G03*
X201154Y102157I1896J-1896D01*
G01*
X207503Y102157D02*
G03*
X207507Y105953I-1892J1900D01*
G01*
X158707Y59661D02*
G03*
X158703Y63457I-1896J1896D01*
G01*
X152354Y63457D02*
G03*
X152350Y59661I1892J-1900D01*
G01*
X168132Y72978D02*
G03*
X171928Y72982I1896J1896D01*
G01*
X171928Y79331D02*
G03*
X168132Y79335I-1900J-1892D01*
G01*
X164032Y72978D02*
G03*
X167828Y72982I1896J1896D01*
G01*
X167828Y79331D02*
G03*
X164032Y79335I-1900J-1892D01*
G01*
X207192Y38850D02*
G03*
X207188Y42646I-1896J1896D01*
G01*
X200839Y42646D02*
G03*
X200835Y38850I1892J-1900D01*
G01*
X192961Y38409D02*
G03*
X192965Y34613I1896J-1896D01*
G01*
X199314Y34613D02*
G03*
X199318Y38409I-1892J1900D01*
G01*
X179830Y43279D02*
G03*
X179825Y47075I-1896J1896D01*
G01*
X173477Y47075D02*
G03*
X173473Y43279I1892J-1900D01*
G01*
X187900Y43082D02*
G03*
X187896Y46878I-1896J1896D01*
G01*
X181548Y46878D02*
G03*
X181544Y43082I1892J-1900D01*
G01*
X171924Y59735D02*
G03*
X168128Y59731I-1896J-1896D01*
G01*
X168128Y53382D02*
G03*
X171924Y53378I1900J1892D01*
G01*
X190456Y62330D02*
G03*
X186661Y62325I-1896J-1896D01*
G01*
X186661Y55977D02*
G03*
X190456Y55973I1900J1892D01*
G01*
X193329Y83332D02*
G03*
X193325Y79536I1892J-1900D01*
G01*
X199682Y79536D02*
G03*
X199678Y83332I-1896J1896D01*
G01*
X193329Y91732D02*
G03*
X193325Y87936I1892J-1900D01*
G01*
X199682Y87936D02*
G03*
X199678Y91732I-1896J1896D01*
G01*
X193329Y87532D02*
G03*
X193325Y83736I1892J-1900D01*
G01*
X199682Y83736D02*
G03*
X199678Y87532I-1896J1896D01*
G01*
X193329Y97332D02*
G03*
X193325Y93536I1892J-1900D01*
G01*
X199682Y93536D02*
G03*
X199678Y97332I-1896J1896D01*
G01*
X193129Y106232D02*
G03*
X193125Y102436I1892J-1900D01*
G01*
X199482Y102436D02*
G03*
X199478Y106232I-1896J1896D01*
G01*
X210129Y105432D02*
G03*
X210125Y101636I1892J-1900D01*
G01*
X216482Y101636D02*
G03*
X216478Y105432I-1896J1896D01*
G01*
X193129Y110232D02*
G03*
X193125Y106436I1892J-1900D01*
G01*
X199482Y106436D02*
G03*
X199478Y110232I-1896J1896D01*
G01*
X219478Y80933D02*
G03*
X219482Y84729I-1892J1900D01*
G01*
X213125Y84729D02*
G03*
X213129Y80933I1896J-1896D01*
G01*
X178803Y120506D02*
G03*
X175007Y120510I-1900J-1892D01*
G01*
X175007Y114153D02*
G03*
X178803Y114157I1896J1896D01*
G01*
X169782Y134136D02*
G03*
X169778Y137932I-1896J1896D01*
G01*
X163429Y137932D02*
G03*
X163425Y134136I1892J-1900D01*
G01*
X179199Y141110D02*
G03*
X175403Y141106I-1896J-1896D01*
G01*
X175403Y134757D02*
G03*
X179199Y134753I1900J1892D01*
G01*
X175403Y142961D02*
G03*
X179199Y142956I1900J1892D01*
G01*
X179199Y149313D02*
G03*
X175403Y149309I-1896J-1896D01*
G01*
X171308Y134753D02*
G03*
X175103Y134757I1896J1896D01*
G01*
X175103Y141106D02*
G03*
X171308Y141110I-1900J-1892D01*
G01*
X175103Y149309D02*
G03*
X171308Y149313I-1900J-1892D01*
G01*
X171308Y142956D02*
G03*
X175103Y142961I1896J1896D01*
G01*
X201160Y133915D02*
G03*
X204956Y133919I1896J1896D01*
G01*
X204956Y140267D02*
G03*
X201160Y140271I-1900J-1892D01*
G01*
X158228Y96531D02*
G03*
X154432Y96535I-1900J-1892D01*
G01*
X154432Y90178D02*
G03*
X158228Y90182I1896J1896D01*
G01*
X162428Y96531D02*
G03*
X158633Y96535I-1900J-1892D01*
G01*
X158633Y90178D02*
G03*
X162428Y90182I1896J1896D01*
G01*
X209328Y106482D02*
G03*
X213124Y106478I1900J1892D01*
G01*
X213124Y112835D02*
G03*
X209328Y112831I-1896J-1896D01*
G01*
X201154Y102157D02*
X207503D01*
X201150Y105953D02*
X201154Y105957D01*
X207503D01*
X207507Y105953D01*
X192788Y75157D02*
X200269D01*
X192788D02*
Y78957D01*
X200269D01*
Y75157D02*
Y78957D01*
X147128Y64016D02*
X150928D01*
Y71497D01*
X147128D02*
X150928D01*
X147128Y64016D02*
Y71497D01*
Y71316D02*
X150928D01*
Y78797D01*
X147128D02*
X150928D01*
X147128Y71316D02*
Y78797D01*
X152354Y63457D02*
X158703D01*
X158703Y59657D02*
X158707Y59661D01*
X152354Y59657D02*
X158703D01*
X152350Y59661D02*
X152354Y59657D01*
X167828Y64517D02*
Y71997D01*
X164028Y64517D02*
X167828D01*
X164028D02*
Y71997D01*
X167828D01*
X168128Y64517D02*
Y71997D01*
X171928D01*
Y64517D02*
Y71997D01*
X168128Y64517D02*
X171928D01*
Y72982D02*
Y79331D01*
X168128Y72982D02*
X168132Y72978D01*
X168128Y72982D02*
Y79331D01*
X168132Y79335D01*
X167828Y72982D02*
Y79331D01*
X164028Y72982D02*
X164032Y72978D01*
X164028Y72982D02*
Y79331D01*
X164032Y79335D01*
X172388Y80057D02*
X179868D01*
Y76257D02*
Y80057D01*
X172388Y76257D02*
X179868D01*
X172388D02*
Y80057D01*
X194535Y55608D02*
Y63088D01*
X198335D01*
Y55608D02*
Y63088D01*
X194535Y55608D02*
X198335D01*
X198964D02*
Y63088D01*
X202764D01*
Y55608D02*
Y63088D01*
X198964Y55608D02*
X202764D01*
X203393D02*
X207193D01*
Y63088D01*
X203393D02*
X207193D01*
X203393Y55608D02*
Y63088D01*
X205588Y42979D02*
Y46780D01*
X198108D02*
X205588D01*
X198108Y42979D02*
Y46780D01*
Y42979D02*
X205588D01*
X200839Y42646D02*
X207188D01*
X207188Y38846D02*
X207192Y38850D01*
X200839Y38846D02*
X207188D01*
X200835Y38850D02*
X200839Y38846D01*
X207753Y34613D02*
Y38413D01*
X200273D02*
X207753D01*
X200273Y34613D02*
Y38413D01*
Y34613D02*
X207753D01*
X200273Y34280D02*
X207753D01*
Y30479D02*
Y34280D01*
X200273Y30479D02*
X207753D01*
X200273D02*
Y34280D01*
X192965Y34613D02*
X199314D01*
X192961Y38409D02*
X192965Y38413D01*
X199314D01*
X199318Y38409D01*
X173477Y47075D02*
X179825D01*
X179825Y43275D02*
X179830Y43279D01*
X173477Y43275D02*
X179825D01*
X173473Y43279D02*
X173477Y43275D01*
X181548Y46878D02*
X187896D01*
X187896Y43078D02*
X187900Y43082D01*
X181548Y43078D02*
X187896D01*
X181544Y43082D02*
X181548Y43078D01*
X168128Y53382D02*
Y59731D01*
X171924Y59735D02*
X171928Y59731D01*
Y53382D02*
Y59731D01*
X171924Y53378D02*
X171928Y53382D01*
X186661Y55977D02*
Y62325D01*
X190456Y62330D02*
X190461Y62325D01*
Y55977D02*
Y62325D01*
X190456Y55973D02*
X190461Y55977D01*
X186661Y47143D02*
X190461D01*
Y54624D01*
X186661D02*
X190461D01*
X186661Y47143D02*
Y54624D01*
X194801Y154193D02*
X200091Y148904D01*
X194801Y154193D02*
X197489Y156880D01*
X202778Y151591D01*
X200091Y148904D02*
X202778Y151591D01*
X217528Y109197D02*
X221328D01*
X217528Y101716D02*
Y109197D01*
Y101716D02*
X221328D01*
Y109197D01*
X199781Y67547D02*
X207261D01*
Y63747D02*
Y67547D01*
X199781Y63747D02*
X207261D01*
X199781D02*
Y67547D01*
X230420Y86773D02*
Y90573D01*
X222940D02*
X230420D01*
X222940Y86773D02*
Y90573D01*
Y86773D02*
X230420D01*
X192104Y67547D02*
X199584D01*
Y63747D02*
Y67547D01*
X192104Y63747D02*
X199584D01*
X192104D02*
Y67547D01*
X201403Y148972D02*
X205203D01*
X201403Y141491D02*
Y148972D01*
Y141491D02*
X205203D01*
Y148972D01*
X175003Y121492D02*
Y128972D01*
X178803D01*
Y121492D02*
Y128972D01*
X175003Y121492D02*
X178803D01*
X200288Y75157D02*
X207769D01*
X200288D02*
Y78957D01*
X207769D01*
Y75157D02*
Y78957D01*
X193325Y79536D02*
X193329Y79532D01*
X199678D01*
X199682Y79536D01*
X193329Y83332D02*
X199678D01*
X193325Y87936D02*
X193329Y87932D01*
X199678D01*
X199682Y87936D01*
X193329Y91732D02*
X199678D01*
X193325Y83736D02*
X193329Y83732D01*
X199678D01*
X199682Y83736D01*
X193329Y87532D02*
X199678D01*
X193325Y93536D02*
X193329Y93532D01*
X199678D01*
X199682Y93536D01*
X193329Y97332D02*
X199678D01*
X193125Y102436D02*
X193129Y102432D01*
X199478D01*
X199482Y102436D01*
X193129Y106232D02*
X199478D01*
X204002Y88991D02*
Y96472D01*
X207802D01*
Y88991D02*
Y96472D01*
X204002Y88991D02*
X207802D01*
X210125Y101636D02*
X210129Y101632D01*
X216478D01*
X216482Y101636D01*
X210129Y105432D02*
X216478D01*
X192663Y101830D02*
X200144D01*
Y98030D02*
Y101830D01*
X192663Y98030D02*
X200144D01*
X192663D02*
Y101830D01*
X193125Y106436D02*
X193129Y106432D01*
X199478D01*
X199482Y106436D01*
X193129Y110232D02*
X199478D01*
X200363Y97932D02*
X207843D01*
X200363D02*
Y101732D01*
X207843D01*
Y97932D02*
Y101732D01*
X219478Y84733D02*
X219482Y84729D01*
X213129Y84733D02*
X219478D01*
X213125Y84729D02*
X213129Y84733D01*
X213129Y80933D02*
X219478D01*
X192563Y110532D02*
Y114332D01*
Y110532D02*
X200044D01*
Y114332D01*
X192563D02*
X200044D01*
X175003Y120506D02*
X175007Y120510D01*
X175003Y114157D02*
Y120506D01*
Y114157D02*
X175007Y114153D01*
X178803Y114157D02*
Y120506D01*
X171103Y138391D02*
Y145872D01*
X167303Y138391D02*
X171103D01*
X167303D02*
Y145872D01*
X171103D01*
X163429Y137932D02*
X169778D01*
X169778Y134132D02*
X169782Y134136D01*
X163429Y134132D02*
X169778D01*
X163425Y134136D02*
X163429Y134132D01*
X175403Y134757D02*
Y141106D01*
X179199Y141110D02*
X179203Y141106D01*
Y134757D02*
Y141106D01*
X179199Y134753D02*
X179203Y134757D01*
X179199Y142956D02*
X179203Y142961D01*
Y149309D01*
X179199Y149313D02*
X179203Y149309D01*
X175403Y142961D02*
Y149309D01*
X180084Y130514D02*
X183884D01*
X180084Y123034D02*
Y130514D01*
Y123034D02*
X183884D01*
Y130514D01*
X184316Y130546D02*
X188116D01*
X184316Y123065D02*
Y130546D01*
Y123065D02*
X188116D01*
Y130546D01*
X188647D02*
X192447D01*
X188647Y123065D02*
Y130546D01*
Y123065D02*
X192447D01*
Y130546D01*
X175103Y134757D02*
Y141106D01*
X171303Y134757D02*
X171308Y134753D01*
X171303Y134757D02*
Y141106D01*
X171308Y141110D01*
X171303Y149309D02*
X171308Y149313D01*
X171303Y142961D02*
Y149309D01*
Y142961D02*
X171308Y142956D01*
X175103Y142961D02*
Y149309D01*
X197210Y130613D02*
X201010D01*
X197210Y123132D02*
Y130613D01*
Y123132D02*
X201010D01*
Y130613D01*
X192977D02*
X196777D01*
X192977Y123132D02*
Y130613D01*
Y123132D02*
X196777D01*
Y130613D01*
X187188Y152557D02*
Y156357D01*
Y152557D02*
X194668D01*
Y156357D01*
X187188D02*
X194668D01*
X208803Y133391D02*
Y140872D01*
X205003Y133391D02*
X208803D01*
X205003D02*
Y140872D01*
X208803D01*
X204956Y133919D02*
Y140267D01*
X201156Y133919D02*
X201160Y133915D01*
X201156Y133919D02*
Y140267D01*
X201160Y140271D01*
X175063Y113332D02*
X182544D01*
Y109532D02*
Y113332D01*
X175063Y109532D02*
X182544D01*
X175063D02*
Y113332D01*
X178903Y113592D02*
Y121072D01*
X182703D01*
Y113592D02*
Y121072D01*
X178903Y113592D02*
X182703D01*
X154428Y96531D02*
X154432Y96535D01*
X154428Y90182D02*
Y96531D01*
Y90182D02*
X154432Y90178D01*
X158228Y90182D02*
Y96531D01*
X158628Y96531D02*
X158633Y96535D01*
X158628Y90182D02*
Y96531D01*
Y90182D02*
X158633Y90178D01*
X162428Y90182D02*
Y96531D01*
X201388Y117357D02*
X208869D01*
Y113557D02*
Y117357D01*
X201388Y113557D02*
X208869D01*
X201388D02*
Y117357D01*
X213124Y106478D02*
X213128Y106482D01*
Y112831D01*
X213124Y112835D02*
X213128Y112831D01*
X209328Y106482D02*
Y112831D01*
X205128Y106017D02*
Y113497D01*
X201328Y106017D02*
X205128D01*
X201328D02*
Y113497D01*
X205128D01*
X205328D02*
X209128D01*
X205328Y106017D02*
Y113497D01*
Y106017D02*
X209128D01*
Y113497D01*
X307922Y105953D02*
G03*
X307926Y102157I1896J-1896D01*
G01*
X314274Y102157D02*
G03*
X314278Y105953I-1892J1900D01*
G01*
X265478Y59661D02*
G03*
X265474Y63457I-1896J1896D01*
G01*
X259126Y63457D02*
G03*
X259122Y59661I1892J-1900D01*
G01*
X274904Y72978D02*
G03*
X278700Y72982I1896J1896D01*
G01*
X278700Y79331D02*
G03*
X274904Y79335I-1900J-1892D01*
G01*
X270804Y72978D02*
G03*
X274600Y72982I1896J1896D01*
G01*
X274600Y79331D02*
G03*
X270804Y79335I-1900J-1892D01*
G01*
X313964Y38850D02*
G03*
X313959Y42646I-1896J1896D01*
G01*
X307611Y42646D02*
G03*
X307607Y38850I1892J-1900D01*
G01*
X299733Y38409D02*
G03*
X299737Y34613I1896J-1896D01*
G01*
X306085Y34613D02*
G03*
X306089Y38409I-1892J1900D01*
G01*
X286601Y43279D02*
G03*
X286597Y47075I-1896J1896D01*
G01*
X280249Y47075D02*
G03*
X280244Y43279I1892J-1900D01*
G01*
X294672Y43082D02*
G03*
X294668Y46878I-1896J1896D01*
G01*
X288319Y46878D02*
G03*
X288315Y43082I1892J-1900D01*
G01*
X278696Y59735D02*
G03*
X274900Y59731I-1896J-1896D01*
G01*
X274900Y53382D02*
G03*
X278696Y53378I1900J1892D01*
G01*
X297228Y62330D02*
G03*
X293432Y62325I-1896J-1896D01*
G01*
X293432Y55977D02*
G03*
X297228Y55973I1900J1892D01*
G01*
X300101Y83332D02*
G03*
X300097Y79536I1892J-1900D01*
G01*
X306453Y79536D02*
G03*
X306449Y83332I-1896J1896D01*
G01*
X300101Y91732D02*
G03*
X300097Y87936I1892J-1900D01*
G01*
X306453Y87936D02*
G03*
X306449Y91732I-1896J1896D01*
G01*
X300101Y87532D02*
G03*
X300097Y83736I1892J-1900D01*
G01*
X306453Y83736D02*
G03*
X306449Y87532I-1896J1896D01*
G01*
X300101Y97332D02*
G03*
X300097Y93536I1892J-1900D01*
G01*
X306453Y93536D02*
G03*
X306449Y97332I-1896J1896D01*
G01*
X299901Y106232D02*
G03*
X299897Y102436I1892J-1900D01*
G01*
X306253Y102436D02*
G03*
X306249Y106232I-1896J1896D01*
G01*
X316901Y105432D02*
G03*
X316897Y101636I1892J-1900D01*
G01*
X323253Y101636D02*
G03*
X323249Y105432I-1896J1896D01*
G01*
X299901Y110232D02*
G03*
X299897Y106436I1892J-1900D01*
G01*
X306253Y106436D02*
G03*
X306249Y110232I-1896J1896D01*
G01*
X326249Y80933D02*
G03*
X326253Y84729I-1892J1900D01*
G01*
X319897Y84729D02*
G03*
X319901Y80933I1896J-1896D01*
G01*
X285575Y120506D02*
G03*
X281779Y120510I-1900J-1892D01*
G01*
X281779Y114153D02*
G03*
X285575Y114157I1896J1896D01*
G01*
X276553Y134136D02*
G03*
X276549Y137932I-1896J1896D01*
G01*
X270201Y137932D02*
G03*
X270197Y134136I1892J-1900D01*
G01*
X285971Y141110D02*
G03*
X282175Y141106I-1896J-1896D01*
G01*
X282175Y134757D02*
G03*
X285971Y134753I1900J1892D01*
G01*
X282175Y142961D02*
G03*
X285971Y142956I1900J1892D01*
G01*
X285971Y149313D02*
G03*
X282175Y149309I-1896J-1896D01*
G01*
X278079Y134753D02*
G03*
X281875Y134757I1896J1896D01*
G01*
X281875Y141106D02*
G03*
X278079Y141110I-1900J-1892D01*
G01*
X281875Y149309D02*
G03*
X278079Y149313I-1900J-1892D01*
G01*
X278079Y142956D02*
G03*
X281875Y142961I1896J1896D01*
G01*
X307932Y133915D02*
G03*
X311728Y133919I1896J1896D01*
G01*
X311728Y140267D02*
G03*
X307932Y140271I-1900J-1892D01*
G01*
X265000Y96531D02*
G03*
X261204Y96535I-1900J-1892D01*
G01*
X261204Y90178D02*
G03*
X265000Y90182I1896J1896D01*
G01*
X269200Y96531D02*
G03*
X265404Y96535I-1900J-1892D01*
G01*
X265404Y90178D02*
G03*
X269200Y90182I1896J1896D01*
G01*
X316100Y106482D02*
G03*
X319896Y106478I1900J1892D01*
G01*
X319896Y112835D02*
G03*
X316100Y112831I-1896J-1896D01*
G01*
X307926Y102157D02*
X314274D01*
X307922Y105953D02*
X307926Y105957D01*
X314274D01*
X314278Y105953D01*
X299560Y75157D02*
X307040D01*
X299560D02*
Y78957D01*
X307040D01*
Y75157D02*
Y78957D01*
X253900Y64016D02*
X257700D01*
Y71497D01*
X253900D02*
X257700D01*
X253900Y64016D02*
Y71497D01*
Y71316D02*
X257700D01*
Y78797D01*
X253900D02*
X257700D01*
X253900Y71316D02*
Y78797D01*
X259126Y63457D02*
X265474D01*
X265474Y59657D02*
X265478Y59661D01*
X259126Y59657D02*
X265474D01*
X259122Y59661D02*
X259126Y59657D01*
X274600Y64517D02*
Y71997D01*
X270800Y64517D02*
X274600D01*
X270800D02*
Y71997D01*
X274600D01*
X274900Y64517D02*
Y71997D01*
X278700D01*
Y64517D02*
Y71997D01*
X274900Y64517D02*
X278700D01*
Y72982D02*
Y79331D01*
X274900Y72982D02*
X274904Y72978D01*
X274900Y72982D02*
Y79331D01*
X274904Y79335D01*
X274600Y72982D02*
Y79331D01*
X270800Y72982D02*
X270804Y72978D01*
X270800Y72982D02*
Y79331D01*
X270804Y79335D01*
X279160Y80057D02*
X286640D01*
Y76257D02*
Y80057D01*
X279160Y76257D02*
X286640D01*
X279160D02*
Y80057D01*
X301306Y55608D02*
Y63088D01*
X305106D01*
Y55608D02*
Y63088D01*
X301306Y55608D02*
X305106D01*
X305735D02*
Y63088D01*
X309535D01*
Y55608D02*
Y63088D01*
X305735Y55608D02*
X309535D01*
X310165D02*
X313965D01*
Y63088D01*
X310165D02*
X313965D01*
X310165Y55608D02*
Y63088D01*
X312360Y42979D02*
Y46780D01*
X304880D02*
X312360D01*
X304880Y42979D02*
Y46780D01*
Y42979D02*
X312360D01*
X307611Y42646D02*
X313959D01*
X313959Y38846D02*
X313964Y38850D01*
X307611Y38846D02*
X313959D01*
X307607Y38850D02*
X307611Y38846D01*
X314525Y34613D02*
Y38413D01*
X307045D02*
X314525D01*
X307045Y34613D02*
Y38413D01*
Y34613D02*
X314525D01*
X307045Y34280D02*
X314525D01*
Y30479D02*
Y34280D01*
X307045Y30479D02*
X314525D01*
X307045D02*
Y34280D01*
X299737Y34613D02*
X306085D01*
X299733Y38409D02*
X299737Y38413D01*
X306085D01*
X306089Y38409D01*
X280249Y47075D02*
X286597D01*
X286597Y43275D02*
X286601Y43279D01*
X280249Y43275D02*
X286597D01*
X280244Y43279D02*
X280249Y43275D01*
X288319Y46878D02*
X294668D01*
X294668Y43078D02*
X294672Y43082D01*
X288319Y43078D02*
X294668D01*
X288315Y43082D02*
X288319Y43078D01*
X274900Y53382D02*
Y59731D01*
X278696Y59735D02*
X278700Y59731D01*
Y53382D02*
Y59731D01*
X278696Y53378D02*
X278700Y53382D01*
X293432Y55977D02*
Y62325D01*
X297228Y62330D02*
X297232Y62325D01*
Y55977D02*
Y62325D01*
X297228Y55973D02*
X297232Y55977D01*
X293432Y47143D02*
X297232D01*
Y54624D01*
X293432D02*
X297232D01*
X293432Y47143D02*
Y54624D01*
X301573Y154193D02*
X306863Y148904D01*
X301573Y154193D02*
X304260Y156880D01*
X309550Y151591D01*
X306863Y148904D02*
X309550Y151591D01*
X324300Y109197D02*
X328100D01*
X324300Y101716D02*
Y109197D01*
Y101716D02*
X328100D01*
Y109197D01*
X306553Y67547D02*
X314033D01*
Y63747D02*
Y67547D01*
X306553Y63747D02*
X314033D01*
X306553D02*
Y67547D01*
X337192Y86773D02*
Y90573D01*
X329712D02*
X337192D01*
X329712Y86773D02*
Y90573D01*
Y86773D02*
X337192D01*
X298876Y67547D02*
X306356D01*
Y63747D02*
Y67547D01*
X298876Y63747D02*
X306356D01*
X298876D02*
Y67547D01*
X308175Y148972D02*
X311975D01*
X308175Y141491D02*
Y148972D01*
Y141491D02*
X311975D01*
Y148972D01*
X281775Y121492D02*
Y128972D01*
X285575D01*
Y121492D02*
Y128972D01*
X281775Y121492D02*
X285575D01*
X307060Y75157D02*
X314540D01*
X307060D02*
Y78957D01*
X314540D01*
Y75157D02*
Y78957D01*
X300097Y79536D02*
X300101Y79532D01*
X306449D01*
X306453Y79536D01*
X300101Y83332D02*
X306449D01*
X300097Y87936D02*
X300101Y87932D01*
X306449D01*
X306453Y87936D01*
X300101Y91732D02*
X306449D01*
X300097Y83736D02*
X300101Y83732D01*
X306449D01*
X306453Y83736D01*
X300101Y87532D02*
X306449D01*
X300097Y93536D02*
X300101Y93532D01*
X306449D01*
X306453Y93536D01*
X300101Y97332D02*
X306449D01*
X299897Y102436D02*
X299901Y102432D01*
X306249D01*
X306253Y102436D01*
X299901Y106232D02*
X306249D01*
X310773Y88991D02*
Y96472D01*
X314574D01*
Y88991D02*
Y96472D01*
X310773Y88991D02*
X314574D01*
X316897Y101636D02*
X316901Y101632D01*
X323249D01*
X323253Y101636D01*
X316901Y105432D02*
X323249D01*
X299435Y101830D02*
X306915D01*
Y98030D02*
Y101830D01*
X299435Y98030D02*
X306915D01*
X299435D02*
Y101830D01*
X299897Y106436D02*
X299901Y106432D01*
X306249D01*
X306253Y106436D01*
X299901Y110232D02*
X306249D01*
X307135Y97932D02*
X314615D01*
X307135D02*
Y101732D01*
X314615D01*
Y97932D02*
Y101732D01*
X326249Y84733D02*
X326253Y84729D01*
X319901Y84733D02*
X326249D01*
X319897Y84729D02*
X319901Y84733D01*
X319901Y80933D02*
X326249D01*
X299335Y110532D02*
Y114332D01*
Y110532D02*
X306815D01*
Y114332D01*
X299335D02*
X306815D01*
X281775Y120506D02*
X281779Y120510D01*
X281775Y114157D02*
Y120506D01*
Y114157D02*
X281779Y114153D01*
X285575Y114157D02*
Y120506D01*
X277875Y138391D02*
Y145872D01*
X274075Y138391D02*
X277875D01*
X274075D02*
Y145872D01*
X277875D01*
X270201Y137932D02*
X276549D01*
X276549Y134132D02*
X276553Y134136D01*
X270201Y134132D02*
X276549D01*
X270197Y134136D02*
X270201Y134132D01*
X282175Y134757D02*
Y141106D01*
X285971Y141110D02*
X285975Y141106D01*
Y134757D02*
Y141106D01*
X285971Y134753D02*
X285975Y134757D01*
X285971Y142956D02*
X285975Y142961D01*
Y149309D01*
X285971Y149313D02*
X285975Y149309D01*
X282175Y142961D02*
Y149309D01*
X286855Y130514D02*
X290655D01*
X286855Y123034D02*
Y130514D01*
Y123034D02*
X290655D01*
Y130514D01*
X291088Y130546D02*
X294888D01*
X291088Y123065D02*
Y130546D01*
Y123065D02*
X294888D01*
Y130546D01*
X295418D02*
X299218D01*
X295418Y123065D02*
Y130546D01*
Y123065D02*
X299218D01*
Y130546D01*
X281875Y134757D02*
Y141106D01*
X278075Y134757D02*
X278079Y134753D01*
X278075Y134757D02*
Y141106D01*
X278079Y141110D01*
X278075Y149309D02*
X278079Y149313D01*
X278075Y142961D02*
Y149309D01*
Y142961D02*
X278079Y142956D01*
X281875Y142961D02*
Y149309D01*
X303981Y130613D02*
X307781D01*
X303981Y123132D02*
Y130613D01*
Y123132D02*
X307781D01*
Y130613D01*
X299749D02*
X303549D01*
X299749Y123132D02*
Y130613D01*
Y123132D02*
X303549D01*
Y130613D01*
X293960Y152557D02*
Y156357D01*
Y152557D02*
X301440D01*
Y156357D01*
X293960D02*
X301440D01*
X315575Y133391D02*
Y140872D01*
X311775Y133391D02*
X315575D01*
X311775D02*
Y140872D01*
X315575D01*
X311728Y133919D02*
Y140267D01*
X307928Y133919D02*
X307932Y133915D01*
X307928Y133919D02*
Y140267D01*
X307932Y140271D01*
X281835Y113332D02*
X289315D01*
Y109532D02*
Y113332D01*
X281835Y109532D02*
X289315D01*
X281835D02*
Y113332D01*
X285675Y113592D02*
Y121072D01*
X289475D01*
Y113592D02*
Y121072D01*
X285675Y113592D02*
X289475D01*
X261200Y96531D02*
X261204Y96535D01*
X261200Y90182D02*
Y96531D01*
Y90182D02*
X261204Y90178D01*
X265000Y90182D02*
Y96531D01*
X265400Y96531D02*
X265404Y96535D01*
X265400Y90182D02*
Y96531D01*
Y90182D02*
X265404Y90178D01*
X269200Y90182D02*
Y96531D01*
X308160Y117357D02*
X315640D01*
Y113557D02*
Y117357D01*
X308160Y113557D02*
X315640D01*
X308160D02*
Y117357D01*
X319896Y106478D02*
X319900Y106482D01*
Y112831D01*
X319896Y112835D02*
X319900Y112831D01*
X316100Y106482D02*
Y112831D01*
X311900Y106017D02*
Y113497D01*
X308100Y106017D02*
X311900D01*
X308100D02*
Y113497D01*
X311900D01*
X312100D02*
X315900D01*
X312100Y106017D02*
Y113497D01*
Y106017D02*
X315900D01*
Y113497D01*
X94378Y264456D02*
G03*
X94382Y260661I1896J-1896D01*
G01*
X100731Y260661D02*
G03*
X100735Y264456I-1892J1900D01*
G01*
X51935Y218165D02*
G03*
X51931Y221961I-1896J1896D01*
G01*
X45582Y221961D02*
G03*
X45578Y218165I1892J-1900D01*
G01*
X61361Y231482D02*
G03*
X65157Y231486I1896J1896D01*
G01*
X65157Y237835D02*
G03*
X61361Y237839I-1900J-1892D01*
G01*
X57261Y231482D02*
G03*
X61057Y231486I1896J1896D01*
G01*
X61057Y237835D02*
G03*
X57261Y237839I-1900J-1892D01*
G01*
X100420Y197354D02*
G03*
X100416Y201150I-1896J1896D01*
G01*
X94067Y201150D02*
G03*
X94063Y197354I1892J-1900D01*
G01*
X86189Y196913D02*
G03*
X86193Y193117I1896J-1896D01*
G01*
X92542Y193117D02*
G03*
X92546Y196913I-1892J1900D01*
G01*
X73058Y201783D02*
G03*
X73054Y205579I-1896J1896D01*
G01*
X66705Y205579D02*
G03*
X66701Y201783I1892J-1900D01*
G01*
X81129Y201586D02*
G03*
X81125Y205382I-1896J1896D01*
G01*
X74776Y205382D02*
G03*
X74772Y201586I1892J-1900D01*
G01*
X65153Y218239D02*
G03*
X61357Y218235I-1896J-1896D01*
G01*
X61357Y211886D02*
G03*
X65153Y211882I1900J1892D01*
G01*
X83685Y220833D02*
G03*
X79889Y220829I-1896J-1896D01*
G01*
X79889Y214481D02*
G03*
X83685Y214477I1900J1892D01*
G01*
X86557Y241836D02*
G03*
X86553Y238040I1892J-1900D01*
G01*
X92910Y238040D02*
G03*
X92906Y241836I-1896J1896D01*
G01*
X86557Y250236D02*
G03*
X86553Y246440I1892J-1900D01*
G01*
X92910Y246440D02*
G03*
X92906Y250236I-1896J1896D01*
G01*
X86557Y246036D02*
G03*
X86553Y242240I1892J-1900D01*
G01*
X92910Y242240D02*
G03*
X92906Y246036I-1896J1896D01*
G01*
X86557Y255836D02*
G03*
X86553Y252040I1892J-1900D01*
G01*
X92910Y252040D02*
G03*
X92906Y255836I-1896J1896D01*
G01*
X86357Y264736D02*
G03*
X86353Y260940I1892J-1900D01*
G01*
X92710Y260940D02*
G03*
X92706Y264736I-1896J1896D01*
G01*
X103357Y263936D02*
G03*
X103353Y260140I1892J-1900D01*
G01*
X109710Y260140D02*
G03*
X109706Y263936I-1896J1896D01*
G01*
X86357Y268736D02*
G03*
X86353Y264940I1892J-1900D01*
G01*
X92710Y264940D02*
G03*
X92706Y268736I-1896J1896D01*
G01*
X112706Y239437D02*
G03*
X112710Y243233I-1892J1900D01*
G01*
X106353Y243233D02*
G03*
X106357Y239437I1896J-1896D01*
G01*
X72032Y279010D02*
G03*
X68236Y279014I-1900J-1892D01*
G01*
X68236Y272657D02*
G03*
X72032Y272661I1896J1896D01*
G01*
X63010Y292640D02*
G03*
X63006Y296436I-1896J1896D01*
G01*
X56657Y296436D02*
G03*
X56653Y292640I1892J-1900D01*
G01*
X72427Y299614D02*
G03*
X68632Y299610I-1896J-1896D01*
G01*
X68632Y293261D02*
G03*
X72427Y293257I1900J1892D01*
G01*
X68632Y301465D02*
G03*
X72427Y301460I1900J1892D01*
G01*
X72427Y307817D02*
G03*
X68632Y307813I-1896J-1896D01*
G01*
X64536Y293257D02*
G03*
X68332Y293261I1896J1896D01*
G01*
X68332Y299610D02*
G03*
X64536Y299614I-1900J-1892D01*
G01*
X68332Y307813D02*
G03*
X64536Y307817I-1900J-1892D01*
G01*
X64536Y301460D02*
G03*
X68332Y301465I1896J1896D01*
G01*
X94389Y292419D02*
G03*
X98184Y292423I1896J1896D01*
G01*
X98185Y298771D02*
G03*
X94389Y298775I-1900J-1892D01*
G01*
X51457Y255035D02*
G03*
X47661Y255039I-1900J-1892D01*
G01*
X47661Y248682D02*
G03*
X51457Y248686I1896J1896D01*
G01*
X55657Y255035D02*
G03*
X51861Y255039I-1900J-1892D01*
G01*
X51861Y248682D02*
G03*
X55657Y248686I1896J1896D01*
G01*
X102557Y264986D02*
G03*
X106352Y264982I1900J1892D01*
G01*
X106352Y271339D02*
G03*
X102557Y271335I-1896J-1896D01*
G01*
X94382Y260661D02*
X100731D01*
X94378Y264456D02*
X94382Y264461D01*
X100731D01*
X100735Y264457D01*
X86016Y233661D02*
X93497D01*
X86016D02*
Y237461D01*
X93497D01*
Y233661D02*
Y237461D01*
X40357Y222520D02*
X44157D01*
Y230001D01*
X40357D02*
X44157D01*
X40357Y222520D02*
Y230001D01*
Y229820D02*
X44157D01*
Y237301D01*
X40357D02*
X44157D01*
X40357Y229820D02*
Y237301D01*
X45582Y221961D02*
X51931D01*
X51931Y218161D02*
X51935Y218165D01*
X45582Y218161D02*
X51931D01*
X45578Y218165D02*
X45582Y218161D01*
X61057Y223020D02*
Y230501D01*
X57257Y223020D02*
X61057D01*
X57257D02*
Y230501D01*
X61057D01*
X61357Y223020D02*
Y230501D01*
X65157D01*
Y223020D02*
Y230501D01*
X61357Y223020D02*
X65157D01*
Y231486D02*
Y237835D01*
X61357Y231486D02*
X61361Y231482D01*
X61357Y231486D02*
Y237835D01*
X61361Y237839D01*
X61057Y231486D02*
Y237835D01*
X57257Y231486D02*
X57261Y231482D01*
X57257Y231486D02*
Y237835D01*
X57261Y237839D01*
X65617Y238561D02*
X73097D01*
Y234761D02*
Y238561D01*
X65617Y234761D02*
X73097D01*
X65617D02*
Y238561D01*
X87763Y214112D02*
Y221592D01*
X91563D01*
Y214112D02*
Y221592D01*
X87763Y214112D02*
X91563D01*
X92192D02*
Y221592D01*
X95992D01*
Y214112D02*
Y221592D01*
X92192Y214112D02*
X95992D01*
X96621D02*
X100421D01*
Y221592D01*
X96621D02*
X100421D01*
X96621Y214112D02*
Y221592D01*
X98817Y201483D02*
Y205283D01*
X91336D02*
X98817D01*
X91336Y201483D02*
Y205283D01*
Y201483D02*
X98817D01*
X94068Y201150D02*
X100416D01*
X100416Y197350D02*
X100420Y197354D01*
X94067Y197350D02*
X100416D01*
X94063Y197354D02*
X94067Y197350D01*
X100982Y193117D02*
Y196917D01*
X93502D02*
X100982D01*
X93502Y193117D02*
Y196917D01*
Y193117D02*
X100982D01*
X93502Y192783D02*
X100982D01*
Y188983D02*
Y192783D01*
X93502Y188983D02*
X100982D01*
X93502D02*
Y192783D01*
X86193Y193117D02*
X92542D01*
X86189Y196913D02*
X86193Y196917D01*
X92542D01*
X92546Y196913D01*
X66705Y205579D02*
X73054D01*
X73054Y201779D02*
X73058Y201783D01*
X66705Y201779D02*
X73054D01*
X66701Y201783D02*
X66705Y201779D01*
X74776Y205382D02*
X81125D01*
X81125Y201582D02*
X81129Y201586D01*
X74776Y201582D02*
X81125D01*
X74772Y201586D02*
X74776Y201582D01*
X61357Y211886D02*
Y218235D01*
X65153Y218239D02*
X65157Y218235D01*
Y211886D02*
Y218235D01*
X65153Y211882D02*
X65157Y211886D01*
X79889Y214481D02*
Y220829D01*
X83685Y220833D02*
X83689Y220829D01*
Y214481D02*
Y220829D01*
X83685Y214477D02*
X83689Y214481D01*
X79889Y205647D02*
X83689D01*
Y213127D01*
X79889D02*
X83689D01*
X79889Y205647D02*
Y213127D01*
X88030Y312697D02*
X93319Y307408D01*
X88030Y312697D02*
X90717Y315384D01*
X96006Y310095D01*
X93319Y307408D02*
X96006Y310095D01*
X110757Y267701D02*
X114557D01*
X110757Y260220D02*
Y267701D01*
Y260220D02*
X114557D01*
Y267701D01*
X93009Y226051D02*
X100490D01*
Y222251D02*
Y226051D01*
X93009Y222251D02*
X100490D01*
X93009D02*
Y226051D01*
X123649Y245277D02*
Y249077D01*
X116168D02*
X123649D01*
X116168Y245277D02*
Y249077D01*
Y245277D02*
X123649D01*
X85332Y226051D02*
X92813D01*
Y222251D02*
Y226051D01*
X85332Y222251D02*
X92813D01*
X85332D02*
Y226051D01*
X94632Y307476D02*
X98432D01*
X94632Y299995D02*
Y307476D01*
Y299995D02*
X98432D01*
Y307476D01*
X68232Y279995D02*
Y287476D01*
X72032D01*
Y279995D02*
Y287476D01*
X68232Y279995D02*
X72032D01*
X93516Y233661D02*
X100997D01*
X93516D02*
Y237461D01*
X100997D01*
Y233661D02*
Y237461D01*
X86553Y238040D02*
X86557Y238036D01*
X92906D01*
X92910Y238040D01*
X86557Y241836D02*
X92906D01*
X86553Y246440D02*
X86557Y246436D01*
X92906D01*
X92910Y246440D01*
X86557Y250236D02*
X92906D01*
X86553Y242240D02*
X86557Y242236D01*
X92906D01*
X92910Y242240D01*
X86557Y246036D02*
X92906D01*
X86553Y252040D02*
X86557Y252036D01*
X92906D01*
X92910Y252040D01*
X86557Y255836D02*
X92906D01*
X86353Y260940D02*
X86357Y260936D01*
X92706D01*
X92710Y260940D01*
X86357Y264736D02*
X92706D01*
X97230Y247495D02*
Y254976D01*
X101030D01*
Y247495D02*
Y254976D01*
X97230Y247495D02*
X101030D01*
X103353Y260140D02*
X103357Y260136D01*
X109706D01*
X109710Y260140D01*
X103357Y263936D02*
X109706D01*
X85891Y260334D02*
X93372D01*
Y256534D02*
Y260334D01*
X85891Y256534D02*
X93372D01*
X85891D02*
Y260334D01*
X86353Y264940D02*
X86357Y264936D01*
X92706D01*
X92710Y264940D01*
X86357Y268736D02*
X92706D01*
X93591Y256436D02*
X101072D01*
X93591D02*
Y260236D01*
X101072D01*
Y256436D02*
Y260236D01*
X112706Y243237D02*
X112710Y243233D01*
X106357Y243237D02*
X112706D01*
X106353Y243233D02*
X106357Y243237D01*
X106357Y239437D02*
X112706D01*
X85791Y269036D02*
Y272836D01*
Y269036D02*
X93272D01*
Y272836D01*
X85791D02*
X93272D01*
X68232Y279010D02*
X68236Y279014D01*
X68232Y272661D02*
Y279010D01*
Y272661D02*
X68236Y272657D01*
X72032Y272661D02*
Y279010D01*
X64332Y296895D02*
Y304376D01*
X60532Y296895D02*
X64332D01*
X60532D02*
Y304376D01*
X64332D01*
X56657Y296436D02*
X63006D01*
X63006Y292636D02*
X63010Y292640D01*
X56657Y292636D02*
X63006D01*
X56653Y292640D02*
X56657Y292636D01*
X68632Y293261D02*
Y299610D01*
X72427Y299614D02*
X72432Y299610D01*
Y293261D02*
Y299610D01*
X72427Y293257D02*
X72432Y293261D01*
X72427Y301460D02*
X72432Y301465D01*
Y307813D01*
X72427Y307817D02*
X72432Y307813D01*
X68632Y301465D02*
Y307813D01*
X73312Y289018D02*
X77112D01*
X73312Y281538D02*
Y289018D01*
Y281538D02*
X77112D01*
Y289018D01*
X77544Y289050D02*
X81344D01*
X77544Y281569D02*
Y289050D01*
Y281569D02*
X81344D01*
Y289050D01*
X81875D02*
X85675D01*
X81875Y281569D02*
Y289050D01*
Y281569D02*
X85675D01*
Y289050D01*
X68332Y293261D02*
Y299610D01*
X64532Y293261D02*
X64536Y293257D01*
X64532Y293261D02*
Y299610D01*
X64536Y299614D01*
X64532Y307813D02*
X64536Y307817D01*
X64532Y301465D02*
Y307813D01*
Y301465D02*
X64536Y301460D01*
X68332Y301465D02*
Y307813D01*
X90438Y289117D02*
X94238D01*
X90438Y281636D02*
Y289117D01*
Y281636D02*
X94238D01*
Y289117D01*
X86206D02*
X90006D01*
X86206Y281636D02*
Y289117D01*
Y281636D02*
X90006D01*
Y289117D01*
X80417Y311061D02*
Y314861D01*
Y311061D02*
X87897D01*
Y314861D01*
X80417D02*
X87897D01*
X102032Y291895D02*
Y299376D01*
X98232Y291895D02*
X102032D01*
X98232D02*
Y299376D01*
X102032D01*
X98185Y292423D02*
Y298771D01*
X94384Y292423D02*
X94389Y292419D01*
X94384Y292423D02*
Y298771D01*
X94389Y298775D01*
X68291Y271836D02*
X75772D01*
Y268036D02*
Y271836D01*
X68291Y268036D02*
X75772D01*
X68291D02*
Y271836D01*
X72132Y272095D02*
Y279576D01*
X75932D01*
Y272095D02*
Y279576D01*
X72132Y272095D02*
X75932D01*
X47657Y255035D02*
X47661Y255039D01*
X47657Y248686D02*
Y255035D01*
Y248686D02*
X47661Y248682D01*
X51457Y248686D02*
Y255035D01*
X51857Y255035D02*
X51861Y255039D01*
X51857Y248686D02*
Y255035D01*
Y248686D02*
X51861Y248682D01*
X55657Y248686D02*
Y255035D01*
X94617Y275861D02*
X102097D01*
Y272061D02*
Y275861D01*
X94617Y272061D02*
X102097D01*
X94617D02*
Y275861D01*
X106352Y264982D02*
X106357Y264986D01*
Y271335D01*
X106352Y271339D02*
X106357Y271335D01*
X102557Y264986D02*
Y271335D01*
X98357Y264520D02*
Y272001D01*
X94557Y264520D02*
X98357D01*
X94557D02*
Y272001D01*
X98357D01*
X98557D02*
X102357D01*
X98557Y264520D02*
Y272001D01*
Y264520D02*
X102357D01*
Y272001D01*
X201150Y264456D02*
G03*
X201154Y260661I1896J-1896D01*
G01*
X207503Y260661D02*
G03*
X207507Y264456I-1892J1900D01*
G01*
X158707Y218165D02*
G03*
X158703Y221961I-1896J1896D01*
G01*
X152354Y221961D02*
G03*
X152350Y218165I1892J-1900D01*
G01*
X168132Y231482D02*
G03*
X171928Y231486I1896J1896D01*
G01*
X171928Y237835D02*
G03*
X168132Y237839I-1900J-1892D01*
G01*
X164032Y231482D02*
G03*
X167828Y231486I1896J1896D01*
G01*
X167828Y237835D02*
G03*
X164032Y237839I-1900J-1892D01*
G01*
X207192Y197354D02*
G03*
X207188Y201150I-1896J1896D01*
G01*
X200839Y201150D02*
G03*
X200835Y197354I1892J-1900D01*
G01*
X192961Y196913D02*
G03*
X192965Y193117I1896J-1896D01*
G01*
X199314Y193117D02*
G03*
X199318Y196913I-1892J1900D01*
G01*
X179830Y201783D02*
G03*
X179825Y205579I-1896J1896D01*
G01*
X173477Y205579D02*
G03*
X173473Y201783I1892J-1900D01*
G01*
X187900Y201586D02*
G03*
X187896Y205382I-1896J1896D01*
G01*
X181548Y205382D02*
G03*
X181544Y201586I1892J-1900D01*
G01*
X171924Y218239D02*
G03*
X168128Y218235I-1896J-1896D01*
G01*
X168128Y211886D02*
G03*
X171924Y211882I1900J1892D01*
G01*
X190456Y220833D02*
G03*
X186661Y220829I-1896J-1896D01*
G01*
X186661Y214481D02*
G03*
X190456Y214477I1900J1892D01*
G01*
X193329Y241836D02*
G03*
X193325Y238040I1892J-1900D01*
G01*
X199682Y238040D02*
G03*
X199678Y241836I-1896J1896D01*
G01*
X193329Y250236D02*
G03*
X193325Y246440I1892J-1900D01*
G01*
X199682Y246440D02*
G03*
X199678Y250236I-1896J1896D01*
G01*
X193329Y246036D02*
G03*
X193325Y242240I1892J-1900D01*
G01*
X199682Y242240D02*
G03*
X199678Y246036I-1896J1896D01*
G01*
X193329Y255836D02*
G03*
X193325Y252040I1892J-1900D01*
G01*
X199682Y252040D02*
G03*
X199678Y255836I-1896J1896D01*
G01*
X193129Y264736D02*
G03*
X193125Y260940I1892J-1900D01*
G01*
X199482Y260940D02*
G03*
X199478Y264736I-1896J1896D01*
G01*
X210129Y263936D02*
G03*
X210125Y260140I1892J-1900D01*
G01*
X216482Y260140D02*
G03*
X216478Y263936I-1896J1896D01*
G01*
X193129Y268736D02*
G03*
X193125Y264940I1892J-1900D01*
G01*
X199482Y264940D02*
G03*
X199478Y268736I-1896J1896D01*
G01*
X219478Y239437D02*
G03*
X219482Y243233I-1892J1900D01*
G01*
X213125Y243233D02*
G03*
X213129Y239437I1896J-1896D01*
G01*
X178803Y279010D02*
G03*
X175007Y279014I-1900J-1892D01*
G01*
X175007Y272657D02*
G03*
X178803Y272661I1896J1896D01*
G01*
X169782Y292640D02*
G03*
X169778Y296436I-1896J1896D01*
G01*
X163429Y296436D02*
G03*
X163425Y292640I1892J-1900D01*
G01*
X179199Y299614D02*
G03*
X175403Y299610I-1896J-1896D01*
G01*
X175403Y293261D02*
G03*
X179199Y293257I1900J1892D01*
G01*
X175403Y301465D02*
G03*
X179199Y301460I1900J1892D01*
G01*
X179199Y307817D02*
G03*
X175403Y307813I-1896J-1896D01*
G01*
X171308Y293257D02*
G03*
X175103Y293261I1896J1896D01*
G01*
X175103Y299610D02*
G03*
X171308Y299614I-1900J-1892D01*
G01*
X175103Y307813D02*
G03*
X171308Y307817I-1900J-1892D01*
G01*
X171308Y301460D02*
G03*
X175103Y301465I1896J1896D01*
G01*
X201160Y292419D02*
G03*
X204956Y292423I1896J1896D01*
G01*
X204956Y298771D02*
G03*
X201160Y298775I-1900J-1892D01*
G01*
X158228Y255035D02*
G03*
X154432Y255039I-1900J-1892D01*
G01*
X154432Y248682D02*
G03*
X158228Y248686I1896J1896D01*
G01*
X162428Y255035D02*
G03*
X158633Y255039I-1900J-1892D01*
G01*
X158633Y248682D02*
G03*
X162428Y248686I1896J1896D01*
G01*
X209328Y264986D02*
G03*
X213124Y264982I1900J1892D01*
G01*
X213124Y271339D02*
G03*
X209328Y271335I-1896J-1896D01*
G01*
X201154Y260661D02*
X207503D01*
X201150Y264456D02*
X201154Y264461D01*
X207503D01*
X207507Y264457D01*
X192788Y233661D02*
X200269D01*
X192788D02*
Y237461D01*
X200269D01*
Y233661D02*
Y237461D01*
X147128Y222520D02*
X150928D01*
Y230001D01*
X147128D02*
X150928D01*
X147128Y222520D02*
Y230001D01*
Y229820D02*
X150928D01*
Y237301D01*
X147128D02*
X150928D01*
X147128Y229820D02*
Y237301D01*
X152354Y221961D02*
X158703D01*
X158703Y218161D02*
X158707Y218165D01*
X152354Y218161D02*
X158703D01*
X152350Y218165D02*
X152354Y218161D01*
X167828Y223020D02*
Y230501D01*
X164028Y223020D02*
X167828D01*
X164028D02*
Y230501D01*
X167828D01*
X168128Y223020D02*
Y230501D01*
X171928D01*
Y223020D02*
Y230501D01*
X168128Y223020D02*
X171928D01*
Y231486D02*
Y237835D01*
X168128Y231486D02*
X168132Y231482D01*
X168128Y231486D02*
Y237835D01*
X168132Y237839D01*
X167828Y231486D02*
Y237835D01*
X164028Y231486D02*
X164032Y231482D01*
X164028Y231486D02*
Y237835D01*
X164032Y237839D01*
X172388Y238561D02*
X179868D01*
Y234761D02*
Y238561D01*
X172388Y234761D02*
X179868D01*
X172388D02*
Y238561D01*
X194535Y214112D02*
Y221592D01*
X198335D01*
Y214112D02*
Y221592D01*
X194535Y214112D02*
X198335D01*
X198964D02*
Y221592D01*
X202764D01*
Y214112D02*
Y221592D01*
X198964Y214112D02*
X202764D01*
X203393D02*
X207193D01*
Y221592D01*
X203393D02*
X207193D01*
X203393Y214112D02*
Y221592D01*
X205588Y201483D02*
Y205283D01*
X198108D02*
X205588D01*
X198108Y201483D02*
Y205283D01*
Y201483D02*
X205588D01*
X200839Y201150D02*
X207188D01*
X207188Y197350D02*
X207192Y197354D01*
X200839Y197350D02*
X207188D01*
X200835Y197354D02*
X200839Y197350D01*
X207753Y193117D02*
Y196917D01*
X200273D02*
X207753D01*
X200273Y193117D02*
Y196917D01*
Y193117D02*
X207753D01*
X200273Y192783D02*
X207753D01*
Y188983D02*
Y192783D01*
X200273Y188983D02*
X207753D01*
X200273D02*
Y192783D01*
X192965Y193117D02*
X199314D01*
X192961Y196913D02*
X192965Y196917D01*
X199314D01*
X199318Y196913D01*
X173477Y205579D02*
X179825D01*
X179825Y201779D02*
X179830Y201783D01*
X173477Y201779D02*
X179825D01*
X173473Y201783D02*
X173477Y201779D01*
X181548Y205382D02*
X187896D01*
X187896Y201582D02*
X187900Y201586D01*
X181548Y201582D02*
X187896D01*
X181544Y201586D02*
X181548Y201582D01*
X168128Y211886D02*
Y218235D01*
X171924Y218239D02*
X171928Y218235D01*
Y211886D02*
Y218235D01*
X171924Y211882D02*
X171928Y211886D01*
X186661Y214481D02*
Y220829D01*
X190456Y220833D02*
X190461Y220829D01*
Y214481D02*
Y220829D01*
X190456Y214477D02*
X190461Y214481D01*
X186661Y205647D02*
X190461D01*
Y213127D01*
X186661D02*
X190461D01*
X186661Y205647D02*
Y213127D01*
X194801Y312697D02*
X200091Y307408D01*
X194801Y312697D02*
X197489Y315384D01*
X202778Y310095D01*
X200091Y307408D02*
X202778Y310095D01*
X217528Y267701D02*
X221328D01*
X217528Y260220D02*
Y267701D01*
Y260220D02*
X221328D01*
Y267701D01*
X199781Y226051D02*
X207261D01*
Y222251D02*
Y226051D01*
X199781Y222251D02*
X207261D01*
X199781D02*
Y226051D01*
X230420Y245277D02*
Y249077D01*
X222940D02*
X230420D01*
X222940Y245277D02*
Y249077D01*
Y245277D02*
X230420D01*
X192104Y226051D02*
X199584D01*
Y222251D02*
Y226051D01*
X192104Y222251D02*
X199584D01*
X192104D02*
Y226051D01*
X201403Y307476D02*
X205203D01*
X201403Y299995D02*
Y307476D01*
Y299995D02*
X205203D01*
Y307476D01*
X175003Y279995D02*
Y287476D01*
X178803D01*
Y279995D02*
Y287476D01*
X175003Y279995D02*
X178803D01*
X200288Y233661D02*
X207769D01*
X200288D02*
Y237461D01*
X207769D01*
Y233661D02*
Y237461D01*
X193325Y238040D02*
X193329Y238036D01*
X199678D01*
X199682Y238040D01*
X193329Y241836D02*
X199678D01*
X193325Y246440D02*
X193329Y246436D01*
X199678D01*
X199682Y246440D01*
X193329Y250236D02*
X199678D01*
X193325Y242240D02*
X193329Y242236D01*
X199678D01*
X199682Y242240D01*
X193329Y246036D02*
X199678D01*
X193325Y252040D02*
X193329Y252036D01*
X199678D01*
X199682Y252040D01*
X193329Y255836D02*
X199678D01*
X193125Y260940D02*
X193129Y260936D01*
X199478D01*
X199482Y260940D01*
X193129Y264736D02*
X199478D01*
X204002Y247495D02*
Y254976D01*
X207802D01*
Y247495D02*
Y254976D01*
X204002Y247495D02*
X207802D01*
X210125Y260140D02*
X210129Y260136D01*
X216478D01*
X216482Y260140D01*
X210129Y263936D02*
X216478D01*
X192663Y260334D02*
X200144D01*
Y256534D02*
Y260334D01*
X192663Y256534D02*
X200144D01*
X192663D02*
Y260334D01*
X193125Y264940D02*
X193129Y264936D01*
X199478D01*
X199482Y264940D01*
X193129Y268736D02*
X199478D01*
X200363Y256436D02*
X207843D01*
X200363D02*
Y260236D01*
X207843D01*
Y256436D02*
Y260236D01*
X219478Y243237D02*
X219482Y243233D01*
X213129Y243237D02*
X219478D01*
X213125Y243233D02*
X213129Y243237D01*
X213129Y239437D02*
X219478D01*
X192563Y269036D02*
Y272836D01*
Y269036D02*
X200044D01*
Y272836D01*
X192563D02*
X200044D01*
X175003Y279010D02*
X175007Y279014D01*
X175003Y272661D02*
Y279010D01*
Y272661D02*
X175007Y272657D01*
X178803Y272661D02*
Y279010D01*
X171103Y296895D02*
Y304376D01*
X167303Y296895D02*
X171103D01*
X167303D02*
Y304376D01*
X171103D01*
X163429Y296436D02*
X169778D01*
X169778Y292636D02*
X169782Y292640D01*
X163429Y292636D02*
X169778D01*
X163425Y292640D02*
X163429Y292636D01*
X175403Y293261D02*
Y299610D01*
X179199Y299614D02*
X179203Y299610D01*
Y293261D02*
Y299610D01*
X179199Y293257D02*
X179203Y293261D01*
X179199Y301460D02*
X179203Y301465D01*
Y307813D01*
X179199Y307817D02*
X179203Y307813D01*
X175403Y301465D02*
Y307813D01*
X180084Y289018D02*
X183884D01*
X180084Y281538D02*
Y289018D01*
Y281538D02*
X183884D01*
Y289018D01*
X184316Y289050D02*
X188116D01*
X184316Y281569D02*
Y289050D01*
Y281569D02*
X188116D01*
Y289050D01*
X188647D02*
X192447D01*
X188647Y281569D02*
Y289050D01*
Y281569D02*
X192447D01*
Y289050D01*
X175103Y293261D02*
Y299610D01*
X171303Y293261D02*
X171308Y293257D01*
X171303Y293261D02*
Y299610D01*
X171308Y299614D01*
X171303Y307813D02*
X171308Y307817D01*
X171303Y301465D02*
Y307813D01*
Y301465D02*
X171308Y301460D01*
X175103Y301465D02*
Y307813D01*
X197210Y289117D02*
X201010D01*
X197210Y281636D02*
Y289117D01*
Y281636D02*
X201010D01*
Y289117D01*
X192977D02*
X196777D01*
X192977Y281636D02*
Y289117D01*
Y281636D02*
X196777D01*
Y289117D01*
X187188Y311061D02*
Y314861D01*
Y311061D02*
X194668D01*
Y314861D01*
X187188D02*
X194668D01*
X208803Y291895D02*
Y299376D01*
X205003Y291895D02*
X208803D01*
X205003D02*
Y299376D01*
X208803D01*
X204956Y292423D02*
Y298771D01*
X201156Y292423D02*
X201160Y292419D01*
X201156Y292423D02*
Y298771D01*
X201160Y298775D01*
X175063Y271836D02*
X182544D01*
Y268036D02*
Y271836D01*
X175063Y268036D02*
X182544D01*
X175063D02*
Y271836D01*
X178903Y272095D02*
Y279576D01*
X182703D01*
Y272095D02*
Y279576D01*
X178903Y272095D02*
X182703D01*
X154428Y255035D02*
X154432Y255039D01*
X154428Y248686D02*
Y255035D01*
Y248686D02*
X154432Y248682D01*
X158228Y248686D02*
Y255035D01*
X158628Y255035D02*
X158633Y255039D01*
X158628Y248686D02*
Y255035D01*
Y248686D02*
X158633Y248682D01*
X162428Y248686D02*
Y255035D01*
X201388Y275861D02*
X208869D01*
Y272061D02*
Y275861D01*
X201388Y272061D02*
X208869D01*
X201388D02*
Y275861D01*
X213124Y264982D02*
X213128Y264986D01*
Y271335D01*
X213124Y271339D02*
X213128Y271335D01*
X209328Y264986D02*
Y271335D01*
X205128Y264520D02*
Y272001D01*
X201328Y264520D02*
X205128D01*
X201328D02*
Y272001D01*
X205128D01*
X205328D02*
X209128D01*
X205328Y264520D02*
Y272001D01*
Y264520D02*
X209128D01*
Y272001D01*
X307922Y264456D02*
G03*
X307926Y260661I1896J-1896D01*
G01*
X314274Y260661D02*
G03*
X314278Y264456I-1892J1900D01*
G01*
X265478Y218165D02*
G03*
X265474Y221961I-1896J1896D01*
G01*
X259126Y221961D02*
G03*
X259122Y218165I1892J-1900D01*
G01*
X274904Y231482D02*
G03*
X278700Y231486I1896J1896D01*
G01*
X278700Y237835D02*
G03*
X274904Y237839I-1900J-1892D01*
G01*
X270804Y231482D02*
G03*
X274600Y231486I1896J1896D01*
G01*
X274600Y237835D02*
G03*
X270804Y237839I-1900J-1892D01*
G01*
X313964Y197354D02*
G03*
X313959Y201150I-1896J1896D01*
G01*
X307611Y201150D02*
G03*
X307607Y197354I1892J-1900D01*
G01*
X299733Y196913D02*
G03*
X299737Y193117I1896J-1896D01*
G01*
X306085Y193117D02*
G03*
X306089Y196913I-1892J1900D01*
G01*
X286601Y201783D02*
G03*
X286597Y205579I-1896J1896D01*
G01*
X280249Y205579D02*
G03*
X280244Y201783I1892J-1900D01*
G01*
X294672Y201586D02*
G03*
X294668Y205382I-1896J1896D01*
G01*
X288319Y205382D02*
G03*
X288315Y201586I1892J-1900D01*
G01*
X278696Y218239D02*
G03*
X274900Y218235I-1896J-1896D01*
G01*
X274900Y211886D02*
G03*
X278696Y211882I1900J1892D01*
G01*
X297228Y220833D02*
G03*
X293432Y220829I-1896J-1896D01*
G01*
X293432Y214481D02*
G03*
X297228Y214477I1900J1892D01*
G01*
X300101Y241836D02*
G03*
X300097Y238040I1892J-1900D01*
G01*
X306453Y238040D02*
G03*
X306449Y241836I-1896J1896D01*
G01*
X300101Y250236D02*
G03*
X300097Y246440I1892J-1900D01*
G01*
X306453Y246440D02*
G03*
X306449Y250236I-1896J1896D01*
G01*
X300101Y246036D02*
G03*
X300097Y242240I1892J-1900D01*
G01*
X306453Y242240D02*
G03*
X306449Y246036I-1896J1896D01*
G01*
X300101Y255836D02*
G03*
X300097Y252040I1892J-1900D01*
G01*
X306453Y252040D02*
G03*
X306449Y255836I-1896J1896D01*
G01*
X299901Y264736D02*
G03*
X299897Y260940I1892J-1900D01*
G01*
X306253Y260940D02*
G03*
X306249Y264736I-1896J1896D01*
G01*
X316901Y263936D02*
G03*
X316897Y260140I1892J-1900D01*
G01*
X323253Y260140D02*
G03*
X323249Y263936I-1896J1896D01*
G01*
X299901Y268736D02*
G03*
X299897Y264940I1892J-1900D01*
G01*
X306253Y264940D02*
G03*
X306249Y268736I-1896J1896D01*
G01*
X326249Y239437D02*
G03*
X326253Y243233I-1892J1900D01*
G01*
X319897Y243233D02*
G03*
X319901Y239437I1896J-1896D01*
G01*
X285575Y279010D02*
G03*
X281779Y279014I-1900J-1892D01*
G01*
X281779Y272657D02*
G03*
X285575Y272661I1896J1896D01*
G01*
X276553Y292640D02*
G03*
X276549Y296436I-1896J1896D01*
G01*
X270201Y296436D02*
G03*
X270197Y292640I1892J-1900D01*
G01*
X285971Y299614D02*
G03*
X282175Y299610I-1896J-1896D01*
G01*
X282175Y293261D02*
G03*
X285971Y293257I1900J1892D01*
G01*
X282175Y301465D02*
G03*
X285971Y301460I1900J1892D01*
G01*
X285971Y307817D02*
G03*
X282175Y307813I-1896J-1896D01*
G01*
X278079Y293257D02*
G03*
X281875Y293261I1896J1896D01*
G01*
X281875Y299610D02*
G03*
X278079Y299614I-1900J-1892D01*
G01*
X281875Y307813D02*
G03*
X278079Y307817I-1900J-1892D01*
G01*
X278079Y301460D02*
G03*
X281875Y301465I1896J1896D01*
G01*
X307932Y292419D02*
G03*
X311728Y292423I1896J1896D01*
G01*
X311728Y298771D02*
G03*
X307932Y298775I-1900J-1892D01*
G01*
X265000Y255035D02*
G03*
X261204Y255039I-1900J-1892D01*
G01*
X261204Y248682D02*
G03*
X265000Y248686I1896J1896D01*
G01*
X269200Y255035D02*
G03*
X265404Y255039I-1900J-1892D01*
G01*
X265404Y248682D02*
G03*
X269200Y248686I1896J1896D01*
G01*
X316100Y264986D02*
G03*
X319896Y264982I1900J1892D01*
G01*
X319896Y271339D02*
G03*
X316100Y271335I-1896J-1896D01*
G01*
X307926Y260661D02*
X314274D01*
X307922Y264456D02*
X307926Y264461D01*
X314274D01*
X314278Y264457D01*
X299560Y233661D02*
X307040D01*
X299560D02*
Y237461D01*
X307040D01*
Y233661D02*
Y237461D01*
X253900Y222520D02*
X257700D01*
Y230001D01*
X253900D02*
X257700D01*
X253900Y222520D02*
Y230001D01*
Y229820D02*
X257700D01*
Y237301D01*
X253900D02*
X257700D01*
X253900Y229820D02*
Y237301D01*
X259126Y221961D02*
X265474D01*
X265474Y218161D02*
X265478Y218165D01*
X259126Y218161D02*
X265474D01*
X259122Y218165D02*
X259126Y218161D01*
X274600Y223020D02*
Y230501D01*
X270800Y223020D02*
X274600D01*
X270800D02*
Y230501D01*
X274600D01*
X274900Y223020D02*
Y230501D01*
X278700D01*
Y223020D02*
Y230501D01*
X274900Y223020D02*
X278700D01*
Y231486D02*
Y237835D01*
X274900Y231486D02*
X274904Y231482D01*
X274900Y231486D02*
Y237835D01*
X274904Y237839D01*
X274600Y231486D02*
Y237835D01*
X270800Y231486D02*
X270804Y231482D01*
X270800Y231486D02*
Y237835D01*
X270804Y237839D01*
X279160Y238561D02*
X286640D01*
Y234761D02*
Y238561D01*
X279160Y234761D02*
X286640D01*
X279160D02*
Y238561D01*
X301306Y214112D02*
Y221592D01*
X305106D01*
Y214112D02*
Y221592D01*
X301306Y214112D02*
X305106D01*
X305735D02*
Y221592D01*
X309535D01*
Y214112D02*
Y221592D01*
X305735Y214112D02*
X309535D01*
X310165D02*
X313965D01*
Y221592D01*
X310165D02*
X313965D01*
X310165Y214112D02*
Y221592D01*
X312360Y201483D02*
Y205283D01*
X304880D02*
X312360D01*
X304880Y201483D02*
Y205283D01*
Y201483D02*
X312360D01*
X307611Y201150D02*
X313959D01*
X313959Y197350D02*
X313964Y197354D01*
X307611Y197350D02*
X313959D01*
X307607Y197354D02*
X307611Y197350D01*
X314525Y193117D02*
Y196917D01*
X307045D02*
X314525D01*
X307045Y193117D02*
Y196917D01*
Y193117D02*
X314525D01*
X307045Y192783D02*
X314525D01*
Y188983D02*
Y192783D01*
X307045Y188983D02*
X314525D01*
X307045D02*
Y192783D01*
X299737Y193117D02*
X306085D01*
X299733Y196913D02*
X299737Y196917D01*
X306085D01*
X306089Y196913D01*
X280249Y205579D02*
X286597D01*
X286597Y201779D02*
X286601Y201783D01*
X280249Y201779D02*
X286597D01*
X280244Y201783D02*
X280249Y201779D01*
X288319Y205382D02*
X294668D01*
X294668Y201582D02*
X294672Y201586D01*
X288319Y201582D02*
X294668D01*
X288315Y201586D02*
X288319Y201582D01*
X274900Y211886D02*
Y218235D01*
X278696Y218239D02*
X278700Y218235D01*
Y211886D02*
Y218235D01*
X278696Y211882D02*
X278700Y211886D01*
X293432Y214481D02*
Y220829D01*
X297228Y220833D02*
X297232Y220829D01*
Y214481D02*
Y220829D01*
X297228Y214477D02*
X297232Y214481D01*
X293432Y205647D02*
X297232D01*
Y213127D01*
X293432D02*
X297232D01*
X293432Y205647D02*
Y213127D01*
X301573Y312697D02*
X306863Y307408D01*
X301573Y312697D02*
X304260Y315384D01*
X309550Y310095D01*
X306863Y307408D02*
X309550Y310095D01*
X324300Y267701D02*
X328100D01*
X324300Y260220D02*
Y267701D01*
Y260220D02*
X328100D01*
Y267701D01*
X306553Y226051D02*
X314033D01*
Y222251D02*
Y226051D01*
X306553Y222251D02*
X314033D01*
X306553D02*
Y226051D01*
X337192Y245277D02*
Y249077D01*
X329712D02*
X337192D01*
X329712Y245277D02*
Y249077D01*
Y245277D02*
X337192D01*
X298876Y226051D02*
X306356D01*
Y222251D02*
Y226051D01*
X298876Y222251D02*
X306356D01*
X298876D02*
Y226051D01*
X308175Y307476D02*
X311975D01*
X308175Y299995D02*
Y307476D01*
Y299995D02*
X311975D01*
Y307476D01*
X281775Y279995D02*
Y287476D01*
X285575D01*
Y279995D02*
Y287476D01*
X281775Y279995D02*
X285575D01*
X307060Y233661D02*
X314540D01*
X307060D02*
Y237461D01*
X314540D01*
Y233661D02*
Y237461D01*
X300097Y238040D02*
X300101Y238036D01*
X306449D01*
X306453Y238040D01*
X300101Y241836D02*
X306449D01*
X300097Y246440D02*
X300101Y246436D01*
X306449D01*
X306453Y246440D01*
X300101Y250236D02*
X306449D01*
X300097Y242240D02*
X300101Y242236D01*
X306449D01*
X306453Y242240D01*
X300101Y246036D02*
X306449D01*
X300097Y252040D02*
X300101Y252036D01*
X306449D01*
X306453Y252040D01*
X300101Y255836D02*
X306449D01*
X299897Y260940D02*
X299901Y260936D01*
X306249D01*
X306253Y260940D01*
X299901Y264736D02*
X306249D01*
X310773Y247495D02*
Y254976D01*
X314574D01*
Y247495D02*
Y254976D01*
X310773Y247495D02*
X314574D01*
X316897Y260140D02*
X316901Y260136D01*
X323249D01*
X323253Y260140D01*
X316901Y263936D02*
X323249D01*
X299435Y260334D02*
X306915D01*
Y256534D02*
Y260334D01*
X299435Y256534D02*
X306915D01*
X299435D02*
Y260334D01*
X299897Y264940D02*
X299901Y264936D01*
X306249D01*
X306253Y264940D01*
X299901Y268736D02*
X306249D01*
X307135Y256436D02*
X314615D01*
X307135D02*
Y260236D01*
X314615D01*
Y256436D02*
Y260236D01*
X326249Y243237D02*
X326253Y243233D01*
X319901Y243237D02*
X326249D01*
X319897Y243233D02*
X319901Y243237D01*
X319901Y239437D02*
X326249D01*
X299335Y269036D02*
Y272836D01*
Y269036D02*
X306815D01*
Y272836D01*
X299335D02*
X306815D01*
X281775Y279010D02*
X281779Y279014D01*
X281775Y272661D02*
Y279010D01*
Y272661D02*
X281779Y272657D01*
X285575Y272661D02*
Y279010D01*
X277875Y296895D02*
Y304376D01*
X274075Y296895D02*
X277875D01*
X274075D02*
Y304376D01*
X277875D01*
X270201Y296436D02*
X276549D01*
X276549Y292636D02*
X276553Y292640D01*
X270201Y292636D02*
X276549D01*
X270197Y292640D02*
X270201Y292636D01*
X282175Y293261D02*
Y299610D01*
X285971Y299614D02*
X285975Y299610D01*
Y293261D02*
Y299610D01*
X285971Y293257D02*
X285975Y293261D01*
X285971Y301460D02*
X285975Y301465D01*
Y307813D01*
X285971Y307817D02*
X285975Y307813D01*
X282175Y301465D02*
Y307813D01*
X286855Y289018D02*
X290655D01*
X286855Y281538D02*
Y289018D01*
Y281538D02*
X290655D01*
Y289018D01*
X291088Y289050D02*
X294888D01*
X291088Y281569D02*
Y289050D01*
Y281569D02*
X294888D01*
Y289050D01*
X295418D02*
X299218D01*
X295418Y281569D02*
Y289050D01*
Y281569D02*
X299218D01*
Y289050D01*
X281875Y293261D02*
Y299610D01*
X278075Y293261D02*
X278079Y293257D01*
X278075Y293261D02*
Y299610D01*
X278079Y299614D01*
X278075Y307813D02*
X278079Y307817D01*
X278075Y301465D02*
Y307813D01*
Y301465D02*
X278079Y301460D01*
X281875Y301465D02*
Y307813D01*
X303981Y289117D02*
X307781D01*
X303981Y281636D02*
Y289117D01*
Y281636D02*
X307781D01*
Y289117D01*
X299749D02*
X303549D01*
X299749Y281636D02*
Y289117D01*
Y281636D02*
X303549D01*
Y289117D01*
X293960Y311061D02*
Y314861D01*
Y311061D02*
X301440D01*
Y314861D01*
X293960D02*
X301440D01*
X315575Y291895D02*
Y299376D01*
X311775Y291895D02*
X315575D01*
X311775D02*
Y299376D01*
X315575D01*
X311728Y292423D02*
Y298771D01*
X307928Y292423D02*
X307932Y292419D01*
X307928Y292423D02*
Y298771D01*
X307932Y298775D01*
X281835Y271836D02*
X289315D01*
Y268036D02*
Y271836D01*
X281835Y268036D02*
X289315D01*
X281835D02*
Y271836D01*
X285675Y272095D02*
Y279576D01*
X289475D01*
Y272095D02*
Y279576D01*
X285675Y272095D02*
X289475D01*
X261200Y255035D02*
X261204Y255039D01*
X261200Y248686D02*
Y255035D01*
Y248686D02*
X261204Y248682D01*
X265000Y248686D02*
Y255035D01*
X265400Y255035D02*
X265404Y255039D01*
X265400Y248686D02*
Y255035D01*
Y248686D02*
X265404Y248682D01*
X269200Y248686D02*
Y255035D01*
X308160Y275861D02*
X315640D01*
Y272061D02*
Y275861D01*
X308160Y272061D02*
X315640D01*
X308160D02*
Y275861D01*
X319896Y264982D02*
X319900Y264986D01*
Y271335D01*
X319896Y271339D02*
X319900Y271335D01*
X316100Y264986D02*
Y271335D01*
X311900Y264520D02*
Y272001D01*
X308100Y264520D02*
X311900D01*
X308100D02*
Y272001D01*
X311900D01*
X312100D02*
X315900D01*
X312100Y264520D02*
Y272001D01*
Y264520D02*
X315900D01*
Y272001D01*
D76*
X75162Y147050D02*
Y149668D01*
X77780D01*
X89788D02*
X92406D01*
Y147050D02*
Y149668D01*
Y132424D02*
Y135042D01*
X89788Y132424D02*
X92406D01*
X75162D02*
Y135042D01*
Y132424D02*
X77780D01*
X56165Y69683D02*
Y73030D01*
X44748D02*
X56165D01*
X44748Y69683D02*
Y73030D01*
Y69683D02*
X56165D01*
X109398Y143557D02*
X114516D01*
X117198Y143657D02*
X122316D01*
X31898Y144657D02*
X37016D01*
X117198Y66557D02*
X122316D01*
X81590Y81652D02*
X84711Y84774D01*
Y81652D02*
Y109211D01*
X57152Y81652D02*
Y109211D01*
Y81652D02*
X84711D01*
X57152Y109211D02*
X84711D01*
X31598Y66557D02*
X36716D01*
X116233Y91666D02*
X126233D01*
X116233D02*
Y131666D01*
X126233Y91666D02*
Y131666D01*
X116233D02*
X126233D01*
X181934Y147050D02*
Y149668D01*
X184552D01*
X196560D02*
X199178D01*
Y147050D02*
Y149668D01*
Y132424D02*
Y135042D01*
X196560Y132424D02*
X199178D01*
X181934D02*
Y135042D01*
Y132424D02*
X184552D01*
X162937Y69683D02*
Y73030D01*
X151520D02*
X162937D01*
X151520Y69683D02*
Y73030D01*
Y69683D02*
X162937D01*
X216169Y143557D02*
X221287D01*
X223969Y143657D02*
X229087D01*
X138669Y144657D02*
X143787D01*
X223969Y66557D02*
X229087D01*
X188361Y81652D02*
X191483Y84774D01*
Y81652D02*
Y109211D01*
X163924Y81652D02*
Y109211D01*
Y81652D02*
X191483D01*
X163924Y109211D02*
X191483D01*
X138369Y66557D02*
X143487D01*
X223004Y91666D02*
X233004D01*
X223004D02*
Y131666D01*
X233004Y91666D02*
Y131666D01*
X223004D02*
X233004D01*
X288706Y147050D02*
Y149668D01*
X291324D01*
X303332D02*
X305950D01*
Y147050D02*
Y149668D01*
Y132424D02*
Y135042D01*
X303332Y132424D02*
X305950D01*
X288706D02*
Y135042D01*
Y132424D02*
X291324D01*
X269709Y69683D02*
Y73030D01*
X258291D02*
X269709D01*
X258291Y69683D02*
Y73030D01*
Y69683D02*
X269709D01*
X322941Y143557D02*
X328059D01*
X330741Y143657D02*
X335859D01*
X245441Y144657D02*
X250559D01*
X330741Y66557D02*
X335859D01*
X295133Y81652D02*
X298255Y84774D01*
Y81652D02*
Y109211D01*
X270695Y81652D02*
Y109211D01*
Y81652D02*
X298255D01*
X270695Y109211D02*
X298255D01*
X245141Y66557D02*
X250259D01*
X329776Y91666D02*
X339776D01*
X329776D02*
Y131666D01*
X339776Y91666D02*
Y131666D01*
X329776D02*
X339776D01*
X75162Y305554D02*
Y308172D01*
X77780D01*
X89788D02*
X92406D01*
Y305554D02*
Y308172D01*
Y290928D02*
Y293546D01*
X89788Y290928D02*
X92406D01*
X75162D02*
Y293546D01*
Y290928D02*
X77780D01*
X56165Y228187D02*
Y231534D01*
X44748D02*
X56165D01*
X44748Y228187D02*
Y231534D01*
Y228187D02*
X56165D01*
X109398Y302061D02*
X114516D01*
X117198Y302161D02*
X122316D01*
X31898Y303161D02*
X37016D01*
X117198Y225061D02*
X122316D01*
X81590Y240156D02*
X84711Y243278D01*
Y240156D02*
Y267715D01*
X57152Y240156D02*
Y267715D01*
Y240156D02*
X84711D01*
X57152Y267715D02*
X84711D01*
X31598Y225061D02*
X36716D01*
X116233Y250169D02*
X126233D01*
X116233D02*
Y290170D01*
X126233Y250169D02*
Y290170D01*
X116233D02*
X126233D01*
X181934Y305554D02*
Y308172D01*
X184552D01*
X196560D02*
X199178D01*
Y305554D02*
Y308172D01*
Y290928D02*
Y293546D01*
X196560Y290928D02*
X199178D01*
X181934D02*
Y293546D01*
Y290928D02*
X184552D01*
X162937Y228187D02*
Y231534D01*
X151520D02*
X162937D01*
X151520Y228187D02*
Y231534D01*
Y228187D02*
X162937D01*
X216169Y302061D02*
X221287D01*
X223969Y302161D02*
X229087D01*
X138669Y303161D02*
X143787D01*
X223969Y225061D02*
X229087D01*
X188361Y240156D02*
X191483Y243278D01*
Y240156D02*
Y267715D01*
X163924Y240156D02*
Y267715D01*
Y240156D02*
X191483D01*
X163924Y267715D02*
X191483D01*
X138369Y225061D02*
X143487D01*
X223004Y250169D02*
X233004D01*
X223004D02*
Y290170D01*
X233004Y250169D02*
Y290170D01*
X223004D02*
X233004D01*
X288706Y305554D02*
Y308172D01*
X291324D01*
X303332D02*
X305950D01*
Y305554D02*
Y308172D01*
Y290928D02*
Y293546D01*
X303332Y290928D02*
X305950D01*
X288706D02*
Y293546D01*
Y290928D02*
X291324D01*
X269709Y228187D02*
Y231534D01*
X258291D02*
X269709D01*
X258291Y228187D02*
Y231534D01*
Y228187D02*
X269709D01*
X322941Y302061D02*
X328059D01*
X330741Y302161D02*
X335859D01*
X245441Y303161D02*
X250559D01*
X330741Y225061D02*
X335859D01*
X295133Y240156D02*
X298255Y243278D01*
Y240156D02*
Y267715D01*
X270695Y240156D02*
Y267715D01*
Y240156D02*
X298255D01*
X270695Y267715D02*
X298255D01*
X245141Y225061D02*
X250259D01*
X329776Y250169D02*
X339776D01*
X329776D02*
Y290170D01*
X339776Y250169D02*
Y290170D01*
X329776D02*
X339776D01*
M02*
