G04*
G04 #@! TF.GenerationSoftware,Altium Limited,Altium Designer,22.8.2 (66)*
G04*
G04 Layer_Color=16711935*
%FSLAX25Y25*%
%MOIN*%
G70*
G04*
G04 #@! TF.SameCoordinates,958647FC-F202-49BF-B8C2-F494824E5218*
G04*
G04*
G04 #@! TF.FilePolarity,Negative*
G04*
G01*
G75*
%ADD77C,0.11811*%
G04:AMPARAMS|DCode=81|XSize=27.59mil|YSize=25.62mil|CornerRadius=6.91mil|HoleSize=0mil|Usage=FLASHONLY|Rotation=90.000|XOffset=0mil|YOffset=0mil|HoleType=Round|Shape=RoundedRectangle|*
%AMROUNDEDRECTD81*
21,1,0.02759,0.01181,0,0,90.0*
21,1,0.01378,0.02562,0,0,90.0*
1,1,0.01381,0.00591,0.00689*
1,1,0.01381,0.00591,-0.00689*
1,1,0.01381,-0.00591,-0.00689*
1,1,0.01381,-0.00591,0.00689*
%
%ADD81ROUNDEDRECTD81*%
G04:AMPARAMS|DCode=82|XSize=27.59mil|YSize=25.62mil|CornerRadius=6.91mil|HoleSize=0mil|Usage=FLASHONLY|Rotation=180.000|XOffset=0mil|YOffset=0mil|HoleType=Round|Shape=RoundedRectangle|*
%AMROUNDEDRECTD82*
21,1,0.02759,0.01181,0,0,180.0*
21,1,0.01378,0.02562,0,0,180.0*
1,1,0.01381,-0.00689,0.00591*
1,1,0.01381,0.00689,0.00591*
1,1,0.01381,0.00689,-0.00591*
1,1,0.01381,-0.00689,-0.00591*
%
%ADD82ROUNDEDRECTD82*%
G04:AMPARAMS|DCode=83|XSize=51.31mil|YSize=23.75mil|CornerRadius=7.94mil|HoleSize=0mil|Usage=FLASHONLY|Rotation=90.000|XOffset=0mil|YOffset=0mil|HoleType=Round|Shape=RoundedRectangle|*
%AMROUNDEDRECTD83*
21,1,0.05131,0.00787,0,0,90.0*
21,1,0.03543,0.02375,0,0,90.0*
1,1,0.01587,0.00394,0.01772*
1,1,0.01587,0.00394,-0.01772*
1,1,0.01587,-0.00394,-0.01772*
1,1,0.01587,-0.00394,0.01772*
%
%ADD83ROUNDEDRECTD83*%
G04:AMPARAMS|DCode=92|XSize=27.59mil|YSize=25.62mil|CornerRadius=6.91mil|HoleSize=0mil|Usage=FLASHONLY|Rotation=225.000|XOffset=0mil|YOffset=0mil|HoleType=Round|Shape=RoundedRectangle|*
%AMROUNDEDRECTD92*
21,1,0.02759,0.01181,0,0,225.0*
21,1,0.01378,0.02562,0,0,225.0*
1,1,0.01381,-0.00905,-0.00070*
1,1,0.01381,0.00070,0.00905*
1,1,0.01381,0.00905,0.00070*
1,1,0.01381,-0.00070,-0.00905*
%
%ADD92ROUNDEDRECTD92*%
%ADD102C,0.00800*%
%ADD103O,0.05721X0.06706*%
%ADD104C,0.22453*%
%ADD105O,0.03950X0.05524*%
%ADD106C,0.06706*%
G04:AMPARAMS|DCode=107|XSize=67.06mil|YSize=67.06mil|CornerRadius=18.76mil|HoleSize=0mil|Usage=FLASHONLY|Rotation=90.000|XOffset=0mil|YOffset=0mil|HoleType=Round|Shape=RoundedRectangle|*
%AMROUNDEDRECTD107*
21,1,0.06706,0.02953,0,0,90.0*
21,1,0.02953,0.06706,0,0,90.0*
1,1,0.03753,0.01476,0.01476*
1,1,0.03753,0.01476,-0.01476*
1,1,0.03753,-0.01476,-0.01476*
1,1,0.03753,-0.01476,0.01476*
%
%ADD107ROUNDEDRECTD107*%
G04:AMPARAMS|DCode=108|XSize=55.24mil|YSize=106.42mil|CornerRadius=15.81mil|HoleSize=0mil|Usage=FLASHONLY|Rotation=90.000|XOffset=0mil|YOffset=0mil|HoleType=Round|Shape=RoundedRectangle|*
%AMROUNDEDRECTD108*
21,1,0.05524,0.07480,0,0,90.0*
21,1,0.02362,0.10642,0,0,90.0*
1,1,0.03162,0.03740,0.01181*
1,1,0.03162,0.03740,-0.01181*
1,1,0.03162,-0.03740,-0.01181*
1,1,0.03162,-0.03740,0.01181*
%
%ADD108ROUNDEDRECTD108*%
G04:AMPARAMS|DCode=109|XSize=55.24mil|YSize=106.42mil|CornerRadius=15.81mil|HoleSize=0mil|Usage=FLASHONLY|Rotation=60.000|XOffset=0mil|YOffset=0mil|HoleType=Round|Shape=RoundedRectangle|*
%AMROUNDEDRECTD109*
21,1,0.05524,0.07480,0,0,60.0*
21,1,0.02362,0.10642,0,0,60.0*
1,1,0.03162,0.03830,-0.00847*
1,1,0.03162,0.02649,-0.02893*
1,1,0.03162,-0.03830,0.00847*
1,1,0.03162,-0.02649,0.02893*
%
%ADD109ROUNDEDRECTD109*%
G04:AMPARAMS|DCode=110|XSize=55.24mil|YSize=86.74mil|CornerRadius=15.81mil|HoleSize=0mil|Usage=FLASHONLY|Rotation=180.000|XOffset=0mil|YOffset=0mil|HoleType=Round|Shape=RoundedRectangle|*
%AMROUNDEDRECTD110*
21,1,0.05524,0.05512,0,0,180.0*
21,1,0.02362,0.08674,0,0,180.0*
1,1,0.03162,-0.01181,0.02756*
1,1,0.03162,0.01181,0.02756*
1,1,0.03162,0.01181,-0.02756*
1,1,0.03162,-0.01181,-0.02756*
%
%ADD110ROUNDEDRECTD110*%
G04:AMPARAMS|DCode=111|XSize=31.62mil|YSize=35.56mil|CornerRadius=9.91mil|HoleSize=0mil|Usage=FLASHONLY|Rotation=315.000|XOffset=0mil|YOffset=0mil|HoleType=Round|Shape=RoundedRectangle|*
%AMROUNDEDRECTD111*
21,1,0.03162,0.01575,0,0,315.0*
21,1,0.01181,0.03556,0,0,315.0*
1,1,0.01981,-0.00139,-0.00974*
1,1,0.01981,-0.00974,-0.00139*
1,1,0.01981,0.00139,0.00974*
1,1,0.01981,0.00974,0.00139*
%
%ADD111ROUNDEDRECTD111*%
%ADD112R,0.02769X0.02769*%
G04:AMPARAMS|DCode=113|XSize=51.31mil|YSize=23.75mil|CornerRadius=7.94mil|HoleSize=0mil|Usage=FLASHONLY|Rotation=0.000|XOffset=0mil|YOffset=0mil|HoleType=Round|Shape=RoundedRectangle|*
%AMROUNDEDRECTD113*
21,1,0.05131,0.00787,0,0,0.0*
21,1,0.03543,0.02375,0,0,0.0*
1,1,0.01587,0.01772,-0.00394*
1,1,0.01587,-0.01772,-0.00394*
1,1,0.01587,-0.01772,0.00394*
1,1,0.01587,0.01772,0.00394*
%
%ADD113ROUNDEDRECTD113*%
G04:AMPARAMS|DCode=114|XSize=114.3mil|YSize=58mil|CornerRadius=16.5mil|HoleSize=0mil|Usage=FLASHONLY|Rotation=270.000|XOffset=0mil|YOffset=0mil|HoleType=Round|Shape=RoundedRectangle|*
%AMROUNDEDRECTD114*
21,1,0.11430,0.02500,0,0,270.0*
21,1,0.08130,0.05800,0,0,270.0*
1,1,0.03300,-0.01250,-0.04065*
1,1,0.03300,-0.01250,0.04065*
1,1,0.03300,0.01250,0.04065*
1,1,0.03300,0.01250,-0.04065*
%
%ADD114ROUNDEDRECTD114*%
G04:AMPARAMS|DCode=115|XSize=17.45mil|YSize=15.87mil|CornerRadius=5.97mil|HoleSize=0mil|Usage=FLASHONLY|Rotation=90.000|XOffset=0mil|YOffset=0mil|HoleType=Round|Shape=RoundedRectangle|*
%AMROUNDEDRECTD115*
21,1,0.01745,0.00394,0,0,90.0*
21,1,0.00551,0.01587,0,0,90.0*
1,1,0.01194,0.00197,0.00276*
1,1,0.01194,0.00197,-0.00276*
1,1,0.01194,-0.00197,-0.00276*
1,1,0.01194,-0.00197,0.00276*
%
%ADD115ROUNDEDRECTD115*%
G04:AMPARAMS|DCode=116|XSize=70.99mil|YSize=43.43mil|CornerRadius=12.86mil|HoleSize=0mil|Usage=FLASHONLY|Rotation=180.000|XOffset=0mil|YOffset=0mil|HoleType=Round|Shape=RoundedRectangle|*
%AMROUNDEDRECTD116*
21,1,0.07099,0.01772,0,0,180.0*
21,1,0.04528,0.04343,0,0,180.0*
1,1,0.02572,-0.02264,0.00886*
1,1,0.02572,0.02264,0.00886*
1,1,0.02572,0.02264,-0.00886*
1,1,0.02572,-0.02264,-0.00886*
%
%ADD116ROUNDEDRECTD116*%
G04:AMPARAMS|DCode=117|XSize=23.75mil|YSize=27.69mil|CornerRadius=7.94mil|HoleSize=0mil|Usage=FLASHONLY|Rotation=270.000|XOffset=0mil|YOffset=0mil|HoleType=Round|Shape=RoundedRectangle|*
%AMROUNDEDRECTD117*
21,1,0.02375,0.01181,0,0,270.0*
21,1,0.00787,0.02769,0,0,270.0*
1,1,0.01587,-0.00591,-0.00394*
1,1,0.01587,-0.00591,0.00394*
1,1,0.01587,0.00591,0.00394*
1,1,0.01587,0.00591,-0.00394*
%
%ADD117ROUNDEDRECTD117*%
G36*
X293857Y247978D02*
X294967Y247725D01*
X294930Y242861D01*
X294930Y242861D01*
X293827Y243145D01*
X291574Y243465D01*
X289298Y243448D01*
X287050Y243095D01*
X285952Y242794D01*
X285946Y247700D01*
X285946D01*
X285946Y247700D01*
Y247700D01*
X287055Y247959D01*
X289316Y248223D01*
X291594Y248229D01*
X293857Y247978D01*
D02*
G37*
G36*
X179174Y247700D02*
X179174D01*
X179174Y247700D01*
Y247700D01*
D02*
G37*
G36*
X72403D02*
X72403D01*
X72403Y247700D01*
Y247700D01*
D02*
G37*
G36*
X187085Y247978D02*
X188195Y247725D01*
X188158Y242861D01*
X188158Y242861D01*
X187056Y243145D01*
X184802Y243465D01*
X182527Y243448D01*
X180278Y243095D01*
X179180Y242794D01*
X179174Y247700D01*
X180283Y247959D01*
X182545Y248223D01*
X184822Y248229D01*
X187085Y247978D01*
D02*
G37*
G36*
X80313D02*
X81424Y247725D01*
X81387Y242861D01*
X81387Y242861D01*
X80284Y243145D01*
X78031Y243465D01*
X75755Y243448D01*
X73507Y243095D01*
X72408Y242794D01*
X72403Y247700D01*
X73511Y247959D01*
X75773Y248223D01*
X78050Y248229D01*
X80313Y247978D01*
D02*
G37*
G36*
X295152Y204171D02*
X295152Y204171D01*
X294043Y203912D01*
X291781Y203648D01*
X289504Y203642D01*
X287241Y203893D01*
X286131Y204146D01*
X286168Y209010D01*
X287270Y208726D01*
X289524Y208406D01*
X291799Y208422D01*
X294048Y208775D01*
X295146Y209076D01*
X295152Y204171D01*
D02*
G37*
G36*
X188380D02*
X188380Y204171D01*
X187271Y203912D01*
X185010Y203648D01*
X182732Y203642D01*
X180469Y203893D01*
X179359Y204146D01*
X179396Y209010D01*
X180499Y208726D01*
X182752Y208406D01*
X185028Y208422D01*
X187276Y208775D01*
X188374Y209076D01*
X188380Y204171D01*
D02*
G37*
G36*
X81608D02*
X81608Y204171D01*
X80500Y203912D01*
X78238Y203648D01*
X75961Y203642D01*
X73698Y203893D01*
X72587Y204146D01*
X72624Y209010D01*
X73727Y208726D01*
X75980Y208406D01*
X78256Y208422D01*
X80504Y208775D01*
X81603Y209076D01*
X81608Y204171D01*
D02*
G37*
G36*
X293857Y89474D02*
X294967Y89221D01*
X294930Y84357D01*
X294930Y84357D01*
X293827Y84641D01*
X291574Y84961D01*
X289298Y84944D01*
X287050Y84591D01*
X285952Y84290D01*
X285946Y89196D01*
X285946D01*
X285946Y89196D01*
Y89196D01*
X287055Y89455D01*
X289316Y89719D01*
X291594Y89725D01*
X293857Y89474D01*
D02*
G37*
G36*
X187085D02*
X188195Y89221D01*
X188158Y84357D01*
X188158Y84357D01*
X187056Y84641D01*
X184802Y84961D01*
X182527Y84944D01*
X180278Y84591D01*
X179180Y84290D01*
X179174Y89196D01*
X179174D01*
X179174Y89196D01*
Y89196D01*
X180283Y89455D01*
X182545Y89719D01*
X184822Y89725D01*
X187085Y89474D01*
D02*
G37*
G36*
X80313D02*
X81424Y89221D01*
X81387Y84357D01*
X81387Y84357D01*
X80284Y84641D01*
X78031Y84961D01*
X75755Y84944D01*
X73507Y84591D01*
X72408Y84290D01*
X72403Y89196D01*
X72403D01*
X72403Y89196D01*
Y89196D01*
X73511Y89455D01*
X75773Y89719D01*
X78050Y89725D01*
X80313Y89474D01*
D02*
G37*
G36*
X295152Y45667D02*
X295152Y45667D01*
X294043Y45408D01*
X291781Y45144D01*
X289504Y45138D01*
X287241Y45389D01*
X286131Y45642D01*
X286168Y50506D01*
X287270Y50222D01*
X289524Y49902D01*
X291799Y49918D01*
X294048Y50272D01*
X295146Y50572D01*
X295152Y45667D01*
D02*
G37*
G36*
X188380D02*
X188380Y45667D01*
X187271Y45408D01*
X185010Y45144D01*
X182732Y45138D01*
X180469Y45389D01*
X179359Y45642D01*
X179396Y50506D01*
X180499Y50222D01*
X182752Y49902D01*
X185028Y49918D01*
X187276Y50272D01*
X188374Y50572D01*
X188380Y45667D01*
D02*
G37*
G36*
X81608D02*
X81608Y45667D01*
X80500Y45408D01*
X78238Y45144D01*
X75961Y45138D01*
X73698Y45389D01*
X72587Y45642D01*
X72624Y50506D01*
X73727Y50222D01*
X75980Y49902D01*
X78256Y49918D01*
X80504Y50272D01*
X81603Y50572D01*
X81608Y45667D01*
D02*
G37*
D77*
X357185Y251279D02*
D03*
X10433Y87008D02*
D03*
X9646Y315846D02*
D03*
D81*
X75057Y173957D02*
D03*
X71057D02*
D03*
X57757Y138257D02*
D03*
X61757D02*
D03*
X74557Y121657D02*
D03*
X70557D02*
D03*
Y117757D02*
D03*
X74557D02*
D03*
X61857Y130257D02*
D03*
X57857D02*
D03*
X61857Y134357D02*
D03*
X57857D02*
D03*
X83057Y157482D02*
D03*
X87057D02*
D03*
X91557Y157582D02*
D03*
X95557D02*
D03*
X60380Y173982D02*
D03*
X56380D02*
D03*
X53457Y127457D02*
D03*
X49457D02*
D03*
X53457Y123457D02*
D03*
X49457D02*
D03*
X181828Y173957D02*
D03*
X177828D02*
D03*
X164528Y138257D02*
D03*
X168528D02*
D03*
X181328Y121657D02*
D03*
X177328D02*
D03*
Y117757D02*
D03*
X181328D02*
D03*
X168628Y130257D02*
D03*
X164628D02*
D03*
X168628Y134357D02*
D03*
X164628D02*
D03*
X189828Y157482D02*
D03*
X193828D02*
D03*
X198328Y157582D02*
D03*
X202328D02*
D03*
X167151Y173982D02*
D03*
X163152D02*
D03*
X160228Y127457D02*
D03*
X156228D02*
D03*
X160228Y123457D02*
D03*
X156228D02*
D03*
X288600Y173957D02*
D03*
X284600D02*
D03*
X271300Y138257D02*
D03*
X275300D02*
D03*
X288100Y121657D02*
D03*
X284100D02*
D03*
Y117757D02*
D03*
X288100D02*
D03*
X275400Y130257D02*
D03*
X271400D02*
D03*
X275400Y134357D02*
D03*
X271400D02*
D03*
X296600Y157482D02*
D03*
X300600D02*
D03*
X305100Y157582D02*
D03*
X309100D02*
D03*
X273923Y173982D02*
D03*
X269923D02*
D03*
X267000Y127457D02*
D03*
X263000D02*
D03*
X267000Y123457D02*
D03*
X263000D02*
D03*
X75057Y332461D02*
D03*
X71057D02*
D03*
X57757Y296761D02*
D03*
X61757D02*
D03*
X74557Y280161D02*
D03*
X70557D02*
D03*
Y276261D02*
D03*
X74557D02*
D03*
X61857Y288761D02*
D03*
X57857D02*
D03*
X61857Y292861D02*
D03*
X57857D02*
D03*
X83057Y315986D02*
D03*
X87057D02*
D03*
X91557Y316086D02*
D03*
X95557D02*
D03*
X60380Y332486D02*
D03*
X56380D02*
D03*
X53457Y285961D02*
D03*
X49457D02*
D03*
X53457Y281961D02*
D03*
X49457D02*
D03*
X181828Y332461D02*
D03*
X177828D02*
D03*
X164528Y296761D02*
D03*
X168528D02*
D03*
X181328Y280161D02*
D03*
X177328D02*
D03*
Y276261D02*
D03*
X181328D02*
D03*
X168628Y288761D02*
D03*
X164628D02*
D03*
X168628Y292861D02*
D03*
X164628D02*
D03*
X189828Y315986D02*
D03*
X193828D02*
D03*
X198328Y316086D02*
D03*
X202328D02*
D03*
X167151Y332486D02*
D03*
X163152D02*
D03*
X160228Y285961D02*
D03*
X156228D02*
D03*
X160228Y281961D02*
D03*
X156228D02*
D03*
X288600Y332461D02*
D03*
X284600D02*
D03*
X271300Y296761D02*
D03*
X275300D02*
D03*
X288100Y280161D02*
D03*
X284100D02*
D03*
Y276261D02*
D03*
X288100D02*
D03*
X275400Y288761D02*
D03*
X271400D02*
D03*
X275400Y292861D02*
D03*
X271400D02*
D03*
X296600Y315986D02*
D03*
X300600D02*
D03*
X305100Y316086D02*
D03*
X309100D02*
D03*
X273923Y332486D02*
D03*
X269923D02*
D03*
X267000Y285961D02*
D03*
X263000D02*
D03*
X267000Y281961D02*
D03*
X263000D02*
D03*
D82*
X53557Y135457D02*
D03*
Y131457D02*
D03*
Y119657D02*
D03*
Y115657D02*
D03*
X49257D02*
D03*
Y119657D02*
D03*
X68657Y130157D02*
D03*
Y126157D02*
D03*
X69857Y112457D02*
D03*
Y108457D02*
D03*
X87557Y174282D02*
D03*
Y170282D02*
D03*
X79057Y174282D02*
D03*
Y170282D02*
D03*
X86957Y121957D02*
D03*
Y117957D02*
D03*
Y113857D02*
D03*
Y109857D02*
D03*
X95457Y170382D02*
D03*
Y174382D02*
D03*
X78457Y117657D02*
D03*
Y121657D02*
D03*
X73857Y108457D02*
D03*
Y112457D02*
D03*
X82657Y117857D02*
D03*
Y121857D02*
D03*
X58243Y170316D02*
D03*
Y166316D02*
D03*
X160328Y135457D02*
D03*
Y131457D02*
D03*
Y119657D02*
D03*
Y115657D02*
D03*
X156028D02*
D03*
Y119657D02*
D03*
X175428Y130157D02*
D03*
Y126157D02*
D03*
X176628Y112457D02*
D03*
Y108457D02*
D03*
X194328Y174282D02*
D03*
Y170282D02*
D03*
X185828Y174282D02*
D03*
Y170282D02*
D03*
X193728Y121957D02*
D03*
Y117957D02*
D03*
Y113857D02*
D03*
Y109857D02*
D03*
X202228Y170382D02*
D03*
Y174382D02*
D03*
X185228Y117657D02*
D03*
Y121657D02*
D03*
X180628Y108457D02*
D03*
Y112457D02*
D03*
X189428Y117857D02*
D03*
Y121857D02*
D03*
X165014Y170316D02*
D03*
Y166316D02*
D03*
X267100Y135457D02*
D03*
Y131457D02*
D03*
Y119657D02*
D03*
Y115657D02*
D03*
X262800D02*
D03*
Y119657D02*
D03*
X282200Y130157D02*
D03*
Y126157D02*
D03*
X283400Y112457D02*
D03*
Y108457D02*
D03*
X301100Y174282D02*
D03*
Y170282D02*
D03*
X292600Y174282D02*
D03*
Y170282D02*
D03*
X300500Y121957D02*
D03*
Y117957D02*
D03*
Y113857D02*
D03*
Y109857D02*
D03*
X309000Y170382D02*
D03*
Y174382D02*
D03*
X292000Y117657D02*
D03*
Y121657D02*
D03*
X287400Y108457D02*
D03*
Y112457D02*
D03*
X296200Y117857D02*
D03*
Y121857D02*
D03*
X271786Y170316D02*
D03*
Y166316D02*
D03*
X53557Y293961D02*
D03*
Y289961D02*
D03*
Y278161D02*
D03*
Y274161D02*
D03*
X49257D02*
D03*
Y278161D02*
D03*
X68657Y288661D02*
D03*
Y284661D02*
D03*
X69857Y270961D02*
D03*
Y266961D02*
D03*
X87557Y332786D02*
D03*
Y328786D02*
D03*
X79057Y332786D02*
D03*
Y328786D02*
D03*
X86957Y280461D02*
D03*
Y276461D02*
D03*
Y272361D02*
D03*
Y268361D02*
D03*
X95457Y328886D02*
D03*
Y332886D02*
D03*
X78457Y276161D02*
D03*
Y280161D02*
D03*
X73857Y266961D02*
D03*
Y270961D02*
D03*
X82657Y276361D02*
D03*
Y280361D02*
D03*
X58243Y328820D02*
D03*
Y324820D02*
D03*
X160328Y293961D02*
D03*
Y289961D02*
D03*
Y278161D02*
D03*
Y274161D02*
D03*
X156028D02*
D03*
Y278161D02*
D03*
X175428Y288661D02*
D03*
Y284661D02*
D03*
X176628Y270961D02*
D03*
Y266961D02*
D03*
X194328Y332786D02*
D03*
Y328786D02*
D03*
X185828Y332786D02*
D03*
Y328786D02*
D03*
X193728Y280461D02*
D03*
Y276461D02*
D03*
Y272361D02*
D03*
Y268361D02*
D03*
X202228Y328886D02*
D03*
Y332886D02*
D03*
X185228Y276161D02*
D03*
Y280161D02*
D03*
X180628Y266961D02*
D03*
Y270961D02*
D03*
X189428Y276361D02*
D03*
Y280361D02*
D03*
X165014Y328820D02*
D03*
Y324820D02*
D03*
X267100Y293961D02*
D03*
Y289961D02*
D03*
Y278161D02*
D03*
Y274161D02*
D03*
X262800D02*
D03*
Y278161D02*
D03*
X282200Y288661D02*
D03*
Y284661D02*
D03*
X283400Y270961D02*
D03*
Y266961D02*
D03*
X301100Y332786D02*
D03*
Y328786D02*
D03*
X292600Y332786D02*
D03*
Y328786D02*
D03*
X300500Y280461D02*
D03*
Y276461D02*
D03*
Y272361D02*
D03*
Y268361D02*
D03*
X309000Y328886D02*
D03*
Y332886D02*
D03*
X292000Y276161D02*
D03*
Y280161D02*
D03*
X287400Y266961D02*
D03*
Y270961D02*
D03*
X296200Y276361D02*
D03*
Y280361D02*
D03*
X271786Y328820D02*
D03*
Y324820D02*
D03*
D83*
X65297Y115339D02*
D03*
X61557D02*
D03*
X57816D02*
D03*
Y125575D02*
D03*
X61557D02*
D03*
X65297D02*
D03*
X172069Y115339D02*
D03*
X168328D02*
D03*
X164588D02*
D03*
Y125575D02*
D03*
X168328D02*
D03*
X172069D02*
D03*
X278840Y115339D02*
D03*
X275100D02*
D03*
X271360D02*
D03*
Y125575D02*
D03*
X275100D02*
D03*
X278840D02*
D03*
X65297Y273843D02*
D03*
X61557D02*
D03*
X57816D02*
D03*
Y284079D02*
D03*
X61557D02*
D03*
X65297D02*
D03*
X172069Y273843D02*
D03*
X168328D02*
D03*
X164588D02*
D03*
Y284079D02*
D03*
X168328D02*
D03*
X172069D02*
D03*
X278840Y273843D02*
D03*
X275100D02*
D03*
X271360D02*
D03*
Y284079D02*
D03*
X275100D02*
D03*
X278840D02*
D03*
D92*
X83411Y133268D02*
D03*
X86240Y130439D02*
D03*
X77811Y138768D02*
D03*
X80640Y135939D02*
D03*
X83911Y138668D02*
D03*
X86740Y135839D02*
D03*
X190183Y133268D02*
D03*
X193011Y130439D02*
D03*
X184583Y138768D02*
D03*
X187411Y135939D02*
D03*
X190683Y138668D02*
D03*
X193511Y135839D02*
D03*
X296955Y133268D02*
D03*
X299783Y130439D02*
D03*
X291355Y138768D02*
D03*
X294183Y135939D02*
D03*
X297455Y138668D02*
D03*
X300283Y135839D02*
D03*
X83411Y291772D02*
D03*
X86240Y288943D02*
D03*
X77811Y297272D02*
D03*
X80640Y294443D02*
D03*
X83911Y297172D02*
D03*
X86740Y294343D02*
D03*
X190183Y291772D02*
D03*
X193011Y288943D02*
D03*
X184583Y297272D02*
D03*
X187411Y294443D02*
D03*
X190683Y297172D02*
D03*
X193511Y294343D02*
D03*
X296955Y291772D02*
D03*
X299783Y288943D02*
D03*
X291355Y297272D02*
D03*
X294183Y294443D02*
D03*
X297455Y297172D02*
D03*
X300283Y294343D02*
D03*
D102*
X355709Y351969D02*
D03*
X354134Y12205D02*
D03*
X11122Y10728D02*
D03*
X10039Y352854D02*
D03*
X82650Y178811D02*
D03*
X77925D02*
D03*
X73201D02*
D03*
X70839D02*
D03*
X75563D02*
D03*
X80288D02*
D03*
X82551Y26744D02*
D03*
X77827D02*
D03*
X73103D02*
D03*
X70740D02*
D03*
X75465D02*
D03*
X80189D02*
D03*
X26843Y137670D02*
D03*
Y142394D02*
D03*
Y147118D02*
D03*
Y149480D02*
D03*
Y144756D02*
D03*
Y140032D02*
D03*
X127138Y137768D02*
D03*
Y142492D02*
D03*
Y147217D02*
D03*
Y149579D02*
D03*
Y144854D02*
D03*
Y140130D02*
D03*
X26744Y66902D02*
D03*
Y71626D02*
D03*
Y76350D02*
D03*
Y78713D02*
D03*
Y73988D02*
D03*
Y69264D02*
D03*
X127138Y66902D02*
D03*
Y71626D02*
D03*
Y76351D02*
D03*
Y78713D02*
D03*
Y73988D02*
D03*
Y69264D02*
D03*
X189421Y178811D02*
D03*
X184697D02*
D03*
X179973D02*
D03*
X177610D02*
D03*
X182335D02*
D03*
X187059D02*
D03*
X189323Y26744D02*
D03*
X184599D02*
D03*
X179874D02*
D03*
X177512D02*
D03*
X182236D02*
D03*
X186961D02*
D03*
X133614Y137670D02*
D03*
Y142394D02*
D03*
Y147118D02*
D03*
Y149480D02*
D03*
Y144756D02*
D03*
Y140032D02*
D03*
X233910Y137768D02*
D03*
Y142492D02*
D03*
Y147217D02*
D03*
Y149579D02*
D03*
Y144854D02*
D03*
Y140130D02*
D03*
X133516Y66902D02*
D03*
Y71626D02*
D03*
Y76350D02*
D03*
Y78713D02*
D03*
Y73988D02*
D03*
Y69264D02*
D03*
X233910Y66902D02*
D03*
Y71626D02*
D03*
Y76351D02*
D03*
Y78713D02*
D03*
Y73988D02*
D03*
Y69264D02*
D03*
X296193Y178811D02*
D03*
X291469D02*
D03*
X286744D02*
D03*
X284382D02*
D03*
X289106D02*
D03*
X293831D02*
D03*
X296095Y26744D02*
D03*
X291370D02*
D03*
X286646D02*
D03*
X284284D02*
D03*
X289008D02*
D03*
X293733D02*
D03*
X240386Y137670D02*
D03*
Y142394D02*
D03*
Y147118D02*
D03*
Y149480D02*
D03*
Y144756D02*
D03*
Y140032D02*
D03*
X340681Y137768D02*
D03*
Y142492D02*
D03*
Y147217D02*
D03*
Y149579D02*
D03*
Y144854D02*
D03*
Y140130D02*
D03*
X240288Y66902D02*
D03*
Y71626D02*
D03*
Y76350D02*
D03*
Y78713D02*
D03*
Y73988D02*
D03*
Y69264D02*
D03*
X340681Y66902D02*
D03*
Y71626D02*
D03*
Y76351D02*
D03*
Y78713D02*
D03*
Y73988D02*
D03*
Y69264D02*
D03*
X82650Y337315D02*
D03*
X77925D02*
D03*
X73201D02*
D03*
X70839D02*
D03*
X75563D02*
D03*
X80288D02*
D03*
X82551Y185248D02*
D03*
X77827D02*
D03*
X73103D02*
D03*
X70740D02*
D03*
X75465D02*
D03*
X80189D02*
D03*
X26843Y296173D02*
D03*
Y300898D02*
D03*
Y305622D02*
D03*
Y307984D02*
D03*
Y303260D02*
D03*
Y298536D02*
D03*
X127138Y296272D02*
D03*
Y300996D02*
D03*
Y305721D02*
D03*
Y308083D02*
D03*
Y303358D02*
D03*
Y298634D02*
D03*
X26744Y225406D02*
D03*
Y230130D02*
D03*
Y234855D02*
D03*
Y237217D02*
D03*
Y232492D02*
D03*
Y227768D02*
D03*
X127138Y225406D02*
D03*
Y230130D02*
D03*
Y234855D02*
D03*
Y237217D02*
D03*
Y232492D02*
D03*
Y227768D02*
D03*
X189421Y337315D02*
D03*
X184697D02*
D03*
X179973D02*
D03*
X177610D02*
D03*
X182335D02*
D03*
X187059D02*
D03*
X189323Y185248D02*
D03*
X184599D02*
D03*
X179874D02*
D03*
X177512D02*
D03*
X182236D02*
D03*
X186961D02*
D03*
X133614Y296173D02*
D03*
Y300898D02*
D03*
Y305622D02*
D03*
Y307984D02*
D03*
Y303260D02*
D03*
Y298536D02*
D03*
X233910Y296272D02*
D03*
Y300996D02*
D03*
Y305721D02*
D03*
Y308083D02*
D03*
Y303358D02*
D03*
Y298634D02*
D03*
X133516Y225406D02*
D03*
Y230130D02*
D03*
Y234855D02*
D03*
Y237217D02*
D03*
Y232492D02*
D03*
Y227768D02*
D03*
X233910Y225406D02*
D03*
Y230130D02*
D03*
Y234855D02*
D03*
Y237217D02*
D03*
Y232492D02*
D03*
Y227768D02*
D03*
X296193Y337315D02*
D03*
X291469D02*
D03*
X286744D02*
D03*
X284382D02*
D03*
X289106D02*
D03*
X293831D02*
D03*
X296095Y185248D02*
D03*
X291370D02*
D03*
X286646D02*
D03*
X284284D02*
D03*
X289008D02*
D03*
X293733D02*
D03*
X240386Y296173D02*
D03*
Y300898D02*
D03*
Y305622D02*
D03*
Y307984D02*
D03*
Y303260D02*
D03*
Y298536D02*
D03*
X340681Y296272D02*
D03*
Y300996D02*
D03*
Y305721D02*
D03*
Y308083D02*
D03*
Y303358D02*
D03*
Y298634D02*
D03*
X240288Y225406D02*
D03*
Y230130D02*
D03*
Y234855D02*
D03*
Y237217D02*
D03*
Y232492D02*
D03*
Y227768D02*
D03*
X340681Y225406D02*
D03*
Y230130D02*
D03*
Y234855D02*
D03*
Y237217D02*
D03*
Y232492D02*
D03*
Y227768D02*
D03*
D103*
X76993Y71946D02*
D03*
X183765D02*
D03*
X290537D02*
D03*
X76993Y230450D02*
D03*
X183765D02*
D03*
X290537D02*
D03*
D104*
X39565Y47635D02*
D03*
X114368D02*
D03*
X41336Y162990D02*
D03*
X112202D02*
D03*
X146336Y47635D02*
D03*
X221139D02*
D03*
X148108Y162990D02*
D03*
X218974D02*
D03*
X253108Y47635D02*
D03*
X327911D02*
D03*
X254880Y162990D02*
D03*
X325746D02*
D03*
X39565Y206139D02*
D03*
X114368D02*
D03*
X41336Y321494D02*
D03*
X112202D02*
D03*
X146336Y206139D02*
D03*
X221139D02*
D03*
X148108Y321494D02*
D03*
X218974D02*
D03*
X253108Y206139D02*
D03*
X327911D02*
D03*
X254880Y321494D02*
D03*
X325746D02*
D03*
D105*
X80930Y66631D02*
D03*
X73056D02*
D03*
X187702D02*
D03*
X179828D02*
D03*
X294474D02*
D03*
X286600D02*
D03*
X80930Y225135D02*
D03*
X73056D02*
D03*
X187702D02*
D03*
X179828D02*
D03*
X294474D02*
D03*
X286600D02*
D03*
D106*
X121232Y126665D02*
D03*
Y116665D02*
D03*
Y106666D02*
D03*
X228004Y126665D02*
D03*
Y116665D02*
D03*
Y106666D02*
D03*
X334776Y126665D02*
D03*
Y116665D02*
D03*
Y106666D02*
D03*
X121232Y285170D02*
D03*
Y275169D02*
D03*
Y265170D02*
D03*
X228004Y285170D02*
D03*
Y275169D02*
D03*
Y265170D02*
D03*
X334776Y285170D02*
D03*
Y275169D02*
D03*
Y265170D02*
D03*
D107*
X121232Y96666D02*
D03*
X228004D02*
D03*
X334776D02*
D03*
X121232Y255170D02*
D03*
X228004D02*
D03*
X334776D02*
D03*
D108*
X75860Y99187D02*
D03*
X182632D02*
D03*
X289404D02*
D03*
X75860Y257691D02*
D03*
X182632D02*
D03*
X289404D02*
D03*
D109*
X47317Y105884D02*
D03*
X154088D02*
D03*
X260860D02*
D03*
X47317Y264388D02*
D03*
X154088D02*
D03*
X260860D02*
D03*
D110*
X94393Y141432D02*
D03*
X201165D02*
D03*
X307937D02*
D03*
X94393Y299936D02*
D03*
X201165D02*
D03*
X307937D02*
D03*
D111*
X80163Y130283D02*
D03*
X76822Y126943D02*
D03*
X72368Y131397D02*
D03*
X75709Y134738D02*
D03*
X186934Y130283D02*
D03*
X183594Y126943D02*
D03*
X179140Y131397D02*
D03*
X182480Y134738D02*
D03*
X293706Y130283D02*
D03*
X290366Y126943D02*
D03*
X285911Y131397D02*
D03*
X289252Y134738D02*
D03*
X80163Y288787D02*
D03*
X76822Y285447D02*
D03*
X72368Y289901D02*
D03*
X75709Y293242D02*
D03*
X186934Y288787D02*
D03*
X183594Y285447D02*
D03*
X179140Y289901D02*
D03*
X182480Y293242D02*
D03*
X293706Y288787D02*
D03*
X290366Y285447D02*
D03*
X285911Y289901D02*
D03*
X289252Y293242D02*
D03*
D112*
X77006Y47647D02*
D03*
Y87214D02*
D03*
X183778Y47647D02*
D03*
Y87214D02*
D03*
X290549Y47647D02*
D03*
Y87214D02*
D03*
X77006Y206151D02*
D03*
Y245718D02*
D03*
X183778Y206151D02*
D03*
Y245718D02*
D03*
X290549Y206151D02*
D03*
Y245718D02*
D03*
D113*
X63051Y161955D02*
D03*
Y165695D02*
D03*
Y169435D02*
D03*
X73288D02*
D03*
Y165695D02*
D03*
Y161955D02*
D03*
X169823D02*
D03*
Y165695D02*
D03*
Y169435D02*
D03*
X180059D02*
D03*
Y165695D02*
D03*
Y161955D02*
D03*
X276595D02*
D03*
Y165695D02*
D03*
Y169435D02*
D03*
X286831D02*
D03*
Y165695D02*
D03*
Y161955D02*
D03*
X63051Y320459D02*
D03*
Y324199D02*
D03*
Y327939D02*
D03*
X73288D02*
D03*
Y324199D02*
D03*
Y320459D02*
D03*
X169823D02*
D03*
Y324199D02*
D03*
Y327939D02*
D03*
X180059D02*
D03*
Y324199D02*
D03*
Y320459D02*
D03*
X276595D02*
D03*
Y324199D02*
D03*
Y327939D02*
D03*
X286831D02*
D03*
Y324199D02*
D03*
Y320459D02*
D03*
D114*
X77457Y153082D02*
D03*
X65457D02*
D03*
X184228D02*
D03*
X172228D02*
D03*
X291000D02*
D03*
X279000D02*
D03*
X77457Y311586D02*
D03*
X65457D02*
D03*
X184228D02*
D03*
X172228D02*
D03*
X291000D02*
D03*
X279000D02*
D03*
D115*
X79288Y106683D02*
D03*
X81257D02*
D03*
X83225D02*
D03*
Y114557D02*
D03*
X81257D02*
D03*
X79288D02*
D03*
X77320D02*
D03*
Y106683D02*
D03*
X186060D02*
D03*
X188028D02*
D03*
X189997D02*
D03*
Y114557D02*
D03*
X188028D02*
D03*
X186060D02*
D03*
X184091D02*
D03*
Y106683D02*
D03*
X292831D02*
D03*
X294800D02*
D03*
X296768D02*
D03*
Y114557D02*
D03*
X294800D02*
D03*
X292831D02*
D03*
X290863D02*
D03*
Y106683D02*
D03*
X79288Y265187D02*
D03*
X81257D02*
D03*
X83225D02*
D03*
Y273061D02*
D03*
X81257D02*
D03*
X79288D02*
D03*
X77320D02*
D03*
Y265187D02*
D03*
X186060D02*
D03*
X188028D02*
D03*
X189997D02*
D03*
Y273061D02*
D03*
X188028D02*
D03*
X186060D02*
D03*
X184091D02*
D03*
Y265187D02*
D03*
X292831D02*
D03*
X294800D02*
D03*
X296768D02*
D03*
Y273061D02*
D03*
X294800D02*
D03*
X292831D02*
D03*
X290863D02*
D03*
Y265187D02*
D03*
D116*
X80224Y110620D02*
D03*
X186995D02*
D03*
X293767D02*
D03*
X80224Y269124D02*
D03*
X186995D02*
D03*
X293767D02*
D03*
D117*
X95457Y161326D02*
D03*
Y166838D02*
D03*
X91357D02*
D03*
Y161326D02*
D03*
X87257D02*
D03*
Y166838D02*
D03*
X83157D02*
D03*
Y161326D02*
D03*
X79057D02*
D03*
Y166838D02*
D03*
X202228Y161326D02*
D03*
Y166838D02*
D03*
X198128D02*
D03*
Y161326D02*
D03*
X194028D02*
D03*
Y166838D02*
D03*
X189928D02*
D03*
Y161326D02*
D03*
X185828D02*
D03*
Y166838D02*
D03*
X309000Y161326D02*
D03*
Y166838D02*
D03*
X304900D02*
D03*
Y161326D02*
D03*
X300800D02*
D03*
Y166838D02*
D03*
X296700D02*
D03*
Y161326D02*
D03*
X292600D02*
D03*
Y166838D02*
D03*
X95457Y319830D02*
D03*
Y325342D02*
D03*
X91357D02*
D03*
Y319830D02*
D03*
X87257D02*
D03*
Y325342D02*
D03*
X83157D02*
D03*
Y319830D02*
D03*
X79057D02*
D03*
Y325342D02*
D03*
X202228Y319830D02*
D03*
Y325342D02*
D03*
X198128D02*
D03*
Y319830D02*
D03*
X194028D02*
D03*
Y325342D02*
D03*
X189928D02*
D03*
Y319830D02*
D03*
X185828D02*
D03*
Y325342D02*
D03*
X309000Y319830D02*
D03*
Y325342D02*
D03*
X304900D02*
D03*
Y319830D02*
D03*
X300800D02*
D03*
Y325342D02*
D03*
X296700D02*
D03*
Y319830D02*
D03*
X292600D02*
D03*
Y325342D02*
D03*
M02*
