G04*
G04 #@! TF.GenerationSoftware,Altium Limited,Altium Designer,22.8.2 (66)*
G04*
G04 Layer_Color=128*
%FSLAX25Y25*%
%MOIN*%
G70*
G04*
G04 #@! TF.SameCoordinates,965ED274-2041-4188-BAE2-D5AD10226453*
G04*
G04*
G04 #@! TF.FilePolarity,Positive*
G04*
G01*
G75*
%ADD11C,0.00500*%
%ADD12C,0.01000*%
%ADD13C,0.00600*%
%ADD14C,0.00200*%
D11*
X19644Y150012D02*
Y225018D01*
Y79145D02*
Y137312D01*
X347877Y79102D02*
Y137365D01*
Y150065D02*
Y225019D01*
X340006Y137365D02*
X347880D01*
X340006Y150065D02*
X347881D01*
X19649Y150012D02*
X27523D01*
X19649Y137312D02*
X27523D01*
X0Y364244D02*
X347857D01*
X0Y19659D02*
Y364244D01*
X347857D02*
X367542D01*
Y344559D02*
Y364244D01*
X26Y-26D02*
X19685D01*
X0Y0D02*
X26Y-26D01*
X0Y0D02*
Y19659D01*
X19685Y-26D02*
X367542D01*
X367542Y344559D01*
X19685Y19659D02*
Y66523D01*
Y19659D02*
X70419D01*
X296590Y344559D02*
X347857D01*
X347867Y308550D02*
Y344559D01*
X19683Y308557D02*
Y344559D01*
X70429D01*
X19683Y237657D02*
Y295857D01*
X83050Y19677D02*
X177191D01*
X189796Y19667D02*
X283974D01*
X296565Y19656D02*
X347871D01*
Y66519D01*
X347867Y237666D02*
Y295817D01*
X189836Y344560D02*
X283941D01*
X83041Y344566D02*
X177173D01*
X70419Y19659D02*
Y27533D01*
X83040Y19667D02*
Y27541D01*
X177191Y19677D02*
Y27551D01*
X189780Y19651D02*
Y27525D01*
X283974Y19667D02*
Y27541D01*
X296565Y19656D02*
Y27530D01*
X339997Y66519D02*
X347871D01*
X340007Y79098D02*
X347882D01*
X233178Y66553D02*
X241052D01*
X233231Y79157D02*
X241105D01*
X126469Y66515D02*
X134343D01*
X126457Y79157D02*
X134331D01*
X19685Y66523D02*
X27559D01*
X19644Y79145D02*
X27518D01*
X340003Y225019D02*
X347877D01*
X339987Y237661D02*
X347862D01*
X233206Y224992D02*
X241080D01*
X233191Y237627D02*
X241065D01*
X126457Y225057D02*
X134331D01*
X126433Y237611D02*
X134307D01*
X19683Y225057D02*
X27557D01*
X19683Y237657D02*
X27557D01*
X19683Y295857D02*
X27557D01*
X19683Y308557D02*
X27557D01*
X126457Y295857D02*
X134331D01*
X126457Y308557D02*
X134331D01*
X233227Y295809D02*
X241101D01*
X233227Y308528D02*
X241101D01*
X339992Y295817D02*
X347867D01*
X339992Y308550D02*
X347867D01*
X296590Y336685D02*
Y344559D01*
X283977Y336722D02*
Y344596D01*
X189836Y336686D02*
Y344560D01*
X177174Y336694D02*
Y344568D01*
X83041Y336692D02*
Y344566D01*
X70429Y336684D02*
Y344559D01*
X70457Y178183D02*
Y186057D01*
X83057Y178183D02*
Y186057D01*
X296557Y178183D02*
Y186057D01*
X283957Y178183D02*
Y186057D01*
X189818Y178183D02*
Y186057D01*
X177184Y178184D02*
Y186058D01*
X93895Y117320D02*
G03*
X93895Y117320I-2165J0D01*
G01*
X46257Y140943D02*
G03*
X46257Y140943I-2165J0D01*
G01*
X27557Y27950D02*
G03*
X27950Y27557I394J0D01*
G01*
X47517Y47675D02*
G03*
X47517Y47675I-7874J0D01*
G01*
D02*
G03*
X47517Y47675I-7874J0D01*
G01*
X126061Y27557D02*
G03*
X126454Y27950I0J394D01*
G01*
X27723Y169916D02*
G03*
X27557Y169594I227J-322D01*
G01*
X27723Y169916D02*
G03*
X31998Y177808I-5846J8271D01*
G01*
X122013D02*
G03*
X121619Y178187I-393J-15D01*
G01*
X122013Y177808D02*
G03*
X126288Y169916I10121J379D01*
G01*
X32392Y178187D02*
G03*
X31998Y177808I0J-394D01*
G01*
X38797Y137432D02*
G03*
X38797Y137432I-2165J0D01*
G01*
X99328Y83173D02*
G03*
X99328Y83173I-2165J0D01*
G01*
X59014Y51640D02*
G03*
X59014Y51640I-2165J0D01*
G01*
X122242Y47675D02*
G03*
X122242Y47675I-7874J0D01*
G01*
X120450Y163088D02*
G03*
X120450Y163088I-7874J0D01*
G01*
X47517Y47675D02*
G03*
X47517Y47675I-7874J0D01*
G01*
X49309Y163088D02*
G03*
X49309Y163088I-7874J0D01*
G01*
X47517Y47675D02*
G03*
X47517Y47675I-7874J0D01*
G01*
X122242D02*
G03*
X122242Y47675I-7874J0D01*
G01*
X27557Y66532D02*
X27557Y27950D01*
X27950Y27557D02*
X70432D01*
X27557Y150032D02*
Y169594D01*
X126454Y150032D02*
Y169594D01*
X27557Y137332D02*
X27557Y79132D01*
X126454Y66532D02*
X126454Y27950D01*
X126454Y137332D02*
X126454Y79132D01*
X83032Y27557D02*
X126061D01*
X32392Y178187D02*
X70432D01*
X83032D02*
X121619D01*
X200667Y117320D02*
G03*
X200667Y117320I-2165J0D01*
G01*
X153029Y140943D02*
G03*
X153029Y140943I-2165J0D01*
G01*
X134328Y27950D02*
G03*
X134722Y27557I394J0D01*
G01*
X154289Y47675D02*
G03*
X154289Y47675I-7874J0D01*
G01*
D02*
G03*
X154289Y47675I-7874J0D01*
G01*
X232832Y27557D02*
G03*
X233226Y27950I0J394D01*
G01*
X134495Y169916D02*
G03*
X134328Y169594I227J-322D01*
G01*
X134495Y169916D02*
G03*
X138770Y177808I-5846J8271D01*
G01*
X228784D02*
G03*
X228391Y178187I-393J-15D01*
G01*
X228784Y177808D02*
G03*
X233060Y169916I10121J379D01*
G01*
X139163Y178187D02*
G03*
X138770Y177808I0J-394D01*
G01*
X145569Y137432D02*
G03*
X145569Y137432I-2165J0D01*
G01*
X206100Y83173D02*
G03*
X206100Y83173I-2165J0D01*
G01*
X165786Y51640D02*
G03*
X165786Y51640I-2165J0D01*
G01*
X229013Y47675D02*
G03*
X229013Y47675I-7874J0D01*
G01*
X227222Y163088D02*
G03*
X227222Y163088I-7874J0D01*
G01*
X154289Y47675D02*
G03*
X154289Y47675I-7874J0D01*
G01*
X156080Y163088D02*
G03*
X156080Y163088I-7874J0D01*
G01*
X154289Y47675D02*
G03*
X154289Y47675I-7874J0D01*
G01*
X229013D02*
G03*
X229013Y47675I-7874J0D01*
G01*
X134328Y66532D02*
X134328Y27950D01*
X134722Y27557D02*
X177203D01*
X134328Y150032D02*
Y169594D01*
X233226Y150032D02*
Y169594D01*
X134328Y137332D02*
X134328Y79132D01*
X233226Y66532D02*
X233226Y27950D01*
X233226Y137332D02*
X233226Y79132D01*
X189803Y27557D02*
X232832D01*
X139163Y178187D02*
X177203D01*
X189803D02*
X228391D01*
X307439Y117320D02*
G03*
X307439Y117320I-2165J0D01*
G01*
X259801Y140943D02*
G03*
X259801Y140943I-2165J0D01*
G01*
X241100Y27950D02*
G03*
X241494Y27557I394J0D01*
G01*
X261061Y47675D02*
G03*
X261061Y47675I-7874J0D01*
G01*
D02*
G03*
X261061Y47675I-7874J0D01*
G01*
X339604Y27557D02*
G03*
X339998Y27950I0J394D01*
G01*
X241266Y169916D02*
G03*
X241100Y169594I227J-322D01*
G01*
X241266Y169916D02*
G03*
X245542Y177808I-5846J8271D01*
G01*
X335556D02*
G03*
X335162Y178187I-393J-15D01*
G01*
X335556Y177808D02*
G03*
X339831Y169916I10121J379D01*
G01*
X245935Y178187D02*
G03*
X245542Y177808I0J-394D01*
G01*
X252340Y137432D02*
G03*
X252340Y137432I-2165J0D01*
G01*
X312871Y83173D02*
G03*
X312871Y83173I-2165J0D01*
G01*
X272557Y51640D02*
G03*
X272557Y51640I-2165J0D01*
G01*
X335785Y47675D02*
G03*
X335785Y47675I-7874J0D01*
G01*
X333994Y163088D02*
G03*
X333994Y163088I-7874J0D01*
G01*
X261061Y47675D02*
G03*
X261061Y47675I-7874J0D01*
G01*
X262852Y163088D02*
G03*
X262852Y163088I-7874J0D01*
G01*
X261061Y47675D02*
G03*
X261061Y47675I-7874J0D01*
G01*
X335785D02*
G03*
X335785Y47675I-7874J0D01*
G01*
X241100Y66532D02*
X241100Y27950D01*
X241494Y27557D02*
X283975D01*
X241100Y150032D02*
Y169594D01*
X339998Y150032D02*
Y169594D01*
X241100Y137332D02*
X241100Y79132D01*
X339998Y66532D02*
X339998Y27950D01*
X339998Y137332D02*
X339998Y79132D01*
X296575Y27557D02*
X339604D01*
X245935Y178187D02*
X283975D01*
X296575D02*
X335162D01*
X93895Y275824D02*
G03*
X93895Y275824I-2165J0D01*
G01*
X46257Y299446D02*
G03*
X46257Y299446I-2165J0D01*
G01*
X27557Y186454D02*
G03*
X27950Y186061I394J0D01*
G01*
X47517Y206179D02*
G03*
X47517Y206179I-7874J0D01*
G01*
D02*
G03*
X47517Y206179I-7874J0D01*
G01*
X126061Y186061D02*
G03*
X126454Y186454I0J394D01*
G01*
X27723Y328420D02*
G03*
X27557Y328098I227J-322D01*
G01*
X27723Y328420D02*
G03*
X31998Y336312I-5846J8271D01*
G01*
X122013D02*
G03*
X121619Y336690I-393J-15D01*
G01*
X122013Y336312D02*
G03*
X126288Y328420I10121J379D01*
G01*
X32392Y336690D02*
G03*
X31998Y336312I0J-394D01*
G01*
X38797Y295936D02*
G03*
X38797Y295936I-2165J0D01*
G01*
X99328Y241677D02*
G03*
X99328Y241677I-2165J0D01*
G01*
X59014Y210144D02*
G03*
X59014Y210144I-2165J0D01*
G01*
X122242Y206179D02*
G03*
X122242Y206179I-7874J0D01*
G01*
X120450Y321592D02*
G03*
X120450Y321592I-7874J0D01*
G01*
X47517Y206179D02*
G03*
X47517Y206179I-7874J0D01*
G01*
X49309Y321592D02*
G03*
X49309Y321592I-7874J0D01*
G01*
X47517Y206179D02*
G03*
X47517Y206179I-7874J0D01*
G01*
X122242D02*
G03*
X122242Y206179I-7874J0D01*
G01*
X27557Y225036D02*
X27557Y186454D01*
X27950Y186061D02*
X70432D01*
X27557Y308536D02*
Y328098D01*
X126454Y308536D02*
Y328098D01*
X27557Y295836D02*
X27557Y237636D01*
X126454Y225036D02*
X126454Y186454D01*
X126454Y295836D02*
X126454Y237636D01*
X83032Y186061D02*
X126061D01*
X32392Y336690D02*
X70432D01*
X83032D02*
X121619D01*
X200667Y275824D02*
G03*
X200667Y275824I-2165J0D01*
G01*
X153029Y299446D02*
G03*
X153029Y299446I-2165J0D01*
G01*
X134328Y186454D02*
G03*
X134722Y186061I394J0D01*
G01*
X154289Y206179D02*
G03*
X154289Y206179I-7874J0D01*
G01*
D02*
G03*
X154289Y206179I-7874J0D01*
G01*
X232832Y186061D02*
G03*
X233226Y186454I0J394D01*
G01*
X134495Y328420D02*
G03*
X134328Y328098I227J-322D01*
G01*
X134495Y328420D02*
G03*
X138770Y336312I-5846J8271D01*
G01*
X228784D02*
G03*
X228391Y336690I-393J-15D01*
G01*
X228784Y336312D02*
G03*
X233060Y328420I10121J379D01*
G01*
X139163Y336690D02*
G03*
X138770Y336312I0J-394D01*
G01*
X145569Y295936D02*
G03*
X145569Y295936I-2165J0D01*
G01*
X206100Y241677D02*
G03*
X206100Y241677I-2165J0D01*
G01*
X165786Y210144D02*
G03*
X165786Y210144I-2165J0D01*
G01*
X229013Y206179D02*
G03*
X229013Y206179I-7874J0D01*
G01*
X227222Y321592D02*
G03*
X227222Y321592I-7874J0D01*
G01*
X154289Y206179D02*
G03*
X154289Y206179I-7874J0D01*
G01*
X156080Y321592D02*
G03*
X156080Y321592I-7874J0D01*
G01*
X154289Y206179D02*
G03*
X154289Y206179I-7874J0D01*
G01*
X229013D02*
G03*
X229013Y206179I-7874J0D01*
G01*
X134328Y225036D02*
X134328Y186454D01*
X134722Y186061D02*
X177203D01*
X134328Y308536D02*
Y328098D01*
X233226Y308536D02*
Y328098D01*
X134328Y295836D02*
X134328Y237636D01*
X233226Y225036D02*
X233226Y186454D01*
X233226Y295836D02*
X233226Y237636D01*
X189803Y186061D02*
X232832D01*
X139163Y336690D02*
X177203D01*
X189803D02*
X228391D01*
X307439Y275824D02*
G03*
X307439Y275824I-2165J0D01*
G01*
X259801Y299446D02*
G03*
X259801Y299446I-2165J0D01*
G01*
X241100Y186454D02*
G03*
X241494Y186061I394J0D01*
G01*
X261061Y206179D02*
G03*
X261061Y206179I-7874J0D01*
G01*
D02*
G03*
X261061Y206179I-7874J0D01*
G01*
X339604Y186061D02*
G03*
X339998Y186454I0J394D01*
G01*
X241266Y328420D02*
G03*
X241100Y328098I227J-322D01*
G01*
X241266Y328420D02*
G03*
X245542Y336312I-5846J8271D01*
G01*
X335556D02*
G03*
X335162Y336690I-393J-15D01*
G01*
X335556Y336312D02*
G03*
X339831Y328420I10121J379D01*
G01*
X245935Y336690D02*
G03*
X245542Y336312I0J-394D01*
G01*
X252340Y295936D02*
G03*
X252340Y295936I-2165J0D01*
G01*
X312871Y241677D02*
G03*
X312871Y241677I-2165J0D01*
G01*
X272557Y210144D02*
G03*
X272557Y210144I-2165J0D01*
G01*
X335785Y206179D02*
G03*
X335785Y206179I-7874J0D01*
G01*
X333994Y321592D02*
G03*
X333994Y321592I-7874J0D01*
G01*
X261061Y206179D02*
G03*
X261061Y206179I-7874J0D01*
G01*
X262852Y321592D02*
G03*
X262852Y321592I-7874J0D01*
G01*
X261061Y206179D02*
G03*
X261061Y206179I-7874J0D01*
G01*
X335785D02*
G03*
X335785Y206179I-7874J0D01*
G01*
X241100Y225036D02*
X241100Y186454D01*
X241494Y186061D02*
X283975D01*
X241100Y308536D02*
Y328098D01*
X339998Y308536D02*
Y328098D01*
X241100Y295836D02*
X241100Y237636D01*
X339998Y225036D02*
X339998Y186454D01*
X339998Y295836D02*
X339998Y237636D01*
X296575Y186061D02*
X339604D01*
X245935Y336690D02*
X283975D01*
X296575D02*
X335162D01*
D12*
X0Y372047D02*
X6000Y374047D01*
X0Y372047D02*
X6000Y370047D01*
X361542D02*
X367542Y372047D01*
X361542Y374047D02*
X367542Y372047D01*
X0D02*
X161077D01*
X203264D02*
X367542D01*
X0Y365494D02*
Y373047D01*
X367542Y365494D02*
Y373047D01*
X-8465Y364244D02*
X-6465Y358244D01*
X-10465D02*
X-8465Y364244D01*
X-10465Y5974D02*
X-8465Y-26D01*
X-6465Y5974D01*
X-8465Y201602D02*
Y364244D01*
Y-26D02*
Y159415D01*
X-9465Y364244D02*
X-1250D01*
X-9465Y-26D02*
X-1224D01*
D13*
X162677Y369448D02*
X163677Y368448D01*
X165676D01*
X166676Y369448D01*
Y373447D01*
X165676Y374446D01*
X163677D01*
X162677Y373447D01*
Y372447D01*
X163677Y371447D01*
X166676D01*
X168675Y373447D02*
X169675Y374446D01*
X171674D01*
X172674Y373447D01*
Y372447D01*
X171674Y371447D01*
X170675D01*
X171674D01*
X172674Y370448D01*
Y369448D01*
X171674Y368448D01*
X169675D01*
X168675Y369448D01*
X174673Y368448D02*
Y369448D01*
X175673D01*
Y368448D01*
X174673D01*
X179672Y373447D02*
X180671Y374446D01*
X182671D01*
X183670Y373447D01*
Y372447D01*
X182671Y371447D01*
X181671D01*
X182671D01*
X183670Y370448D01*
Y369448D01*
X182671Y368448D01*
X180671D01*
X179672Y369448D01*
X189668Y374446D02*
X187669Y373447D01*
X185670Y371447D01*
Y369448D01*
X186669Y368448D01*
X188669D01*
X189668Y369448D01*
Y370448D01*
X188669Y371447D01*
X185670D01*
X191668Y368448D02*
Y372447D01*
X192667D01*
X193667Y371447D01*
Y368448D01*
Y371447D01*
X194667Y372447D01*
X195667Y371447D01*
Y368448D01*
X197666D02*
Y372447D01*
X198665D01*
X199665Y371447D01*
Y368448D01*
Y371447D01*
X200665Y372447D01*
X201664Y371447D01*
Y368448D01*
X-5865Y161015D02*
X-4865Y162015D01*
Y164014D01*
X-5865Y165014D01*
X-9864D01*
X-10864Y164014D01*
Y162015D01*
X-9864Y161015D01*
X-8864D01*
X-7865Y162015D01*
Y165014D01*
X-4865Y171012D02*
Y167013D01*
X-8864Y171012D01*
X-9864D01*
X-10864Y170012D01*
Y168013D01*
X-9864Y167013D01*
X-4865Y173011D02*
X-5865D01*
Y174011D01*
X-4865D01*
Y173011D01*
X-10864Y182008D02*
Y178009D01*
X-7865D01*
X-8864Y180009D01*
Y181009D01*
X-7865Y182008D01*
X-5865D01*
X-4865Y181009D01*
Y179009D01*
X-5865Y178009D01*
X-9864Y184008D02*
X-10864Y185007D01*
Y187007D01*
X-9864Y188006D01*
X-8864D01*
X-7865Y187007D01*
Y186007D01*
Y187007D01*
X-6865Y188006D01*
X-5865D01*
X-4865Y187007D01*
Y185007D01*
X-5865Y184008D01*
X-4865Y190006D02*
X-8864D01*
Y191005D01*
X-7865Y192005D01*
X-4865D01*
X-7865D01*
X-8864Y193005D01*
X-7865Y194004D01*
X-4865D01*
Y196004D02*
X-8864D01*
Y197003D01*
X-7865Y198003D01*
X-4865D01*
X-7865D01*
X-8864Y199003D01*
X-7865Y200002D01*
X-4865D01*
D14*
X349803Y351969D02*
X361614D01*
X355709Y346063D02*
Y357874D01*
X348228Y12205D02*
X360039D01*
X354134Y6299D02*
Y18110D01*
X5217Y10728D02*
X17028D01*
X11122Y4823D02*
Y16634D01*
X4134Y352854D02*
X15945D01*
X10039Y346949D02*
Y358760D01*
X75025Y71454D02*
X78962D01*
X76993Y69486D02*
Y73423D01*
X33265Y47635D02*
X45864D01*
X39565Y41336D02*
Y53935D01*
X108069Y47635D02*
X120667D01*
X114368Y41336D02*
Y53935D01*
X79848Y67418D02*
X82013D01*
X80930Y66336D02*
Y68501D01*
X71974Y67418D02*
X74139D01*
X73056Y66336D02*
Y68501D01*
X35037Y162990D02*
X47635D01*
X41336Y156691D02*
Y169289D01*
X82059Y178811D02*
X83240D01*
X82650Y178221D02*
Y179402D01*
X77335Y178811D02*
X78516D01*
X77925Y178221D02*
Y179402D01*
X72610Y178811D02*
X73791D01*
X73201Y178221D02*
Y179402D01*
X70248Y178811D02*
X71429D01*
X70839Y178221D02*
Y179402D01*
X74973Y178811D02*
X76154D01*
X75563Y178221D02*
Y179402D01*
X79697Y178811D02*
X80878D01*
X80288Y178221D02*
Y179402D01*
X81961Y26744D02*
X83142D01*
X82551Y26154D02*
Y27335D01*
X77236Y26744D02*
X78417D01*
X77827Y26154D02*
Y27335D01*
X72512Y26744D02*
X73693D01*
X73103Y26154D02*
Y27335D01*
X70150Y26744D02*
X71331D01*
X70740Y26154D02*
Y27335D01*
X74874Y26744D02*
X76055D01*
X75465Y26154D02*
Y27335D01*
X79599Y26744D02*
X80780D01*
X80189Y26154D02*
Y27335D01*
X105903Y162990D02*
X118502D01*
X112202Y156691D02*
Y169289D01*
X26252Y137670D02*
X27433D01*
X26843Y137079D02*
Y138260D01*
X26252Y142394D02*
X27433D01*
X26843Y141803D02*
Y142984D01*
X26252Y147118D02*
X27433D01*
X26843Y146528D02*
Y147709D01*
X26252Y149480D02*
X27433D01*
X26843Y148890D02*
Y150071D01*
X26252Y144756D02*
X27433D01*
X26843Y144166D02*
Y145347D01*
X26252Y140032D02*
X27433D01*
X26843Y139441D02*
Y140622D01*
X126547Y137768D02*
X127728D01*
X127138Y137177D02*
Y138358D01*
X126547Y142492D02*
X127728D01*
X127138Y141902D02*
Y143083D01*
X126547Y147217D02*
X127728D01*
X127138Y146626D02*
Y147807D01*
X126547Y149579D02*
X127728D01*
X127138Y148988D02*
Y150169D01*
X126547Y144854D02*
X127728D01*
X127138Y144264D02*
Y145445D01*
X126547Y140130D02*
X127728D01*
X127138Y139540D02*
Y140721D01*
X26154Y66902D02*
X27335D01*
X26744Y66311D02*
Y67492D01*
X26154Y71626D02*
X27335D01*
X26744Y71036D02*
Y72217D01*
X26154Y76350D02*
X27335D01*
X26744Y75760D02*
Y76941D01*
X26154Y78713D02*
X27335D01*
X26744Y78122D02*
Y79303D01*
X26154Y73988D02*
X27335D01*
X26744Y73398D02*
Y74579D01*
X26154Y69264D02*
X27335D01*
X26744Y68673D02*
Y69854D01*
X126547Y66902D02*
X127728D01*
X127138Y66311D02*
Y67492D01*
X126547Y71626D02*
X127728D01*
X127138Y71036D02*
Y72217D01*
X126547Y76351D02*
X127728D01*
X127138Y75760D02*
Y76941D01*
X126547Y78713D02*
X127728D01*
X127138Y78122D02*
Y79303D01*
X126547Y73988D02*
X127728D01*
X127138Y73398D02*
Y74579D01*
X126547Y69264D02*
X127728D01*
X127138Y68673D02*
Y69854D01*
X119461Y126665D02*
X123004D01*
X121232Y124894D02*
Y128437D01*
X119461Y116665D02*
X123004D01*
X121232Y114894D02*
Y118437D01*
X119461Y106666D02*
X123004D01*
X121232Y104894D02*
Y108437D01*
X119461Y96666D02*
X123004D01*
X121232Y94894D02*
Y98437D01*
X68066Y132657D02*
X69247D01*
X68657Y132066D02*
Y133247D01*
X79263Y52657D02*
X80050D01*
X79657Y52263D02*
Y53050D01*
X72288Y123600D02*
X73076D01*
X72682Y123206D02*
Y123994D01*
X54245Y141120D02*
X55426D01*
X54835Y140530D02*
Y141711D01*
X67566Y172657D02*
X68747D01*
X68157Y172066D02*
Y173247D01*
X65166Y172657D02*
X66347D01*
X65757Y172066D02*
Y173247D01*
X88366Y33157D02*
X89547D01*
X88957Y32566D02*
Y33747D01*
X93088Y99832D02*
X93875D01*
X93482Y99438D02*
Y100225D01*
X91388Y83514D02*
X92175D01*
X91782Y83120D02*
Y83908D01*
X93837Y86395D02*
X94625D01*
X94231Y86001D02*
Y86789D01*
X73344Y47629D02*
X74525D01*
X73934Y47038D02*
Y48219D01*
X45633Y80368D02*
X46814D01*
X46223Y79777D02*
Y80958D01*
X56966Y144096D02*
X58147D01*
X57557Y143506D02*
Y144687D01*
X59325Y144096D02*
X60506D01*
X59915Y143506D02*
Y144687D01*
X71063Y113357D02*
X71850D01*
X71457Y112963D02*
Y113750D01*
X51115Y95357D02*
X52297D01*
X51706Y94766D02*
Y95947D01*
X99466Y132157D02*
X100647D01*
X100057Y131566D02*
Y132747D01*
X110683Y111743D02*
X111864D01*
X111273Y111153D02*
Y112334D01*
X95526Y131912D02*
X96707D01*
X96117Y131322D02*
Y132503D01*
X94449Y149870D02*
X95630D01*
X95040Y149279D02*
Y150461D01*
X95858Y118868D02*
X97039D01*
X96449Y118278D02*
Y119459D01*
X56351Y91964D02*
X57532D01*
X56942Y91373D02*
Y92554D01*
X55965Y73017D02*
X57146D01*
X56555Y72426D02*
Y73607D01*
X65857Y74710D02*
X67038D01*
X66447Y74119D02*
Y75300D01*
X54058Y170416D02*
X55239D01*
X54649Y169825D02*
Y171006D01*
X110548Y119830D02*
X111729D01*
X111139Y119239D02*
Y120421D01*
X110521Y127272D02*
X111703D01*
X111112Y126681D02*
Y127862D01*
X45766Y32086D02*
X46947D01*
X46356Y31495D02*
Y32676D01*
X63580Y48483D02*
X64761D01*
X64170Y47893D02*
Y49074D01*
X74426Y36075D02*
X75607D01*
X75016Y35484D02*
Y36665D01*
X70886Y36221D02*
X72067D01*
X71477Y35631D02*
Y36812D01*
X76095Y42459D02*
X77276D01*
X76686Y41869D02*
Y43050D01*
X84537Y47201D02*
X85718D01*
X85128Y46611D02*
Y47792D01*
X87529Y53252D02*
X88710D01*
X88120Y52661D02*
Y53843D01*
X84858Y53225D02*
X86039D01*
X85448Y52635D02*
Y53816D01*
X63431Y51838D02*
X64612D01*
X64022Y51247D02*
Y52428D01*
X71983Y51160D02*
X73164D01*
X72574Y50570D02*
Y51751D01*
X68185Y54852D02*
X69366D01*
X68775Y54261D02*
Y55443D01*
X71946Y54820D02*
X73128D01*
X72537Y54230D02*
Y55411D01*
X104145Y82749D02*
X105326D01*
X104735Y82158D02*
Y83340D01*
X111779Y94226D02*
X112961D01*
X112370Y93636D02*
Y94817D01*
X93066Y104170D02*
X94248D01*
X93657Y103579D02*
Y104760D01*
X93476Y108133D02*
X94657D01*
X94067Y107543D02*
Y108724D01*
X95543Y125899D02*
X96724D01*
X96134Y125309D02*
Y126490D01*
X91717Y134526D02*
X92898D01*
X92307Y133936D02*
Y135117D01*
X82478Y173212D02*
X83659D01*
X83069Y172621D02*
Y173802D01*
X98264Y174834D02*
X99445D01*
X98855Y174244D02*
Y175425D01*
X90775Y174852D02*
X91956D01*
X91366Y174262D02*
Y175443D01*
X30305Y136540D02*
X31486D01*
X30896Y135950D02*
Y137131D01*
X112939Y135155D02*
X114120D01*
X113530Y134564D02*
Y135746D01*
X118107Y135126D02*
X119288D01*
X118698Y134536D02*
Y135717D01*
X120962Y135155D02*
X122143D01*
X121553Y134564D02*
Y135746D01*
X118044Y74801D02*
X119226D01*
X118635Y74210D02*
Y75391D01*
X121350Y74714D02*
X122531D01*
X121941Y74123D02*
Y75304D01*
X30040Y75831D02*
X31221D01*
X30631Y75240D02*
Y76421D01*
X51184Y58102D02*
X52365D01*
X51775Y57511D02*
Y58693D01*
X41850Y62898D02*
X43031D01*
X42441Y62308D02*
Y63489D01*
X53766Y61008D02*
X54947D01*
X54357Y60417D02*
Y61598D01*
X39031Y94063D02*
X40212D01*
X39622Y93472D02*
Y94653D01*
X44581Y91008D02*
X45762D01*
X45171Y90417D02*
Y91598D01*
X45275Y127332D02*
X46457D01*
X45866Y126741D02*
Y127922D01*
X45293Y123272D02*
X46474D01*
X45883Y122682D02*
Y123863D01*
X37842Y123805D02*
X38629D01*
X38236Y123411D02*
Y124198D01*
X37842Y125535D02*
X38629D01*
X38236Y125141D02*
Y125929D01*
X53318Y174056D02*
X54499D01*
X53909Y173466D02*
Y174647D01*
X58766Y162557D02*
X59947D01*
X59357Y161966D02*
Y163147D01*
X56466Y162557D02*
X57647D01*
X57057Y161966D02*
Y163147D01*
X82421Y151216D02*
X83208D01*
X82814Y150822D02*
Y151610D01*
X99038Y145864D02*
X99825D01*
X99432Y145470D02*
Y146257D01*
X92266Y170457D02*
X93447D01*
X92857Y169866D02*
Y171047D01*
X86563Y115757D02*
X87350D01*
X86957Y115363D02*
Y116150D01*
X64963Y112357D02*
X65750D01*
X65357Y111963D02*
Y112750D01*
X53113Y129432D02*
X53900D01*
X53507Y129038D02*
Y129825D01*
X36263Y130357D02*
X37050D01*
X36657Y129963D02*
Y130750D01*
X86450Y79319D02*
X87238D01*
X86844Y78926D02*
Y79713D01*
X88151Y79319D02*
X88938D01*
X88544Y78926D02*
Y79713D01*
X41666Y79857D02*
X42847D01*
X42257Y79266D02*
Y80447D01*
X49163Y88057D02*
X49950D01*
X49557Y87663D02*
Y88450D01*
X57663Y83557D02*
X58450D01*
X58057Y83163D02*
Y83950D01*
X57663Y85457D02*
X58450D01*
X58057Y85063D02*
Y85850D01*
X57663Y87303D02*
X58450D01*
X58057Y86909D02*
Y87697D01*
X73563Y77357D02*
X74350D01*
X73957Y76963D02*
Y77750D01*
X73563Y78957D02*
X74350D01*
X73957Y78563D02*
Y79350D01*
X32666Y75857D02*
X33847D01*
X33257Y75266D02*
Y76447D01*
X88138Y83532D02*
X88925D01*
X88532Y83138D02*
Y83925D01*
X86438Y83532D02*
X87225D01*
X86832Y83138D02*
Y83925D01*
X53363Y146557D02*
X54150D01*
X53757Y146163D02*
Y146950D01*
X36163Y132657D02*
X36950D01*
X36557Y132263D02*
Y133050D01*
X33963Y132857D02*
X34750D01*
X34357Y132463D02*
Y133250D01*
X56645Y147939D02*
X57433D01*
X57039Y147545D02*
Y148333D01*
X53863Y149457D02*
X54650D01*
X54257Y149063D02*
Y149850D01*
X34463Y135557D02*
X35250D01*
X34857Y135163D02*
Y135950D01*
X102138Y145964D02*
X102925D01*
X102532Y145570D02*
Y146357D01*
X67585Y83257D02*
X68373D01*
X67979Y82863D02*
Y83650D01*
X90746Y34053D02*
X91927D01*
X91336Y33462D02*
Y34643D01*
X84838Y85432D02*
X85625D01*
X85232Y85038D02*
Y85825D01*
X83217Y86573D02*
X84004D01*
X83610Y86180D02*
Y86967D01*
X84838Y87712D02*
X85625D01*
X85232Y87319D02*
Y88106D01*
X96651Y47242D02*
X97439D01*
X97045Y46848D02*
Y47635D01*
X111120Y31690D02*
X112301D01*
X111710Y31100D02*
Y32281D01*
X105612Y62014D02*
X106793D01*
X106202Y61423D02*
Y62604D01*
X108341Y71332D02*
X109522D01*
X108932Y70741D02*
Y71922D01*
X105338Y145964D02*
X106125D01*
X105732Y145570D02*
Y146357D01*
X103738Y146864D02*
X104525D01*
X104132Y146470D02*
Y147257D01*
X100538Y146864D02*
X101325D01*
X100932Y146470D02*
Y147257D01*
X106922Y85642D02*
X108103D01*
X107513Y85051D02*
Y86233D01*
X67938Y99932D02*
X68725D01*
X68332Y99538D02*
Y100325D01*
X120973Y31567D02*
X122154D01*
X121564Y30977D02*
Y32158D01*
X31855Y32225D02*
X33036D01*
X32445Y31635D02*
Y32816D01*
X93247Y69815D02*
X94428D01*
X93838Y69224D02*
Y70405D01*
X70538Y102032D02*
X71325D01*
X70932Y101638D02*
Y102425D01*
X99841Y69432D02*
X101022D01*
X100432Y68841D02*
Y70022D01*
X55758Y44722D02*
X56939D01*
X56349Y44131D02*
Y45312D01*
X102432Y78910D02*
X103613D01*
X103023Y78320D02*
Y79501D01*
X69038Y93932D02*
X69825D01*
X69432Y93538D02*
Y94325D01*
X71938Y92032D02*
X72725D01*
X72332Y91638D02*
Y92425D01*
X73538Y95032D02*
X74325D01*
X73932Y94638D02*
Y95425D01*
X70138Y89832D02*
X70925D01*
X70532Y89438D02*
Y90225D01*
X66038Y93932D02*
X66825D01*
X66432Y93538D02*
Y94325D01*
X66338Y91032D02*
X67125D01*
X66732Y90638D02*
Y91425D01*
X63638Y96932D02*
X64425D01*
X64032Y96538D02*
Y97325D01*
X83217Y84293D02*
X84004D01*
X83610Y83899D02*
Y84686D01*
X83217Y88851D02*
X84004D01*
X83610Y88458D02*
Y89245D01*
X65438Y96932D02*
X66225D01*
X65832Y96538D02*
Y97325D01*
X67238Y96932D02*
X68025D01*
X67632Y96538D02*
Y97325D01*
X84538Y95432D02*
X85325D01*
X84932Y95038D02*
Y95825D01*
X83238Y100332D02*
X84025D01*
X83632Y99938D02*
Y100725D01*
X77438Y95432D02*
X78225D01*
X77832Y95038D02*
Y95825D01*
X75538Y91132D02*
X76325D01*
X75932Y90738D02*
Y91525D01*
X181797Y71454D02*
X185733D01*
X183765Y69486D02*
Y73423D01*
X140037Y47635D02*
X152635D01*
X146336Y41336D02*
Y53935D01*
X214840Y47635D02*
X227439D01*
X221139Y41336D02*
Y53935D01*
X186619Y67418D02*
X188785D01*
X187702Y66336D02*
Y68501D01*
X178745Y67418D02*
X180911D01*
X179828Y66336D02*
Y68501D01*
X141809Y162990D02*
X154407D01*
X148108Y156691D02*
Y169289D01*
X188831Y178811D02*
X190012D01*
X189421Y178221D02*
Y179402D01*
X184107Y178811D02*
X185288D01*
X184697Y178221D02*
Y179402D01*
X179382Y178811D02*
X180563D01*
X179973Y178221D02*
Y179402D01*
X177020Y178811D02*
X178201D01*
X177610Y178221D02*
Y179402D01*
X181744Y178811D02*
X182925D01*
X182335Y178221D02*
Y179402D01*
X186469Y178811D02*
X187650D01*
X187059Y178221D02*
Y179402D01*
X188733Y26744D02*
X189914D01*
X189323Y26154D02*
Y27335D01*
X184008Y26744D02*
X185189D01*
X184599Y26154D02*
Y27335D01*
X179284Y26744D02*
X180465D01*
X179874Y26154D02*
Y27335D01*
X176921Y26744D02*
X178103D01*
X177512Y26154D02*
Y27335D01*
X181646Y26744D02*
X182827D01*
X182236Y26154D02*
Y27335D01*
X186370Y26744D02*
X187551D01*
X186961Y26154D02*
Y27335D01*
X212675Y162990D02*
X225273D01*
X218974Y156691D02*
Y169289D01*
X133024Y137670D02*
X134205D01*
X133614Y137079D02*
Y138260D01*
X133024Y142394D02*
X134205D01*
X133614Y141803D02*
Y142984D01*
X133024Y147118D02*
X134205D01*
X133614Y146528D02*
Y147709D01*
X133024Y149480D02*
X134205D01*
X133614Y148890D02*
Y150071D01*
X133024Y144756D02*
X134205D01*
X133614Y144166D02*
Y145347D01*
X133024Y140032D02*
X134205D01*
X133614Y139441D02*
Y140622D01*
X233319Y137768D02*
X234500D01*
X233910Y137177D02*
Y138358D01*
X233319Y142492D02*
X234500D01*
X233910Y141902D02*
Y143083D01*
X233319Y147217D02*
X234500D01*
X233910Y146626D02*
Y147807D01*
X233319Y149579D02*
X234500D01*
X233910Y148988D02*
Y150169D01*
X233319Y144854D02*
X234500D01*
X233910Y144264D02*
Y145445D01*
X233319Y140130D02*
X234500D01*
X233910Y139540D02*
Y140721D01*
X132925Y66902D02*
X134107D01*
X133516Y66311D02*
Y67492D01*
X132925Y71626D02*
X134107D01*
X133516Y71036D02*
Y72217D01*
X132925Y76350D02*
X134107D01*
X133516Y75760D02*
Y76941D01*
X132925Y78713D02*
X134107D01*
X133516Y78122D02*
Y79303D01*
X132925Y73988D02*
X134107D01*
X133516Y73398D02*
Y74579D01*
X132925Y69264D02*
X134107D01*
X133516Y68673D02*
Y69854D01*
X233319Y66902D02*
X234500D01*
X233910Y66311D02*
Y67492D01*
X233319Y71626D02*
X234500D01*
X233910Y71036D02*
Y72217D01*
X233319Y76351D02*
X234500D01*
X233910Y75760D02*
Y76941D01*
X233319Y78713D02*
X234500D01*
X233910Y78122D02*
Y79303D01*
X233319Y73988D02*
X234500D01*
X233910Y73398D02*
Y74579D01*
X233319Y69264D02*
X234500D01*
X233910Y68673D02*
Y69854D01*
X226233Y126665D02*
X229776D01*
X228004Y124894D02*
Y128437D01*
X226233Y116665D02*
X229776D01*
X228004Y114894D02*
Y118437D01*
X226233Y106666D02*
X229776D01*
X228004Y104894D02*
Y108437D01*
X226233Y96666D02*
X229776D01*
X228004Y94894D02*
Y98437D01*
X174838Y132657D02*
X176019D01*
X175428Y132066D02*
Y133247D01*
X186035Y52657D02*
X186822D01*
X186428Y52263D02*
Y53050D01*
X179060Y123600D02*
X179847D01*
X179454Y123206D02*
Y123994D01*
X161016Y141120D02*
X162198D01*
X161607Y140530D02*
Y141711D01*
X174338Y172657D02*
X175519D01*
X174928Y172066D02*
Y173247D01*
X171938Y172657D02*
X173119D01*
X172528Y172066D02*
Y173247D01*
X195138Y33157D02*
X196319D01*
X195728Y32566D02*
Y33747D01*
X199860Y99832D02*
X200647D01*
X200253Y99438D02*
Y100225D01*
X198160Y83514D02*
X198947D01*
X198553Y83120D02*
Y83908D01*
X200609Y86395D02*
X201397D01*
X201003Y86001D02*
Y86789D01*
X180115Y47629D02*
X181297D01*
X180706Y47038D02*
Y48219D01*
X152404Y80368D02*
X153586D01*
X152995Y79777D02*
Y80958D01*
X163738Y144096D02*
X164919D01*
X164328Y143506D02*
Y144687D01*
X166096Y144096D02*
X167277D01*
X166687Y143506D02*
Y144687D01*
X177835Y113357D02*
X178622D01*
X178228Y112963D02*
Y113750D01*
X157887Y95357D02*
X159068D01*
X158478Y94766D02*
Y95947D01*
X206238Y132157D02*
X207419D01*
X206828Y131566D02*
Y132747D01*
X217454Y111743D02*
X218635D01*
X218045Y111153D02*
Y112334D01*
X202298Y131912D02*
X203479D01*
X202889Y131322D02*
Y132503D01*
X201221Y149870D02*
X202402D01*
X201812Y149279D02*
Y150461D01*
X202630Y118868D02*
X203811D01*
X203220Y118278D02*
Y119459D01*
X163123Y91964D02*
X164304D01*
X163713Y91373D02*
Y92554D01*
X162736Y73017D02*
X163918D01*
X163327Y72426D02*
Y73607D01*
X172628Y74710D02*
X173810D01*
X173219Y74119D02*
Y75300D01*
X160830Y170416D02*
X162011D01*
X161421Y169825D02*
Y171006D01*
X217320Y119830D02*
X218501D01*
X217911Y119239D02*
Y120421D01*
X217293Y127272D02*
X218474D01*
X217884Y126681D02*
Y127862D01*
X152538Y32086D02*
X153719D01*
X153128Y31495D02*
Y32676D01*
X170351Y48483D02*
X171532D01*
X170942Y47893D02*
Y49074D01*
X181197Y36075D02*
X182378D01*
X181788Y35484D02*
Y36665D01*
X177658Y36221D02*
X178839D01*
X178248Y35631D02*
Y36812D01*
X182867Y42459D02*
X184048D01*
X183458Y41869D02*
Y43050D01*
X191309Y47201D02*
X192490D01*
X191899Y46611D02*
Y47792D01*
X194301Y53252D02*
X195482D01*
X194891Y52661D02*
Y53843D01*
X191629Y53225D02*
X192810D01*
X192220Y52635D02*
Y53816D01*
X170203Y51838D02*
X171384D01*
X170793Y51247D02*
Y52428D01*
X178755Y51160D02*
X179936D01*
X179345Y50570D02*
Y51751D01*
X174956Y54852D02*
X176137D01*
X175547Y54261D02*
Y55443D01*
X178718Y54820D02*
X179899D01*
X179309Y54230D02*
Y55411D01*
X210916Y82749D02*
X212097D01*
X211507Y82158D02*
Y83340D01*
X218551Y94226D02*
X219732D01*
X219142Y93636D02*
Y94817D01*
X199838Y104170D02*
X201019D01*
X200429Y103579D02*
Y104760D01*
X200248Y108133D02*
X201429D01*
X200839Y107543D02*
Y108724D01*
X202315Y125899D02*
X203496D01*
X202906Y125309D02*
Y126490D01*
X198488Y134526D02*
X199670D01*
X199079Y133936D02*
Y135117D01*
X189250Y173212D02*
X190431D01*
X189840Y172621D02*
Y173802D01*
X205036Y174834D02*
X206217D01*
X205627Y174244D02*
Y175425D01*
X197547Y174852D02*
X198728D01*
X198137Y174262D02*
Y175443D01*
X137077Y136540D02*
X138258D01*
X137668Y135950D02*
Y137131D01*
X219711Y135155D02*
X220892D01*
X220301Y134564D02*
Y135746D01*
X224879Y135126D02*
X226060D01*
X225469Y134536D02*
Y135717D01*
X227734Y135155D02*
X228915D01*
X228325Y134564D02*
Y135746D01*
X224816Y74801D02*
X225997D01*
X225407Y74210D02*
Y75391D01*
X228122Y74714D02*
X229303D01*
X228712Y74123D02*
Y75304D01*
X136812Y75831D02*
X137993D01*
X137402Y75240D02*
Y76421D01*
X157956Y58102D02*
X159137D01*
X158547Y57511D02*
Y58693D01*
X148622Y62898D02*
X149803D01*
X149213Y62308D02*
Y63489D01*
X160538Y61008D02*
X161719D01*
X161128Y60417D02*
Y61598D01*
X145803Y94063D02*
X146984D01*
X146393Y93472D02*
Y94653D01*
X151352Y91008D02*
X152533D01*
X151943Y90417D02*
Y91598D01*
X152047Y127332D02*
X153228D01*
X152638Y126741D02*
Y127922D01*
X152064Y123272D02*
X153245D01*
X152655Y122682D02*
Y123863D01*
X144614Y123805D02*
X145401D01*
X145007Y123411D02*
Y124198D01*
X144614Y125535D02*
X145401D01*
X145007Y125141D02*
Y125929D01*
X160090Y174056D02*
X161271D01*
X160680Y173466D02*
Y174647D01*
X165538Y162557D02*
X166719D01*
X166128Y161966D02*
Y163147D01*
X163238Y162557D02*
X164419D01*
X163828Y161966D02*
Y163147D01*
X189192Y151216D02*
X189980D01*
X189586Y150822D02*
Y151610D01*
X205810Y145864D02*
X206597D01*
X206203Y145470D02*
Y146257D01*
X199038Y170457D02*
X200219D01*
X199628Y169866D02*
Y171047D01*
X193335Y115757D02*
X194122D01*
X193728Y115363D02*
Y116150D01*
X171735Y112357D02*
X172522D01*
X172128Y111963D02*
Y112750D01*
X159885Y129432D02*
X160672D01*
X160278Y129038D02*
Y129825D01*
X143035Y130357D02*
X143822D01*
X143428Y129963D02*
Y130750D01*
X193222Y79319D02*
X194009D01*
X193616Y78926D02*
Y79713D01*
X194922Y79319D02*
X195710D01*
X195316Y78926D02*
Y79713D01*
X148438Y79857D02*
X149619D01*
X149028Y79266D02*
Y80447D01*
X155935Y88057D02*
X156722D01*
X156328Y87663D02*
Y88450D01*
X164435Y83557D02*
X165222D01*
X164828Y83163D02*
Y83950D01*
X164435Y85457D02*
X165222D01*
X164828Y85063D02*
Y85850D01*
X164435Y87303D02*
X165222D01*
X164828Y86909D02*
Y87697D01*
X180335Y77357D02*
X181122D01*
X180728Y76963D02*
Y77750D01*
X180335Y78957D02*
X181122D01*
X180728Y78563D02*
Y79350D01*
X139438Y75857D02*
X140619D01*
X140028Y75266D02*
Y76447D01*
X194910Y83532D02*
X195697D01*
X195303Y83138D02*
Y83925D01*
X193210Y83532D02*
X193997D01*
X193603Y83138D02*
Y83925D01*
X160135Y146557D02*
X160922D01*
X160528Y146163D02*
Y146950D01*
X142935Y132657D02*
X143722D01*
X143328Y132263D02*
Y133050D01*
X140735Y132857D02*
X141522D01*
X141128Y132463D02*
Y133250D01*
X163417Y147939D02*
X164204D01*
X163811Y147545D02*
Y148333D01*
X160635Y149457D02*
X161422D01*
X161028Y149063D02*
Y149850D01*
X141235Y135557D02*
X142022D01*
X141628Y135163D02*
Y135950D01*
X208910Y145964D02*
X209697D01*
X209303Y145570D02*
Y146357D01*
X174357Y83257D02*
X175144D01*
X174751Y82863D02*
Y83650D01*
X197517Y34053D02*
X198698D01*
X198108Y33462D02*
Y34643D01*
X191610Y85432D02*
X192397D01*
X192003Y85038D02*
Y85825D01*
X189988Y86573D02*
X190776D01*
X190382Y86180D02*
Y86967D01*
X191610Y87712D02*
X192397D01*
X192003Y87319D02*
Y88106D01*
X203423Y47242D02*
X204210D01*
X203817Y46848D02*
Y47635D01*
X217891Y31690D02*
X219072D01*
X218482Y31100D02*
Y32281D01*
X212384Y62014D02*
X213565D01*
X212974Y61423D02*
Y62604D01*
X215113Y71332D02*
X216294D01*
X215703Y70741D02*
Y71922D01*
X212110Y145964D02*
X212897D01*
X212503Y145570D02*
Y146357D01*
X210510Y146864D02*
X211297D01*
X210903Y146470D02*
Y147257D01*
X207310Y146864D02*
X208097D01*
X207703Y146470D02*
Y147257D01*
X213694Y85642D02*
X214875D01*
X214284Y85051D02*
Y86233D01*
X174710Y99932D02*
X175497D01*
X175103Y99538D02*
Y100325D01*
X227745Y31567D02*
X228926D01*
X228336Y30977D02*
Y32158D01*
X138626Y32225D02*
X139807D01*
X139217Y31635D02*
Y32816D01*
X200019Y69815D02*
X201200D01*
X200610Y69224D02*
Y70405D01*
X177310Y102032D02*
X178097D01*
X177703Y101638D02*
Y102425D01*
X206613Y69432D02*
X207794D01*
X207203Y68841D02*
Y70022D01*
X162530Y44722D02*
X163711D01*
X163120Y44131D02*
Y45312D01*
X209204Y78910D02*
X210385D01*
X209794Y78320D02*
Y79501D01*
X175810Y93932D02*
X176597D01*
X176203Y93538D02*
Y94325D01*
X178710Y92032D02*
X179497D01*
X179103Y91638D02*
Y92425D01*
X180310Y95032D02*
X181097D01*
X180703Y94638D02*
Y95425D01*
X176910Y89832D02*
X177697D01*
X177303Y89438D02*
Y90225D01*
X172810Y93932D02*
X173597D01*
X173203Y93538D02*
Y94325D01*
X173110Y91032D02*
X173897D01*
X173503Y90638D02*
Y91425D01*
X170410Y96932D02*
X171197D01*
X170803Y96538D02*
Y97325D01*
X189988Y84293D02*
X190776D01*
X190382Y83899D02*
Y84686D01*
X189988Y88851D02*
X190776D01*
X190382Y88458D02*
Y89245D01*
X172210Y96932D02*
X172997D01*
X172603Y96538D02*
Y97325D01*
X174010Y96932D02*
X174797D01*
X174403Y96538D02*
Y97325D01*
X191310Y95432D02*
X192097D01*
X191703Y95038D02*
Y95825D01*
X190010Y100332D02*
X190797D01*
X190403Y99938D02*
Y100725D01*
X184210Y95432D02*
X184997D01*
X184603Y95038D02*
Y95825D01*
X182310Y91132D02*
X183097D01*
X182703Y90738D02*
Y91525D01*
X288568Y71454D02*
X292505D01*
X290537Y69486D02*
Y73423D01*
X246809Y47635D02*
X259407D01*
X253108Y41336D02*
Y53935D01*
X321612Y47635D02*
X334210D01*
X327911Y41336D02*
Y53935D01*
X293391Y67418D02*
X295556D01*
X294474Y66336D02*
Y68501D01*
X285517Y67418D02*
X287682D01*
X286600Y66336D02*
Y68501D01*
X248580Y162990D02*
X261179D01*
X254880Y156691D02*
Y169289D01*
X295603Y178811D02*
X296784D01*
X296193Y178221D02*
Y179402D01*
X290878Y178811D02*
X292059D01*
X291469Y178221D02*
Y179402D01*
X286154Y178811D02*
X287335D01*
X286744Y178221D02*
Y179402D01*
X283792Y178811D02*
X284973D01*
X284382Y178221D02*
Y179402D01*
X288516Y178811D02*
X289697D01*
X289106Y178221D02*
Y179402D01*
X293240Y178811D02*
X294422D01*
X293831Y178221D02*
Y179402D01*
X295504Y26744D02*
X296685D01*
X296095Y26154D02*
Y27335D01*
X290780Y26744D02*
X291961D01*
X291370Y26154D02*
Y27335D01*
X286055Y26744D02*
X287236D01*
X286646Y26154D02*
Y27335D01*
X283693Y26744D02*
X284874D01*
X284284Y26154D02*
Y27335D01*
X288418Y26744D02*
X289599D01*
X289008Y26154D02*
Y27335D01*
X293142Y26744D02*
X294323D01*
X293733Y26154D02*
Y27335D01*
X319446Y162990D02*
X332045D01*
X325746Y156691D02*
Y169289D01*
X239795Y137670D02*
X240977D01*
X240386Y137079D02*
Y138260D01*
X239795Y142394D02*
X240977D01*
X240386Y141803D02*
Y142984D01*
X239795Y147118D02*
X240977D01*
X240386Y146528D02*
Y147709D01*
X239795Y149480D02*
X240977D01*
X240386Y148890D02*
Y150071D01*
X239795Y144756D02*
X240977D01*
X240386Y144166D02*
Y145347D01*
X239795Y140032D02*
X240977D01*
X240386Y139441D02*
Y140622D01*
X340091Y137768D02*
X341272D01*
X340681Y137177D02*
Y138358D01*
X340091Y142492D02*
X341272D01*
X340681Y141902D02*
Y143083D01*
X340091Y147217D02*
X341272D01*
X340681Y146626D02*
Y147807D01*
X340091Y149579D02*
X341272D01*
X340681Y148988D02*
Y150169D01*
X340091Y144854D02*
X341272D01*
X340681Y144264D02*
Y145445D01*
X340091Y140130D02*
X341272D01*
X340681Y139540D02*
Y140721D01*
X239697Y66902D02*
X240878D01*
X240288Y66311D02*
Y67492D01*
X239697Y71626D02*
X240878D01*
X240288Y71036D02*
Y72217D01*
X239697Y76350D02*
X240878D01*
X240288Y75760D02*
Y76941D01*
X239697Y78713D02*
X240878D01*
X240288Y78122D02*
Y79303D01*
X239697Y73988D02*
X240878D01*
X240288Y73398D02*
Y74579D01*
X239697Y69264D02*
X240878D01*
X240288Y68673D02*
Y69854D01*
X340091Y66902D02*
X341272D01*
X340681Y66311D02*
Y67492D01*
X340091Y71626D02*
X341272D01*
X340681Y71036D02*
Y72217D01*
X340091Y76351D02*
X341272D01*
X340681Y75760D02*
Y76941D01*
X340091Y78713D02*
X341272D01*
X340681Y78122D02*
Y79303D01*
X340091Y73988D02*
X341272D01*
X340681Y73398D02*
Y74579D01*
X340091Y69264D02*
X341272D01*
X340681Y68673D02*
Y69854D01*
X333004Y126665D02*
X336547D01*
X334776Y124894D02*
Y128437D01*
X333004Y116665D02*
X336547D01*
X334776Y114894D02*
Y118437D01*
X333004Y106666D02*
X336547D01*
X334776Y104894D02*
Y108437D01*
X333004Y96666D02*
X336547D01*
X334776Y94894D02*
Y98437D01*
X281610Y132657D02*
X282791D01*
X282200Y132066D02*
Y133247D01*
X292806Y52657D02*
X293594D01*
X293200Y52263D02*
Y53050D01*
X285832Y123600D02*
X286619D01*
X286225Y123206D02*
Y123994D01*
X267788Y141120D02*
X268969D01*
X268379Y140530D02*
Y141711D01*
X281109Y172657D02*
X282291D01*
X281700Y172066D02*
Y173247D01*
X278710Y172657D02*
X279891D01*
X279300Y172066D02*
Y173247D01*
X301909Y33157D02*
X303091D01*
X302500Y32566D02*
Y33747D01*
X306631Y99832D02*
X307419D01*
X307025Y99438D02*
Y100225D01*
X304931Y83514D02*
X305719D01*
X305325Y83120D02*
Y83908D01*
X307381Y86395D02*
X308168D01*
X307775Y86001D02*
Y86789D01*
X286887Y47629D02*
X288068D01*
X287478Y47038D02*
Y48219D01*
X259176Y80368D02*
X260357D01*
X259767Y79777D02*
Y80958D01*
X270510Y144096D02*
X271691D01*
X271100Y143506D02*
Y144687D01*
X272868Y144096D02*
X274049D01*
X273458Y143506D02*
Y144687D01*
X284606Y113357D02*
X285394D01*
X285000Y112963D02*
Y113750D01*
X264659Y95357D02*
X265840D01*
X265249Y94766D02*
Y95947D01*
X313010Y132157D02*
X314191D01*
X313600Y131566D02*
Y132747D01*
X324226Y111743D02*
X325407D01*
X324816Y111153D02*
Y112334D01*
X309070Y131912D02*
X310251D01*
X309660Y131322D02*
Y132503D01*
X307993Y149870D02*
X309174D01*
X308583Y149279D02*
Y150461D01*
X309401Y118868D02*
X310583D01*
X309992Y118278D02*
Y119459D01*
X269895Y91964D02*
X271076D01*
X270485Y91373D02*
Y92554D01*
X269508Y73017D02*
X270689D01*
X270099Y72426D02*
Y73607D01*
X279400Y74710D02*
X280581D01*
X279991Y74119D02*
Y75300D01*
X267602Y170416D02*
X268783D01*
X268192Y169825D02*
Y171006D01*
X324092Y119830D02*
X325273D01*
X324682Y119239D02*
Y120421D01*
X324065Y127272D02*
X325246D01*
X324655Y126681D02*
Y127862D01*
X259309Y32086D02*
X260490D01*
X259900Y31495D02*
Y32676D01*
X277123Y48483D02*
X278304D01*
X277713Y47893D02*
Y49074D01*
X287969Y36075D02*
X289150D01*
X288560Y35484D02*
Y36665D01*
X284429Y36221D02*
X285610D01*
X285020Y35631D02*
Y36812D01*
X289639Y42459D02*
X290820D01*
X290229Y41869D02*
Y43050D01*
X298080Y47201D02*
X299262D01*
X298671Y46611D02*
Y47792D01*
X301073Y53252D02*
X302254D01*
X301663Y52661D02*
Y53843D01*
X298401Y53225D02*
X299582D01*
X298992Y52635D02*
Y53816D01*
X276975Y51838D02*
X278156D01*
X277565Y51247D02*
Y52428D01*
X285526Y51160D02*
X286707D01*
X286117Y50570D02*
Y51751D01*
X281728Y54852D02*
X282909D01*
X282318Y54261D02*
Y55443D01*
X285490Y54820D02*
X286671D01*
X286080Y54230D02*
Y55411D01*
X317688Y82749D02*
X318869D01*
X318279Y82158D02*
Y83340D01*
X325323Y94226D02*
X326504D01*
X325913Y93636D02*
Y94817D01*
X306610Y104170D02*
X307791D01*
X307200Y103579D02*
Y104760D01*
X307020Y108133D02*
X308201D01*
X307610Y107543D02*
Y108724D01*
X309087Y125899D02*
X310268D01*
X309677Y125309D02*
Y126490D01*
X305260Y134526D02*
X306441D01*
X305851Y133936D02*
Y135117D01*
X296022Y173212D02*
X297203D01*
X296612Y172621D02*
Y173802D01*
X311808Y174834D02*
X312989D01*
X312398Y174244D02*
Y175425D01*
X304319Y174852D02*
X305500D01*
X304909Y174262D02*
Y175443D01*
X243849Y136540D02*
X245030D01*
X244439Y135950D02*
Y137131D01*
X326482Y135155D02*
X327663D01*
X327073Y134564D02*
Y135746D01*
X331650Y135126D02*
X332831D01*
X332241Y134536D02*
Y135717D01*
X334506Y135155D02*
X335687D01*
X335096Y134564D02*
Y135746D01*
X331588Y74801D02*
X332769D01*
X332178Y74210D02*
Y75391D01*
X334893Y74714D02*
X336074D01*
X335484Y74123D02*
Y75304D01*
X243583Y75831D02*
X244764D01*
X244174Y75240D02*
Y76421D01*
X264728Y58102D02*
X265909D01*
X265318Y57511D02*
Y58693D01*
X255394Y62898D02*
X256575D01*
X255984Y62308D02*
Y63489D01*
X267309Y61008D02*
X268491D01*
X267900Y60417D02*
Y61598D01*
X252574Y94063D02*
X253755D01*
X253165Y93472D02*
Y94653D01*
X258124Y91008D02*
X259305D01*
X258715Y90417D02*
Y91598D01*
X258819Y127332D02*
X260000D01*
X259409Y126741D02*
Y127922D01*
X258836Y123272D02*
X260017D01*
X259426Y122682D02*
Y123863D01*
X251385Y123805D02*
X252173D01*
X251779Y123411D02*
Y124198D01*
X251385Y125535D02*
X252173D01*
X251779Y125141D02*
Y125929D01*
X266862Y174056D02*
X268043D01*
X267452Y173466D02*
Y174647D01*
X272309Y162557D02*
X273491D01*
X272900Y161966D02*
Y163147D01*
X270009Y162557D02*
X271191D01*
X270600Y161966D02*
Y163147D01*
X295964Y151216D02*
X296751D01*
X296358Y150822D02*
Y151610D01*
X312581Y145864D02*
X313369D01*
X312975Y145470D02*
Y146257D01*
X305809Y170457D02*
X306991D01*
X306400Y169866D02*
Y171047D01*
X300106Y115757D02*
X300894D01*
X300500Y115363D02*
Y116150D01*
X278506Y112357D02*
X279294D01*
X278900Y111963D02*
Y112750D01*
X266656Y129432D02*
X267444D01*
X267050Y129038D02*
Y129825D01*
X249806Y130357D02*
X250594D01*
X250200Y129963D02*
Y130750D01*
X299994Y79319D02*
X300781D01*
X300388Y78926D02*
Y79713D01*
X301694Y79319D02*
X302481D01*
X302087Y78926D02*
Y79713D01*
X255209Y79857D02*
X256391D01*
X255800Y79266D02*
Y80447D01*
X262706Y88057D02*
X263494D01*
X263100Y87663D02*
Y88450D01*
X271206Y83557D02*
X271994D01*
X271600Y83163D02*
Y83950D01*
X271206Y85457D02*
X271994D01*
X271600Y85063D02*
Y85850D01*
X271206Y87303D02*
X271994D01*
X271600Y86909D02*
Y87697D01*
X287106Y77357D02*
X287894D01*
X287500Y76963D02*
Y77750D01*
X287106Y78957D02*
X287894D01*
X287500Y78563D02*
Y79350D01*
X246210Y75857D02*
X247391D01*
X246800Y75266D02*
Y76447D01*
X301681Y83532D02*
X302469D01*
X302075Y83138D02*
Y83925D01*
X299981Y83532D02*
X300769D01*
X300375Y83138D02*
Y83925D01*
X266906Y146557D02*
X267694D01*
X267300Y146163D02*
Y146950D01*
X249706Y132657D02*
X250494D01*
X250100Y132263D02*
Y133050D01*
X247506Y132857D02*
X248294D01*
X247900Y132463D02*
Y133250D01*
X270188Y147939D02*
X270976D01*
X270582Y147545D02*
Y148333D01*
X267406Y149457D02*
X268194D01*
X267800Y149063D02*
Y149850D01*
X248006Y135557D02*
X248794D01*
X248400Y135163D02*
Y135950D01*
X315681Y145964D02*
X316469D01*
X316075Y145570D02*
Y146357D01*
X281129Y83257D02*
X281916D01*
X281522Y82863D02*
Y83650D01*
X304289Y34053D02*
X305470D01*
X304880Y33462D02*
Y34643D01*
X298381Y85432D02*
X299169D01*
X298775Y85038D02*
Y85825D01*
X296760Y86573D02*
X297548D01*
X297154Y86180D02*
Y86967D01*
X298381Y87712D02*
X299169D01*
X298775Y87319D02*
Y88106D01*
X310194Y47242D02*
X310982D01*
X310588Y46848D02*
Y47635D01*
X324663Y31690D02*
X325844D01*
X325254Y31100D02*
Y32281D01*
X319155Y62014D02*
X320336D01*
X319746Y61423D02*
Y62604D01*
X321884Y71332D02*
X323066D01*
X322475Y70741D02*
Y71922D01*
X318881Y145964D02*
X319669D01*
X319275Y145570D02*
Y146357D01*
X317281Y146864D02*
X318069D01*
X317675Y146470D02*
Y147257D01*
X314081Y146864D02*
X314869D01*
X314475Y146470D02*
Y147257D01*
X320466Y85642D02*
X321647D01*
X321056Y85051D02*
Y86233D01*
X281481Y99932D02*
X282269D01*
X281875Y99538D02*
Y100325D01*
X334517Y31567D02*
X335698D01*
X335107Y30977D02*
Y32158D01*
X245398Y32225D02*
X246579D01*
X245988Y31635D02*
Y32816D01*
X306791Y69815D02*
X307972D01*
X307381Y69224D02*
Y70405D01*
X284081Y102032D02*
X284869D01*
X284475Y101638D02*
Y102425D01*
X313385Y69432D02*
X314566D01*
X313975Y68841D02*
Y70022D01*
X269301Y44722D02*
X270482D01*
X269892Y44131D02*
Y45312D01*
X315975Y78910D02*
X317157D01*
X316566Y78320D02*
Y79501D01*
X282581Y93932D02*
X283369D01*
X282975Y93538D02*
Y94325D01*
X285481Y92032D02*
X286269D01*
X285875Y91638D02*
Y92425D01*
X287081Y95032D02*
X287869D01*
X287475Y94638D02*
Y95425D01*
X283681Y89832D02*
X284469D01*
X284075Y89438D02*
Y90225D01*
X279581Y93932D02*
X280369D01*
X279975Y93538D02*
Y94325D01*
X279881Y91032D02*
X280669D01*
X280275Y90638D02*
Y91425D01*
X277181Y96932D02*
X277969D01*
X277575Y96538D02*
Y97325D01*
X296760Y84293D02*
X297548D01*
X297154Y83899D02*
Y84686D01*
X296760Y88851D02*
X297548D01*
X297154Y88458D02*
Y89245D01*
X278981Y96932D02*
X279769D01*
X279375Y96538D02*
Y97325D01*
X280781Y96932D02*
X281569D01*
X281175Y96538D02*
Y97325D01*
X298081Y95432D02*
X298869D01*
X298475Y95038D02*
Y95825D01*
X296781Y100332D02*
X297569D01*
X297175Y99938D02*
Y100725D01*
X290981Y95432D02*
X291769D01*
X291375Y95038D02*
Y95825D01*
X289081Y91132D02*
X289869D01*
X289475Y90738D02*
Y91525D01*
X75025Y229958D02*
X78962D01*
X76993Y227990D02*
Y231927D01*
X33265Y206139D02*
X45864D01*
X39565Y199840D02*
Y212439D01*
X108069Y206139D02*
X120667D01*
X114368Y199840D02*
Y212439D01*
X79848Y225922D02*
X82013D01*
X80930Y224839D02*
Y227005D01*
X71974Y225922D02*
X74139D01*
X73056Y224839D02*
Y227005D01*
X35037Y321494D02*
X47635D01*
X41336Y315195D02*
Y327793D01*
X82059Y337315D02*
X83240D01*
X82650Y336725D02*
Y337906D01*
X77335Y337315D02*
X78516D01*
X77925Y336725D02*
Y337906D01*
X72610Y337315D02*
X73791D01*
X73201Y336725D02*
Y337906D01*
X70248Y337315D02*
X71429D01*
X70839Y336725D02*
Y337906D01*
X74973Y337315D02*
X76154D01*
X75563Y336725D02*
Y337906D01*
X79697Y337315D02*
X80878D01*
X80288Y336725D02*
Y337906D01*
X81961Y185248D02*
X83142D01*
X82551Y184658D02*
Y185839D01*
X77236Y185248D02*
X78417D01*
X77827Y184658D02*
Y185839D01*
X72512Y185248D02*
X73693D01*
X73103Y184658D02*
Y185839D01*
X70150Y185248D02*
X71331D01*
X70740Y184658D02*
Y185839D01*
X74874Y185248D02*
X76055D01*
X75465Y184658D02*
Y185839D01*
X79599Y185248D02*
X80780D01*
X80189Y184658D02*
Y185839D01*
X105903Y321494D02*
X118502D01*
X112202Y315195D02*
Y327793D01*
X26252Y296173D02*
X27433D01*
X26843Y295583D02*
Y296764D01*
X26252Y300898D02*
X27433D01*
X26843Y300307D02*
Y301488D01*
X26252Y305622D02*
X27433D01*
X26843Y305032D02*
Y306213D01*
X26252Y307984D02*
X27433D01*
X26843Y307394D02*
Y308575D01*
X26252Y303260D02*
X27433D01*
X26843Y302670D02*
Y303851D01*
X26252Y298536D02*
X27433D01*
X26843Y297945D02*
Y299126D01*
X126547Y296272D02*
X127728D01*
X127138Y295681D02*
Y296862D01*
X126547Y300996D02*
X127728D01*
X127138Y300406D02*
Y301587D01*
X126547Y305721D02*
X127728D01*
X127138Y305130D02*
Y306311D01*
X126547Y308083D02*
X127728D01*
X127138Y307492D02*
Y308673D01*
X126547Y303358D02*
X127728D01*
X127138Y302768D02*
Y303949D01*
X126547Y298634D02*
X127728D01*
X127138Y298043D02*
Y299225D01*
X26154Y225406D02*
X27335D01*
X26744Y224815D02*
Y225996D01*
X26154Y230130D02*
X27335D01*
X26744Y229539D02*
Y230721D01*
X26154Y234855D02*
X27335D01*
X26744Y234264D02*
Y235445D01*
X26154Y237217D02*
X27335D01*
X26744Y236626D02*
Y237807D01*
X26154Y232492D02*
X27335D01*
X26744Y231902D02*
Y233083D01*
X26154Y227768D02*
X27335D01*
X26744Y227177D02*
Y228358D01*
X126547Y225406D02*
X127728D01*
X127138Y224815D02*
Y225996D01*
X126547Y230130D02*
X127728D01*
X127138Y229540D02*
Y230721D01*
X126547Y234855D02*
X127728D01*
X127138Y234264D02*
Y235445D01*
X126547Y237217D02*
X127728D01*
X127138Y236626D02*
Y237807D01*
X126547Y232492D02*
X127728D01*
X127138Y231902D02*
Y233083D01*
X126547Y227768D02*
X127728D01*
X127138Y227177D02*
Y228358D01*
X119461Y285170D02*
X123004D01*
X121232Y283398D02*
Y286941D01*
X119461Y275169D02*
X123004D01*
X121232Y273398D02*
Y276941D01*
X119461Y265170D02*
X123004D01*
X121232Y263398D02*
Y266941D01*
X119461Y255170D02*
X123004D01*
X121232Y253398D02*
Y256941D01*
X68066Y291161D02*
X69247D01*
X68657Y290570D02*
Y291751D01*
X79263Y211161D02*
X80050D01*
X79657Y210767D02*
Y211554D01*
X72288Y282104D02*
X73076D01*
X72682Y281711D02*
Y282498D01*
X54245Y299624D02*
X55426D01*
X54835Y299034D02*
Y300215D01*
X67566Y331161D02*
X68747D01*
X68157Y330570D02*
Y331751D01*
X65166Y331161D02*
X66347D01*
X65757Y330570D02*
Y331751D01*
X88366Y191661D02*
X89547D01*
X88957Y191070D02*
Y192251D01*
X93088Y258336D02*
X93875D01*
X93482Y257942D02*
Y258729D01*
X91388Y242018D02*
X92175D01*
X91782Y241624D02*
Y242411D01*
X93837Y244899D02*
X94625D01*
X94231Y244505D02*
Y245293D01*
X73344Y206133D02*
X74525D01*
X73934Y205542D02*
Y206723D01*
X45633Y238872D02*
X46814D01*
X46223Y238281D02*
Y239462D01*
X56966Y302600D02*
X58147D01*
X57557Y302010D02*
Y303191D01*
X59325Y302600D02*
X60506D01*
X59915Y302010D02*
Y303191D01*
X71063Y271861D02*
X71850D01*
X71457Y271467D02*
Y272254D01*
X51115Y253861D02*
X52297D01*
X51706Y253270D02*
Y254451D01*
X99466Y290661D02*
X100647D01*
X100057Y290070D02*
Y291251D01*
X110683Y270247D02*
X111864D01*
X111273Y269657D02*
Y270838D01*
X95526Y290416D02*
X96707D01*
X96117Y289826D02*
Y291007D01*
X94449Y308374D02*
X95630D01*
X95040Y307784D02*
Y308965D01*
X95858Y277372D02*
X97039D01*
X96449Y276782D02*
Y277963D01*
X56351Y250468D02*
X57532D01*
X56942Y249877D02*
Y251058D01*
X55965Y231521D02*
X57146D01*
X56555Y230930D02*
Y232111D01*
X65857Y233214D02*
X67038D01*
X66447Y232623D02*
Y233804D01*
X54058Y328920D02*
X55239D01*
X54649Y328329D02*
Y329510D01*
X110548Y278334D02*
X111729D01*
X111139Y277743D02*
Y278924D01*
X110521Y285776D02*
X111703D01*
X111112Y285185D02*
Y286366D01*
X45766Y190590D02*
X46947D01*
X46356Y189999D02*
Y191180D01*
X63580Y206987D02*
X64761D01*
X64170Y206397D02*
Y207578D01*
X74426Y194578D02*
X75607D01*
X75016Y193988D02*
Y195169D01*
X70886Y194725D02*
X72067D01*
X71477Y194135D02*
Y195316D01*
X76095Y200963D02*
X77276D01*
X76686Y200373D02*
Y201554D01*
X84537Y205705D02*
X85718D01*
X85128Y205115D02*
Y206296D01*
X87529Y211756D02*
X88710D01*
X88120Y211165D02*
Y212346D01*
X84858Y211729D02*
X86039D01*
X85448Y211139D02*
Y212320D01*
X63431Y210342D02*
X64612D01*
X64022Y209751D02*
Y210932D01*
X71983Y209664D02*
X73164D01*
X72574Y209073D02*
Y210255D01*
X68185Y213356D02*
X69366D01*
X68775Y212765D02*
Y213946D01*
X71946Y213324D02*
X73128D01*
X72537Y212734D02*
Y213915D01*
X104145Y241253D02*
X105326D01*
X104735Y240662D02*
Y241843D01*
X111779Y252730D02*
X112961D01*
X112370Y252140D02*
Y253321D01*
X93066Y262674D02*
X94248D01*
X93657Y262083D02*
Y263264D01*
X93476Y266637D02*
X94657D01*
X94067Y266046D02*
Y267228D01*
X95543Y284403D02*
X96724D01*
X96134Y283813D02*
Y284994D01*
X91717Y293030D02*
X92898D01*
X92307Y292440D02*
Y293621D01*
X82478Y331716D02*
X83659D01*
X83069Y331125D02*
Y332306D01*
X98264Y333338D02*
X99445D01*
X98855Y332748D02*
Y333929D01*
X90775Y333356D02*
X91956D01*
X91366Y332766D02*
Y333947D01*
X30305Y295044D02*
X31486D01*
X30896Y294454D02*
Y295635D01*
X112939Y293659D02*
X114120D01*
X113530Y293068D02*
Y294250D01*
X118107Y293630D02*
X119288D01*
X118698Y293040D02*
Y294221D01*
X120962Y293659D02*
X122143D01*
X121553Y293068D02*
Y294250D01*
X118044Y233305D02*
X119226D01*
X118635Y232714D02*
Y233895D01*
X121350Y233218D02*
X122531D01*
X121941Y232627D02*
Y233808D01*
X30040Y234334D02*
X31221D01*
X30631Y233744D02*
Y234925D01*
X51184Y216606D02*
X52365D01*
X51775Y216015D02*
Y217196D01*
X41850Y221403D02*
X43031D01*
X42441Y220812D02*
Y221993D01*
X53766Y219512D02*
X54947D01*
X54357Y218921D02*
Y220102D01*
X39031Y252567D02*
X40212D01*
X39622Y251976D02*
Y253157D01*
X44581Y249512D02*
X45762D01*
X45171Y248921D02*
Y250102D01*
X45275Y285836D02*
X46457D01*
X45866Y285245D02*
Y286426D01*
X45293Y281776D02*
X46474D01*
X45883Y281186D02*
Y282367D01*
X37842Y282309D02*
X38629D01*
X38236Y281915D02*
Y282702D01*
X37842Y284039D02*
X38629D01*
X38236Y283645D02*
Y284433D01*
X53318Y332560D02*
X54499D01*
X53909Y331970D02*
Y333151D01*
X58766Y321061D02*
X59947D01*
X59357Y320470D02*
Y321651D01*
X56466Y321061D02*
X57647D01*
X57057Y320470D02*
Y321651D01*
X82421Y309720D02*
X83208D01*
X82814Y309326D02*
Y310114D01*
X99038Y304368D02*
X99825D01*
X99432Y303974D02*
Y304761D01*
X92266Y328961D02*
X93447D01*
X92857Y328370D02*
Y329551D01*
X86563Y274261D02*
X87350D01*
X86957Y273867D02*
Y274654D01*
X64963Y270861D02*
X65750D01*
X65357Y270467D02*
Y271254D01*
X53113Y287936D02*
X53900D01*
X53507Y287542D02*
Y288329D01*
X36263Y288861D02*
X37050D01*
X36657Y288467D02*
Y289254D01*
X86450Y237823D02*
X87238D01*
X86844Y237429D02*
Y238217D01*
X88151Y237823D02*
X88938D01*
X88544Y237429D02*
Y238217D01*
X41666Y238361D02*
X42847D01*
X42257Y237770D02*
Y238951D01*
X49163Y246561D02*
X49950D01*
X49557Y246167D02*
Y246954D01*
X57663Y242061D02*
X58450D01*
X58057Y241667D02*
Y242454D01*
X57663Y243961D02*
X58450D01*
X58057Y243567D02*
Y244354D01*
X57663Y245807D02*
X58450D01*
X58057Y245413D02*
Y246201D01*
X73563Y235861D02*
X74350D01*
X73957Y235467D02*
Y236254D01*
X73563Y237461D02*
X74350D01*
X73957Y237067D02*
Y237854D01*
X32666Y234361D02*
X33847D01*
X33257Y233770D02*
Y234951D01*
X88138Y242036D02*
X88925D01*
X88532Y241642D02*
Y242429D01*
X86438Y242036D02*
X87225D01*
X86832Y241642D02*
Y242429D01*
X53363Y305061D02*
X54150D01*
X53757Y304667D02*
Y305454D01*
X36163Y291161D02*
X36950D01*
X36557Y290767D02*
Y291554D01*
X33963Y291361D02*
X34750D01*
X34357Y290967D02*
Y291754D01*
X56645Y306443D02*
X57433D01*
X57039Y306049D02*
Y306837D01*
X53863Y307961D02*
X54650D01*
X54257Y307567D02*
Y308354D01*
X34463Y294061D02*
X35250D01*
X34857Y293667D02*
Y294454D01*
X102138Y304468D02*
X102925D01*
X102532Y304074D02*
Y304861D01*
X67585Y241761D02*
X68373D01*
X67979Y241367D02*
Y242154D01*
X90746Y192557D02*
X91927D01*
X91336Y191966D02*
Y193147D01*
X84838Y243936D02*
X85625D01*
X85232Y243542D02*
Y244329D01*
X83217Y245077D02*
X84004D01*
X83610Y244684D02*
Y245471D01*
X84838Y246216D02*
X85625D01*
X85232Y245823D02*
Y246610D01*
X96651Y205746D02*
X97439D01*
X97045Y205352D02*
Y206139D01*
X111120Y190194D02*
X112301D01*
X111710Y189604D02*
Y190785D01*
X105612Y220518D02*
X106793D01*
X106202Y219927D02*
Y221108D01*
X108341Y229836D02*
X109522D01*
X108932Y229245D02*
Y230426D01*
X105338Y304468D02*
X106125D01*
X105732Y304074D02*
Y304861D01*
X103738Y305368D02*
X104525D01*
X104132Y304974D02*
Y305761D01*
X100538Y305368D02*
X101325D01*
X100932Y304974D02*
Y305761D01*
X106922Y244146D02*
X108103D01*
X107513Y243555D02*
Y244736D01*
X67938Y258436D02*
X68725D01*
X68332Y258042D02*
Y258829D01*
X120973Y190071D02*
X122154D01*
X121564Y189481D02*
Y190662D01*
X31855Y190729D02*
X33036D01*
X32445Y190138D02*
Y191320D01*
X93247Y228319D02*
X94428D01*
X93838Y227728D02*
Y228909D01*
X70538Y260536D02*
X71325D01*
X70932Y260142D02*
Y260929D01*
X99841Y227936D02*
X101022D01*
X100432Y227345D02*
Y228526D01*
X55758Y203226D02*
X56939D01*
X56349Y202635D02*
Y203816D01*
X102432Y237414D02*
X103613D01*
X103023Y236824D02*
Y238005D01*
X69038Y252436D02*
X69825D01*
X69432Y252042D02*
Y252829D01*
X71938Y250536D02*
X72725D01*
X72332Y250142D02*
Y250929D01*
X73538Y253536D02*
X74325D01*
X73932Y253142D02*
Y253929D01*
X70138Y248336D02*
X70925D01*
X70532Y247942D02*
Y248729D01*
X66038Y252436D02*
X66825D01*
X66432Y252042D02*
Y252829D01*
X66338Y249536D02*
X67125D01*
X66732Y249142D02*
Y249929D01*
X63638Y255436D02*
X64425D01*
X64032Y255042D02*
Y255829D01*
X83217Y242797D02*
X84004D01*
X83610Y242403D02*
Y243190D01*
X83217Y247355D02*
X84004D01*
X83610Y246962D02*
Y247749D01*
X65438Y255436D02*
X66225D01*
X65832Y255042D02*
Y255829D01*
X67238Y255436D02*
X68025D01*
X67632Y255042D02*
Y255829D01*
X84538Y253936D02*
X85325D01*
X84932Y253542D02*
Y254329D01*
X83238Y258836D02*
X84025D01*
X83632Y258442D02*
Y259229D01*
X77438Y253936D02*
X78225D01*
X77832Y253542D02*
Y254329D01*
X75538Y249636D02*
X76325D01*
X75932Y249242D02*
Y250029D01*
X181797Y229958D02*
X185733D01*
X183765Y227990D02*
Y231927D01*
X140037Y206139D02*
X152635D01*
X146336Y199840D02*
Y212439D01*
X214840Y206139D02*
X227439D01*
X221139Y199840D02*
Y212439D01*
X186619Y225922D02*
X188785D01*
X187702Y224839D02*
Y227005D01*
X178745Y225922D02*
X180911D01*
X179828Y224839D02*
Y227005D01*
X141809Y321494D02*
X154407D01*
X148108Y315195D02*
Y327793D01*
X188831Y337315D02*
X190012D01*
X189421Y336725D02*
Y337906D01*
X184107Y337315D02*
X185288D01*
X184697Y336725D02*
Y337906D01*
X179382Y337315D02*
X180563D01*
X179973Y336725D02*
Y337906D01*
X177020Y337315D02*
X178201D01*
X177610Y336725D02*
Y337906D01*
X181744Y337315D02*
X182925D01*
X182335Y336725D02*
Y337906D01*
X186469Y337315D02*
X187650D01*
X187059Y336725D02*
Y337906D01*
X188733Y185248D02*
X189914D01*
X189323Y184658D02*
Y185839D01*
X184008Y185248D02*
X185189D01*
X184599Y184658D02*
Y185839D01*
X179284Y185248D02*
X180465D01*
X179874Y184658D02*
Y185839D01*
X176921Y185248D02*
X178103D01*
X177512Y184658D02*
Y185839D01*
X181646Y185248D02*
X182827D01*
X182236Y184658D02*
Y185839D01*
X186370Y185248D02*
X187551D01*
X186961Y184658D02*
Y185839D01*
X212675Y321494D02*
X225273D01*
X218974Y315195D02*
Y327793D01*
X133024Y296173D02*
X134205D01*
X133614Y295583D02*
Y296764D01*
X133024Y300898D02*
X134205D01*
X133614Y300307D02*
Y301488D01*
X133024Y305622D02*
X134205D01*
X133614Y305032D02*
Y306213D01*
X133024Y307984D02*
X134205D01*
X133614Y307394D02*
Y308575D01*
X133024Y303260D02*
X134205D01*
X133614Y302670D02*
Y303851D01*
X133024Y298536D02*
X134205D01*
X133614Y297945D02*
Y299126D01*
X233319Y296272D02*
X234500D01*
X233910Y295681D02*
Y296862D01*
X233319Y300996D02*
X234500D01*
X233910Y300406D02*
Y301587D01*
X233319Y305721D02*
X234500D01*
X233910Y305130D02*
Y306311D01*
X233319Y308083D02*
X234500D01*
X233910Y307492D02*
Y308673D01*
X233319Y303358D02*
X234500D01*
X233910Y302768D02*
Y303949D01*
X233319Y298634D02*
X234500D01*
X233910Y298043D02*
Y299225D01*
X132925Y225406D02*
X134107D01*
X133516Y224815D02*
Y225996D01*
X132925Y230130D02*
X134107D01*
X133516Y229539D02*
Y230721D01*
X132925Y234855D02*
X134107D01*
X133516Y234264D02*
Y235445D01*
X132925Y237217D02*
X134107D01*
X133516Y236626D02*
Y237807D01*
X132925Y232492D02*
X134107D01*
X133516Y231902D02*
Y233083D01*
X132925Y227768D02*
X134107D01*
X133516Y227177D02*
Y228358D01*
X233319Y225406D02*
X234500D01*
X233910Y224815D02*
Y225996D01*
X233319Y230130D02*
X234500D01*
X233910Y229540D02*
Y230721D01*
X233319Y234855D02*
X234500D01*
X233910Y234264D02*
Y235445D01*
X233319Y237217D02*
X234500D01*
X233910Y236626D02*
Y237807D01*
X233319Y232492D02*
X234500D01*
X233910Y231902D02*
Y233083D01*
X233319Y227768D02*
X234500D01*
X233910Y227177D02*
Y228358D01*
X226233Y285170D02*
X229776D01*
X228004Y283398D02*
Y286941D01*
X226233Y275169D02*
X229776D01*
X228004Y273398D02*
Y276941D01*
X226233Y265170D02*
X229776D01*
X228004Y263398D02*
Y266941D01*
X226233Y255170D02*
X229776D01*
X228004Y253398D02*
Y256941D01*
X174838Y291161D02*
X176019D01*
X175428Y290570D02*
Y291751D01*
X186035Y211161D02*
X186822D01*
X186428Y210767D02*
Y211554D01*
X179060Y282104D02*
X179847D01*
X179454Y281711D02*
Y282498D01*
X161016Y299624D02*
X162198D01*
X161607Y299034D02*
Y300215D01*
X174338Y331161D02*
X175519D01*
X174928Y330570D02*
Y331751D01*
X171938Y331161D02*
X173119D01*
X172528Y330570D02*
Y331751D01*
X195138Y191661D02*
X196319D01*
X195728Y191070D02*
Y192251D01*
X199860Y258336D02*
X200647D01*
X200253Y257942D02*
Y258729D01*
X198160Y242018D02*
X198947D01*
X198553Y241624D02*
Y242411D01*
X200609Y244899D02*
X201397D01*
X201003Y244505D02*
Y245293D01*
X180115Y206133D02*
X181297D01*
X180706Y205542D02*
Y206723D01*
X152404Y238872D02*
X153586D01*
X152995Y238281D02*
Y239462D01*
X163738Y302600D02*
X164919D01*
X164328Y302010D02*
Y303191D01*
X166096Y302600D02*
X167277D01*
X166687Y302010D02*
Y303191D01*
X177835Y271861D02*
X178622D01*
X178228Y271467D02*
Y272254D01*
X157887Y253861D02*
X159068D01*
X158478Y253270D02*
Y254451D01*
X206238Y290661D02*
X207419D01*
X206828Y290070D02*
Y291251D01*
X217454Y270247D02*
X218635D01*
X218045Y269657D02*
Y270838D01*
X202298Y290416D02*
X203479D01*
X202889Y289826D02*
Y291007D01*
X201221Y308374D02*
X202402D01*
X201812Y307784D02*
Y308965D01*
X202630Y277372D02*
X203811D01*
X203220Y276782D02*
Y277963D01*
X163123Y250468D02*
X164304D01*
X163713Y249877D02*
Y251058D01*
X162736Y231521D02*
X163918D01*
X163327Y230930D02*
Y232111D01*
X172628Y233214D02*
X173810D01*
X173219Y232623D02*
Y233804D01*
X160830Y328920D02*
X162011D01*
X161421Y328329D02*
Y329510D01*
X217320Y278334D02*
X218501D01*
X217911Y277743D02*
Y278924D01*
X217293Y285776D02*
X218474D01*
X217884Y285185D02*
Y286366D01*
X152538Y190590D02*
X153719D01*
X153128Y189999D02*
Y191180D01*
X170351Y206987D02*
X171532D01*
X170942Y206397D02*
Y207578D01*
X181197Y194578D02*
X182378D01*
X181788Y193988D02*
Y195169D01*
X177658Y194725D02*
X178839D01*
X178248Y194135D02*
Y195316D01*
X182867Y200963D02*
X184048D01*
X183458Y200373D02*
Y201554D01*
X191309Y205705D02*
X192490D01*
X191899Y205115D02*
Y206296D01*
X194301Y211756D02*
X195482D01*
X194891Y211165D02*
Y212346D01*
X191629Y211729D02*
X192810D01*
X192220Y211139D02*
Y212320D01*
X170203Y210342D02*
X171384D01*
X170793Y209751D02*
Y210932D01*
X178755Y209664D02*
X179936D01*
X179345Y209073D02*
Y210255D01*
X174956Y213356D02*
X176137D01*
X175547Y212765D02*
Y213946D01*
X178718Y213324D02*
X179899D01*
X179309Y212734D02*
Y213915D01*
X210916Y241253D02*
X212097D01*
X211507Y240662D02*
Y241843D01*
X218551Y252730D02*
X219732D01*
X219142Y252140D02*
Y253321D01*
X199838Y262674D02*
X201019D01*
X200429Y262083D02*
Y263264D01*
X200248Y266637D02*
X201429D01*
X200839Y266046D02*
Y267228D01*
X202315Y284403D02*
X203496D01*
X202906Y283813D02*
Y284994D01*
X198488Y293030D02*
X199670D01*
X199079Y292440D02*
Y293621D01*
X189250Y331716D02*
X190431D01*
X189840Y331125D02*
Y332306D01*
X205036Y333338D02*
X206217D01*
X205627Y332748D02*
Y333929D01*
X197547Y333356D02*
X198728D01*
X198137Y332766D02*
Y333947D01*
X137077Y295044D02*
X138258D01*
X137668Y294454D02*
Y295635D01*
X219711Y293659D02*
X220892D01*
X220301Y293068D02*
Y294250D01*
X224879Y293630D02*
X226060D01*
X225469Y293040D02*
Y294221D01*
X227734Y293659D02*
X228915D01*
X228325Y293068D02*
Y294250D01*
X224816Y233305D02*
X225997D01*
X225407Y232714D02*
Y233895D01*
X228122Y233218D02*
X229303D01*
X228712Y232627D02*
Y233808D01*
X136812Y234334D02*
X137993D01*
X137402Y233744D02*
Y234925D01*
X157956Y216606D02*
X159137D01*
X158547Y216015D02*
Y217196D01*
X148622Y221403D02*
X149803D01*
X149213Y220812D02*
Y221993D01*
X160538Y219512D02*
X161719D01*
X161128Y218921D02*
Y220102D01*
X145803Y252567D02*
X146984D01*
X146393Y251976D02*
Y253157D01*
X151352Y249512D02*
X152533D01*
X151943Y248921D02*
Y250102D01*
X152047Y285836D02*
X153228D01*
X152638Y285245D02*
Y286426D01*
X152064Y281776D02*
X153245D01*
X152655Y281186D02*
Y282367D01*
X144614Y282309D02*
X145401D01*
X145007Y281915D02*
Y282702D01*
X144614Y284039D02*
X145401D01*
X145007Y283645D02*
Y284433D01*
X160090Y332560D02*
X161271D01*
X160680Y331970D02*
Y333151D01*
X165538Y321061D02*
X166719D01*
X166128Y320470D02*
Y321651D01*
X163238Y321061D02*
X164419D01*
X163828Y320470D02*
Y321651D01*
X189192Y309720D02*
X189980D01*
X189586Y309326D02*
Y310114D01*
X205810Y304368D02*
X206597D01*
X206203Y303974D02*
Y304761D01*
X199038Y328961D02*
X200219D01*
X199628Y328370D02*
Y329551D01*
X193335Y274261D02*
X194122D01*
X193728Y273867D02*
Y274654D01*
X171735Y270861D02*
X172522D01*
X172128Y270467D02*
Y271254D01*
X159885Y287936D02*
X160672D01*
X160278Y287542D02*
Y288329D01*
X143035Y288861D02*
X143822D01*
X143428Y288467D02*
Y289254D01*
X193222Y237823D02*
X194009D01*
X193616Y237429D02*
Y238217D01*
X194922Y237823D02*
X195710D01*
X195316Y237429D02*
Y238217D01*
X148438Y238361D02*
X149619D01*
X149028Y237770D02*
Y238951D01*
X155935Y246561D02*
X156722D01*
X156328Y246167D02*
Y246954D01*
X164435Y242061D02*
X165222D01*
X164828Y241667D02*
Y242454D01*
X164435Y243961D02*
X165222D01*
X164828Y243567D02*
Y244354D01*
X164435Y245807D02*
X165222D01*
X164828Y245413D02*
Y246201D01*
X180335Y235861D02*
X181122D01*
X180728Y235467D02*
Y236254D01*
X180335Y237461D02*
X181122D01*
X180728Y237067D02*
Y237854D01*
X139438Y234361D02*
X140619D01*
X140028Y233770D02*
Y234951D01*
X194910Y242036D02*
X195697D01*
X195303Y241642D02*
Y242429D01*
X193210Y242036D02*
X193997D01*
X193603Y241642D02*
Y242429D01*
X160135Y305061D02*
X160922D01*
X160528Y304667D02*
Y305454D01*
X142935Y291161D02*
X143722D01*
X143328Y290767D02*
Y291554D01*
X140735Y291361D02*
X141522D01*
X141128Y290967D02*
Y291754D01*
X163417Y306443D02*
X164204D01*
X163811Y306049D02*
Y306837D01*
X160635Y307961D02*
X161422D01*
X161028Y307567D02*
Y308354D01*
X141235Y294061D02*
X142022D01*
X141628Y293667D02*
Y294454D01*
X208910Y304468D02*
X209697D01*
X209303Y304074D02*
Y304861D01*
X174357Y241761D02*
X175144D01*
X174751Y241367D02*
Y242154D01*
X197517Y192557D02*
X198698D01*
X198108Y191966D02*
Y193147D01*
X191610Y243936D02*
X192397D01*
X192003Y243542D02*
Y244329D01*
X189988Y245077D02*
X190776D01*
X190382Y244684D02*
Y245471D01*
X191610Y246216D02*
X192397D01*
X192003Y245823D02*
Y246610D01*
X203423Y205746D02*
X204210D01*
X203817Y205352D02*
Y206139D01*
X217891Y190194D02*
X219072D01*
X218482Y189604D02*
Y190785D01*
X212384Y220518D02*
X213565D01*
X212974Y219927D02*
Y221108D01*
X215113Y229836D02*
X216294D01*
X215703Y229245D02*
Y230426D01*
X212110Y304468D02*
X212897D01*
X212503Y304074D02*
Y304861D01*
X210510Y305368D02*
X211297D01*
X210903Y304974D02*
Y305761D01*
X207310Y305368D02*
X208097D01*
X207703Y304974D02*
Y305761D01*
X213694Y244146D02*
X214875D01*
X214284Y243555D02*
Y244736D01*
X174710Y258436D02*
X175497D01*
X175103Y258042D02*
Y258829D01*
X227745Y190071D02*
X228926D01*
X228336Y189481D02*
Y190662D01*
X138626Y190729D02*
X139807D01*
X139217Y190138D02*
Y191320D01*
X200019Y228319D02*
X201200D01*
X200610Y227728D02*
Y228909D01*
X177310Y260536D02*
X178097D01*
X177703Y260142D02*
Y260929D01*
X206613Y227936D02*
X207794D01*
X207203Y227345D02*
Y228526D01*
X162530Y203226D02*
X163711D01*
X163120Y202635D02*
Y203816D01*
X209204Y237414D02*
X210385D01*
X209794Y236824D02*
Y238005D01*
X175810Y252436D02*
X176597D01*
X176203Y252042D02*
Y252829D01*
X178710Y250536D02*
X179497D01*
X179103Y250142D02*
Y250929D01*
X180310Y253536D02*
X181097D01*
X180703Y253142D02*
Y253929D01*
X176910Y248336D02*
X177697D01*
X177303Y247942D02*
Y248729D01*
X172810Y252436D02*
X173597D01*
X173203Y252042D02*
Y252829D01*
X173110Y249536D02*
X173897D01*
X173503Y249142D02*
Y249929D01*
X170410Y255436D02*
X171197D01*
X170803Y255042D02*
Y255829D01*
X189988Y242797D02*
X190776D01*
X190382Y242403D02*
Y243190D01*
X189988Y247355D02*
X190776D01*
X190382Y246962D02*
Y247749D01*
X172210Y255436D02*
X172997D01*
X172603Y255042D02*
Y255829D01*
X174010Y255436D02*
X174797D01*
X174403Y255042D02*
Y255829D01*
X191310Y253936D02*
X192097D01*
X191703Y253542D02*
Y254329D01*
X190010Y258836D02*
X190797D01*
X190403Y258442D02*
Y259229D01*
X184210Y253936D02*
X184997D01*
X184603Y253542D02*
Y254329D01*
X182310Y249636D02*
X183097D01*
X182703Y249242D02*
Y250029D01*
X288568Y229958D02*
X292505D01*
X290537Y227990D02*
Y231927D01*
X246809Y206139D02*
X259407D01*
X253108Y199840D02*
Y212439D01*
X321612Y206139D02*
X334210D01*
X327911Y199840D02*
Y212439D01*
X293391Y225922D02*
X295556D01*
X294474Y224839D02*
Y227005D01*
X285517Y225922D02*
X287682D01*
X286600Y224839D02*
Y227005D01*
X248580Y321494D02*
X261179D01*
X254880Y315195D02*
Y327793D01*
X295603Y337315D02*
X296784D01*
X296193Y336725D02*
Y337906D01*
X290878Y337315D02*
X292059D01*
X291469Y336725D02*
Y337906D01*
X286154Y337315D02*
X287335D01*
X286744Y336725D02*
Y337906D01*
X283792Y337315D02*
X284973D01*
X284382Y336725D02*
Y337906D01*
X288516Y337315D02*
X289697D01*
X289106Y336725D02*
Y337906D01*
X293240Y337315D02*
X294422D01*
X293831Y336725D02*
Y337906D01*
X295504Y185248D02*
X296685D01*
X296095Y184658D02*
Y185839D01*
X290780Y185248D02*
X291961D01*
X291370Y184658D02*
Y185839D01*
X286055Y185248D02*
X287236D01*
X286646Y184658D02*
Y185839D01*
X283693Y185248D02*
X284874D01*
X284284Y184658D02*
Y185839D01*
X288418Y185248D02*
X289599D01*
X289008Y184658D02*
Y185839D01*
X293142Y185248D02*
X294323D01*
X293733Y184658D02*
Y185839D01*
X319446Y321494D02*
X332045D01*
X325746Y315195D02*
Y327793D01*
X239795Y296173D02*
X240977D01*
X240386Y295583D02*
Y296764D01*
X239795Y300898D02*
X240977D01*
X240386Y300307D02*
Y301488D01*
X239795Y305622D02*
X240977D01*
X240386Y305032D02*
Y306213D01*
X239795Y307984D02*
X240977D01*
X240386Y307394D02*
Y308575D01*
X239795Y303260D02*
X240977D01*
X240386Y302670D02*
Y303851D01*
X239795Y298536D02*
X240977D01*
X240386Y297945D02*
Y299126D01*
X340091Y296272D02*
X341272D01*
X340681Y295681D02*
Y296862D01*
X340091Y300996D02*
X341272D01*
X340681Y300406D02*
Y301587D01*
X340091Y305721D02*
X341272D01*
X340681Y305130D02*
Y306311D01*
X340091Y308083D02*
X341272D01*
X340681Y307492D02*
Y308673D01*
X340091Y303358D02*
X341272D01*
X340681Y302768D02*
Y303949D01*
X340091Y298634D02*
X341272D01*
X340681Y298043D02*
Y299225D01*
X239697Y225406D02*
X240878D01*
X240288Y224815D02*
Y225996D01*
X239697Y230130D02*
X240878D01*
X240288Y229539D02*
Y230721D01*
X239697Y234855D02*
X240878D01*
X240288Y234264D02*
Y235445D01*
X239697Y237217D02*
X240878D01*
X240288Y236626D02*
Y237807D01*
X239697Y232492D02*
X240878D01*
X240288Y231902D02*
Y233083D01*
X239697Y227768D02*
X240878D01*
X240288Y227177D02*
Y228358D01*
X340091Y225406D02*
X341272D01*
X340681Y224815D02*
Y225996D01*
X340091Y230130D02*
X341272D01*
X340681Y229540D02*
Y230721D01*
X340091Y234855D02*
X341272D01*
X340681Y234264D02*
Y235445D01*
X340091Y237217D02*
X341272D01*
X340681Y236626D02*
Y237807D01*
X340091Y232492D02*
X341272D01*
X340681Y231902D02*
Y233083D01*
X340091Y227768D02*
X341272D01*
X340681Y227177D02*
Y228358D01*
X333004Y285170D02*
X336547D01*
X334776Y283398D02*
Y286941D01*
X333004Y275169D02*
X336547D01*
X334776Y273398D02*
Y276941D01*
X333004Y265170D02*
X336547D01*
X334776Y263398D02*
Y266941D01*
X333004Y255170D02*
X336547D01*
X334776Y253398D02*
Y256941D01*
X281610Y291161D02*
X282791D01*
X282200Y290570D02*
Y291751D01*
X292806Y211161D02*
X293594D01*
X293200Y210767D02*
Y211554D01*
X285832Y282104D02*
X286619D01*
X286225Y281711D02*
Y282498D01*
X267788Y299624D02*
X268969D01*
X268379Y299034D02*
Y300215D01*
X281109Y331161D02*
X282291D01*
X281700Y330570D02*
Y331751D01*
X278710Y331161D02*
X279891D01*
X279300Y330570D02*
Y331751D01*
X301909Y191661D02*
X303091D01*
X302500Y191070D02*
Y192251D01*
X306631Y258336D02*
X307419D01*
X307025Y257942D02*
Y258729D01*
X304931Y242018D02*
X305719D01*
X305325Y241624D02*
Y242411D01*
X307381Y244899D02*
X308168D01*
X307775Y244505D02*
Y245293D01*
X286887Y206133D02*
X288068D01*
X287478Y205542D02*
Y206723D01*
X259176Y238872D02*
X260357D01*
X259767Y238281D02*
Y239462D01*
X270510Y302600D02*
X271691D01*
X271100Y302010D02*
Y303191D01*
X272868Y302600D02*
X274049D01*
X273458Y302010D02*
Y303191D01*
X284606Y271861D02*
X285394D01*
X285000Y271467D02*
Y272254D01*
X264659Y253861D02*
X265840D01*
X265249Y253270D02*
Y254451D01*
X313010Y290661D02*
X314191D01*
X313600Y290070D02*
Y291251D01*
X324226Y270247D02*
X325407D01*
X324816Y269657D02*
Y270838D01*
X309070Y290416D02*
X310251D01*
X309660Y289826D02*
Y291007D01*
X307993Y308374D02*
X309174D01*
X308583Y307784D02*
Y308965D01*
X309401Y277372D02*
X310583D01*
X309992Y276782D02*
Y277963D01*
X269895Y250468D02*
X271076D01*
X270485Y249877D02*
Y251058D01*
X269508Y231521D02*
X270689D01*
X270099Y230930D02*
Y232111D01*
X279400Y233214D02*
X280581D01*
X279991Y232623D02*
Y233804D01*
X267602Y328920D02*
X268783D01*
X268192Y328329D02*
Y329510D01*
X324092Y278334D02*
X325273D01*
X324682Y277743D02*
Y278924D01*
X324065Y285776D02*
X325246D01*
X324655Y285185D02*
Y286366D01*
X259309Y190590D02*
X260490D01*
X259900Y189999D02*
Y191180D01*
X277123Y206987D02*
X278304D01*
X277713Y206397D02*
Y207578D01*
X287969Y194578D02*
X289150D01*
X288560Y193988D02*
Y195169D01*
X284429Y194725D02*
X285610D01*
X285020Y194135D02*
Y195316D01*
X289639Y200963D02*
X290820D01*
X290229Y200373D02*
Y201554D01*
X298080Y205705D02*
X299262D01*
X298671Y205115D02*
Y206296D01*
X301073Y211756D02*
X302254D01*
X301663Y211165D02*
Y212346D01*
X298401Y211729D02*
X299582D01*
X298992Y211139D02*
Y212320D01*
X276975Y210342D02*
X278156D01*
X277565Y209751D02*
Y210932D01*
X285526Y209664D02*
X286707D01*
X286117Y209073D02*
Y210255D01*
X281728Y213356D02*
X282909D01*
X282318Y212765D02*
Y213946D01*
X285490Y213324D02*
X286671D01*
X286080Y212734D02*
Y213915D01*
X317688Y241253D02*
X318869D01*
X318279Y240662D02*
Y241843D01*
X325323Y252730D02*
X326504D01*
X325913Y252140D02*
Y253321D01*
X306610Y262674D02*
X307791D01*
X307200Y262083D02*
Y263264D01*
X307020Y266637D02*
X308201D01*
X307610Y266046D02*
Y267228D01*
X309087Y284403D02*
X310268D01*
X309677Y283813D02*
Y284994D01*
X305260Y293030D02*
X306441D01*
X305851Y292440D02*
Y293621D01*
X296022Y331716D02*
X297203D01*
X296612Y331125D02*
Y332306D01*
X311808Y333338D02*
X312989D01*
X312398Y332748D02*
Y333929D01*
X304319Y333356D02*
X305500D01*
X304909Y332766D02*
Y333947D01*
X243849Y295044D02*
X245030D01*
X244439Y294454D02*
Y295635D01*
X326482Y293659D02*
X327663D01*
X327073Y293068D02*
Y294250D01*
X331650Y293630D02*
X332831D01*
X332241Y293040D02*
Y294221D01*
X334506Y293659D02*
X335687D01*
X335096Y293068D02*
Y294250D01*
X331588Y233305D02*
X332769D01*
X332178Y232714D02*
Y233895D01*
X334893Y233218D02*
X336074D01*
X335484Y232627D02*
Y233808D01*
X243583Y234334D02*
X244764D01*
X244174Y233744D02*
Y234925D01*
X264728Y216606D02*
X265909D01*
X265318Y216015D02*
Y217196D01*
X255394Y221403D02*
X256575D01*
X255984Y220812D02*
Y221993D01*
X267309Y219512D02*
X268491D01*
X267900Y218921D02*
Y220102D01*
X252574Y252567D02*
X253755D01*
X253165Y251976D02*
Y253157D01*
X258124Y249512D02*
X259305D01*
X258715Y248921D02*
Y250102D01*
X258819Y285836D02*
X260000D01*
X259409Y285245D02*
Y286426D01*
X258836Y281776D02*
X260017D01*
X259426Y281186D02*
Y282367D01*
X251385Y282309D02*
X252173D01*
X251779Y281915D02*
Y282702D01*
X251385Y284039D02*
X252173D01*
X251779Y283645D02*
Y284433D01*
X266862Y332560D02*
X268043D01*
X267452Y331970D02*
Y333151D01*
X272309Y321061D02*
X273491D01*
X272900Y320470D02*
Y321651D01*
X270009Y321061D02*
X271191D01*
X270600Y320470D02*
Y321651D01*
X295964Y309720D02*
X296751D01*
X296358Y309326D02*
Y310114D01*
X312581Y304368D02*
X313369D01*
X312975Y303974D02*
Y304761D01*
X305809Y328961D02*
X306991D01*
X306400Y328370D02*
Y329551D01*
X300106Y274261D02*
X300894D01*
X300500Y273867D02*
Y274654D01*
X278506Y270861D02*
X279294D01*
X278900Y270467D02*
Y271254D01*
X266656Y287936D02*
X267444D01*
X267050Y287542D02*
Y288329D01*
X249806Y288861D02*
X250594D01*
X250200Y288467D02*
Y289254D01*
X299994Y237823D02*
X300781D01*
X300388Y237429D02*
Y238217D01*
X301694Y237823D02*
X302481D01*
X302087Y237429D02*
Y238217D01*
X255209Y238361D02*
X256391D01*
X255800Y237770D02*
Y238951D01*
X262706Y246561D02*
X263494D01*
X263100Y246167D02*
Y246954D01*
X271206Y242061D02*
X271994D01*
X271600Y241667D02*
Y242454D01*
X271206Y243961D02*
X271994D01*
X271600Y243567D02*
Y244354D01*
X271206Y245807D02*
X271994D01*
X271600Y245413D02*
Y246201D01*
X287106Y235861D02*
X287894D01*
X287500Y235467D02*
Y236254D01*
X287106Y237461D02*
X287894D01*
X287500Y237067D02*
Y237854D01*
X246210Y234361D02*
X247391D01*
X246800Y233770D02*
Y234951D01*
X301681Y242036D02*
X302469D01*
X302075Y241642D02*
Y242429D01*
X299981Y242036D02*
X300769D01*
X300375Y241642D02*
Y242429D01*
X266906Y305061D02*
X267694D01*
X267300Y304667D02*
Y305454D01*
X249706Y291161D02*
X250494D01*
X250100Y290767D02*
Y291554D01*
X247506Y291361D02*
X248294D01*
X247900Y290967D02*
Y291754D01*
X270188Y306443D02*
X270976D01*
X270582Y306049D02*
Y306837D01*
X267406Y307961D02*
X268194D01*
X267800Y307567D02*
Y308354D01*
X248006Y294061D02*
X248794D01*
X248400Y293667D02*
Y294454D01*
X315681Y304468D02*
X316469D01*
X316075Y304074D02*
Y304861D01*
X281129Y241761D02*
X281916D01*
X281522Y241367D02*
Y242154D01*
X304289Y192557D02*
X305470D01*
X304880Y191966D02*
Y193147D01*
X298381Y243936D02*
X299169D01*
X298775Y243542D02*
Y244329D01*
X296760Y245077D02*
X297548D01*
X297154Y244684D02*
Y245471D01*
X298381Y246216D02*
X299169D01*
X298775Y245823D02*
Y246610D01*
X310194Y205746D02*
X310982D01*
X310588Y205352D02*
Y206139D01*
X324663Y190194D02*
X325844D01*
X325254Y189604D02*
Y190785D01*
X319155Y220518D02*
X320336D01*
X319746Y219927D02*
Y221108D01*
X321884Y229836D02*
X323066D01*
X322475Y229245D02*
Y230426D01*
X318881Y304468D02*
X319669D01*
X319275Y304074D02*
Y304861D01*
X317281Y305368D02*
X318069D01*
X317675Y304974D02*
Y305761D01*
X314081Y305368D02*
X314869D01*
X314475Y304974D02*
Y305761D01*
X320466Y244146D02*
X321647D01*
X321056Y243555D02*
Y244736D01*
X281481Y258436D02*
X282269D01*
X281875Y258042D02*
Y258829D01*
X334517Y190071D02*
X335698D01*
X335107Y189481D02*
Y190662D01*
X245398Y190729D02*
X246579D01*
X245988Y190138D02*
Y191320D01*
X306791Y228319D02*
X307972D01*
X307381Y227728D02*
Y228909D01*
X284081Y260536D02*
X284869D01*
X284475Y260142D02*
Y260929D01*
X313385Y227936D02*
X314566D01*
X313975Y227345D02*
Y228526D01*
X269301Y203226D02*
X270482D01*
X269892Y202635D02*
Y203816D01*
X315975Y237414D02*
X317157D01*
X316566Y236824D02*
Y238005D01*
X282581Y252436D02*
X283369D01*
X282975Y252042D02*
Y252829D01*
X285481Y250536D02*
X286269D01*
X285875Y250142D02*
Y250929D01*
X287081Y253536D02*
X287869D01*
X287475Y253142D02*
Y253929D01*
X283681Y248336D02*
X284469D01*
X284075Y247942D02*
Y248729D01*
X279581Y252436D02*
X280369D01*
X279975Y252042D02*
Y252829D01*
X279881Y249536D02*
X280669D01*
X280275Y249142D02*
Y249929D01*
X277181Y255436D02*
X277969D01*
X277575Y255042D02*
Y255829D01*
X296760Y242797D02*
X297548D01*
X297154Y242403D02*
Y243190D01*
X296760Y247355D02*
X297548D01*
X297154Y246962D02*
Y247749D01*
X278981Y255436D02*
X279769D01*
X279375Y255042D02*
Y255829D01*
X280781Y255436D02*
X281569D01*
X281175Y255042D02*
Y255829D01*
X298081Y253936D02*
X298869D01*
X298475Y253542D02*
Y254329D01*
X296781Y258836D02*
X297569D01*
X297175Y258442D02*
Y259229D01*
X290981Y253936D02*
X291769D01*
X291375Y253542D02*
Y254329D01*
X289081Y249636D02*
X289869D01*
X289475Y249242D02*
Y250029D01*
M02*
