G04*
G04 #@! TF.GenerationSoftware,Altium Limited,Altium Designer,22.8.2 (66)*
G04*
G04 Layer_Color=255*
%FSLAX25Y25*%
%MOIN*%
G70*
G04*
G04 #@! TF.SameCoordinates,958647FC-F202-49BF-B8C2-F494824E5218*
G04*
G04*
G04 #@! TF.FilePolarity,Positive*
G04*
G01*
G75*
%ADD10C,0.03937*%
G04:AMPARAMS|DCode=13|XSize=9.84mil|YSize=35.43mil|CornerRadius=2.46mil|HoleSize=0mil|Usage=FLASHONLY|Rotation=90.000|XOffset=0mil|YOffset=0mil|HoleType=Round|Shape=RoundedRectangle|*
%AMROUNDEDRECTD13*
21,1,0.00984,0.03051,0,0,90.0*
21,1,0.00492,0.03543,0,0,90.0*
1,1,0.00492,0.01526,0.00246*
1,1,0.00492,0.01526,-0.00246*
1,1,0.00492,-0.01526,-0.00246*
1,1,0.00492,-0.01526,0.00246*
%
%ADD13ROUNDEDRECTD13*%
G04:AMPARAMS|DCode=14|XSize=9.84mil|YSize=35.43mil|CornerRadius=2.46mil|HoleSize=0mil|Usage=FLASHONLY|Rotation=0.000|XOffset=0mil|YOffset=0mil|HoleType=Round|Shape=RoundedRectangle|*
%AMROUNDEDRECTD14*
21,1,0.00984,0.03051,0,0,0.0*
21,1,0.00492,0.03543,0,0,0.0*
1,1,0.00492,0.00246,-0.01526*
1,1,0.00492,-0.00246,-0.01526*
1,1,0.00492,-0.00246,0.01526*
1,1,0.00492,0.00246,0.01526*
%
%ADD14ROUNDEDRECTD14*%
G04:AMPARAMS|DCode=15|XSize=78.74mil|YSize=78.74mil|CornerRadius=3.94mil|HoleSize=0mil|Usage=FLASHONLY|Rotation=0.000|XOffset=0mil|YOffset=0mil|HoleType=Round|Shape=RoundedRectangle|*
%AMROUNDEDRECTD15*
21,1,0.07874,0.07087,0,0,0.0*
21,1,0.07087,0.07874,0,0,0.0*
1,1,0.00787,0.03543,-0.03543*
1,1,0.00787,-0.03543,-0.03543*
1,1,0.00787,-0.03543,0.03543*
1,1,0.00787,0.03543,0.03543*
%
%ADD15ROUNDEDRECTD15*%
G04:AMPARAMS|DCode=16|XSize=25.59mil|YSize=23.62mil|CornerRadius=5.91mil|HoleSize=0mil|Usage=FLASHONLY|Rotation=90.000|XOffset=0mil|YOffset=0mil|HoleType=Round|Shape=RoundedRectangle|*
%AMROUNDEDRECTD16*
21,1,0.02559,0.01181,0,0,90.0*
21,1,0.01378,0.02362,0,0,90.0*
1,1,0.01181,0.00591,0.00689*
1,1,0.01181,0.00591,-0.00689*
1,1,0.01181,-0.00591,-0.00689*
1,1,0.01181,-0.00591,0.00689*
%
%ADD16ROUNDEDRECTD16*%
G04:AMPARAMS|DCode=17|XSize=25.59mil|YSize=23.62mil|CornerRadius=5.91mil|HoleSize=0mil|Usage=FLASHONLY|Rotation=180.000|XOffset=0mil|YOffset=0mil|HoleType=Round|Shape=RoundedRectangle|*
%AMROUNDEDRECTD17*
21,1,0.02559,0.01181,0,0,180.0*
21,1,0.01378,0.02362,0,0,180.0*
1,1,0.01181,-0.00689,0.00591*
1,1,0.01181,0.00689,0.00591*
1,1,0.01181,0.00689,-0.00591*
1,1,0.01181,-0.00689,-0.00591*
%
%ADD17ROUNDEDRECTD17*%
G04:AMPARAMS|DCode=18|XSize=43.31mil|YSize=15.75mil|CornerRadius=3.94mil|HoleSize=0mil|Usage=FLASHONLY|Rotation=90.000|XOffset=0mil|YOffset=0mil|HoleType=Round|Shape=RoundedRectangle|*
%AMROUNDEDRECTD18*
21,1,0.04331,0.00787,0,0,90.0*
21,1,0.03543,0.01575,0,0,90.0*
1,1,0.00787,0.00394,0.01772*
1,1,0.00787,0.00394,-0.01772*
1,1,0.00787,-0.00394,-0.01772*
1,1,0.00787,-0.00394,0.01772*
%
%ADD18ROUNDEDRECTD18*%
G04:AMPARAMS|DCode=19|XSize=37.4mil|YSize=35.43mil|CornerRadius=8.86mil|HoleSize=0mil|Usage=FLASHONLY|Rotation=270.000|XOffset=0mil|YOffset=0mil|HoleType=Round|Shape=RoundedRectangle|*
%AMROUNDEDRECTD19*
21,1,0.03740,0.01772,0,0,270.0*
21,1,0.01968,0.03543,0,0,270.0*
1,1,0.01772,-0.00886,-0.00984*
1,1,0.01772,-0.00886,0.00984*
1,1,0.01772,0.00886,0.00984*
1,1,0.01772,0.00886,-0.00984*
%
%ADD19ROUNDEDRECTD19*%
%ADD20C,0.00866*%
G04:AMPARAMS|DCode=21|XSize=31.5mil|YSize=70.87mil|CornerRadius=7.87mil|HoleSize=0mil|Usage=FLASHONLY|Rotation=90.000|XOffset=0mil|YOffset=0mil|HoleType=Round|Shape=RoundedRectangle|*
%AMROUNDEDRECTD21*
21,1,0.03150,0.05512,0,0,90.0*
21,1,0.01575,0.07087,0,0,90.0*
1,1,0.01575,0.02756,0.00787*
1,1,0.01575,0.02756,-0.00787*
1,1,0.01575,-0.02756,-0.00787*
1,1,0.01575,-0.02756,0.00787*
%
%ADD21ROUNDEDRECTD21*%
G04:AMPARAMS|DCode=22|XSize=23.62mil|YSize=19.68mil|CornerRadius=4.92mil|HoleSize=0mil|Usage=FLASHONLY|Rotation=90.000|XOffset=0mil|YOffset=0mil|HoleType=Round|Shape=RoundedRectangle|*
%AMROUNDEDRECTD22*
21,1,0.02362,0.00984,0,0,90.0*
21,1,0.01378,0.01968,0,0,90.0*
1,1,0.00984,0.00492,0.00689*
1,1,0.00984,0.00492,-0.00689*
1,1,0.00984,-0.00492,-0.00689*
1,1,0.00984,-0.00492,0.00689*
%
%ADD22ROUNDEDRECTD22*%
G04:AMPARAMS|DCode=23|XSize=27.56mil|YSize=23.62mil|CornerRadius=5.91mil|HoleSize=0mil|Usage=FLASHONLY|Rotation=90.000|XOffset=0mil|YOffset=0mil|HoleType=Round|Shape=RoundedRectangle|*
%AMROUNDEDRECTD23*
21,1,0.02756,0.01181,0,0,90.0*
21,1,0.01575,0.02362,0,0,90.0*
1,1,0.01181,0.00591,0.00787*
1,1,0.01181,0.00591,-0.00787*
1,1,0.01181,-0.00591,-0.00787*
1,1,0.01181,-0.00591,0.00787*
%
%ADD23ROUNDEDRECTD23*%
G04:AMPARAMS|DCode=24|XSize=27.56mil|YSize=35.43mil|CornerRadius=6.89mil|HoleSize=0mil|Usage=FLASHONLY|Rotation=90.000|XOffset=0mil|YOffset=0mil|HoleType=Round|Shape=RoundedRectangle|*
%AMROUNDEDRECTD24*
21,1,0.02756,0.02165,0,0,90.0*
21,1,0.01378,0.03543,0,0,90.0*
1,1,0.01378,0.01083,0.00689*
1,1,0.01378,0.01083,-0.00689*
1,1,0.01378,-0.01083,-0.00689*
1,1,0.01378,-0.01083,0.00689*
%
%ADD24ROUNDEDRECTD24*%
G04:AMPARAMS|DCode=25|XSize=19.68mil|YSize=19.68mil|CornerRadius=4.92mil|HoleSize=0mil|Usage=FLASHONLY|Rotation=90.000|XOffset=0mil|YOffset=0mil|HoleType=Round|Shape=RoundedRectangle|*
%AMROUNDEDRECTD25*
21,1,0.01968,0.00984,0,0,90.0*
21,1,0.00984,0.01968,0,0,90.0*
1,1,0.00984,0.00492,0.00492*
1,1,0.00984,0.00492,-0.00492*
1,1,0.00984,-0.00492,-0.00492*
1,1,0.00984,-0.00492,0.00492*
%
%ADD25ROUNDEDRECTD25*%
%ADD26C,0.01968*%
G04:AMPARAMS|DCode=27|XSize=25.59mil|YSize=23.62mil|CornerRadius=5.91mil|HoleSize=0mil|Usage=FLASHONLY|Rotation=225.000|XOffset=0mil|YOffset=0mil|HoleType=Round|Shape=RoundedRectangle|*
%AMROUNDEDRECTD27*
21,1,0.02559,0.01181,0,0,225.0*
21,1,0.01378,0.02362,0,0,225.0*
1,1,0.01181,-0.00905,-0.00070*
1,1,0.01181,0.00070,0.00905*
1,1,0.01181,0.00905,0.00070*
1,1,0.01181,-0.00070,-0.00905*
%
%ADD27ROUNDEDRECTD27*%
G04:AMPARAMS|DCode=28|XSize=57.09mil|YSize=45.28mil|CornerRadius=11.32mil|HoleSize=0mil|Usage=FLASHONLY|Rotation=0.000|XOffset=0mil|YOffset=0mil|HoleType=Round|Shape=RoundedRectangle|*
%AMROUNDEDRECTD28*
21,1,0.05709,0.02264,0,0,0.0*
21,1,0.03445,0.04528,0,0,0.0*
1,1,0.02264,0.01722,-0.01132*
1,1,0.02264,-0.01722,-0.01132*
1,1,0.02264,-0.01722,0.01132*
1,1,0.02264,0.01722,0.01132*
%
%ADD28ROUNDEDRECTD28*%
G04:AMPARAMS|DCode=29|XSize=11.81mil|YSize=31.5mil|CornerRadius=2.95mil|HoleSize=0mil|Usage=FLASHONLY|Rotation=90.000|XOffset=0mil|YOffset=0mil|HoleType=Round|Shape=RoundedRectangle|*
%AMROUNDEDRECTD29*
21,1,0.01181,0.02559,0,0,90.0*
21,1,0.00591,0.03150,0,0,90.0*
1,1,0.00591,0.01280,0.00295*
1,1,0.00591,0.01280,-0.00295*
1,1,0.00591,-0.01280,-0.00295*
1,1,0.00591,-0.01280,0.00295*
%
%ADD29ROUNDEDRECTD29*%
G04:AMPARAMS|DCode=30|XSize=15.75mil|YSize=31.5mil|CornerRadius=3.94mil|HoleSize=0mil|Usage=FLASHONLY|Rotation=90.000|XOffset=0mil|YOffset=0mil|HoleType=Round|Shape=RoundedRectangle|*
%AMROUNDEDRECTD30*
21,1,0.01575,0.02362,0,0,90.0*
21,1,0.00787,0.03150,0,0,90.0*
1,1,0.00787,0.01181,0.00394*
1,1,0.00787,0.01181,-0.00394*
1,1,0.00787,-0.01181,-0.00394*
1,1,0.00787,-0.01181,0.00394*
%
%ADD30ROUNDEDRECTD30*%
%ADD31C,0.03150*%
G04:AMPARAMS|DCode=32|XSize=47.24mil|YSize=43.31mil|CornerRadius=10.83mil|HoleSize=0mil|Usage=FLASHONLY|Rotation=270.000|XOffset=0mil|YOffset=0mil|HoleType=Round|Shape=RoundedRectangle|*
%AMROUNDEDRECTD32*
21,1,0.04724,0.02165,0,0,270.0*
21,1,0.02559,0.04331,0,0,270.0*
1,1,0.02165,-0.01083,-0.01280*
1,1,0.02165,-0.01083,0.01280*
1,1,0.02165,0.01083,0.01280*
1,1,0.02165,0.01083,-0.01280*
%
%ADD32ROUNDEDRECTD32*%
%ADD33C,0.00787*%
G04:AMPARAMS|DCode=34|XSize=11.81mil|YSize=31.5mil|CornerRadius=2.95mil|HoleSize=0mil|Usage=FLASHONLY|Rotation=180.000|XOffset=0mil|YOffset=0mil|HoleType=Round|Shape=RoundedRectangle|*
%AMROUNDEDRECTD34*
21,1,0.01181,0.02559,0,0,180.0*
21,1,0.00591,0.03150,0,0,180.0*
1,1,0.00591,-0.00295,0.01280*
1,1,0.00591,0.00295,0.01280*
1,1,0.00591,0.00295,-0.01280*
1,1,0.00591,-0.00295,-0.01280*
%
%ADD34ROUNDEDRECTD34*%
G04:AMPARAMS|DCode=35|XSize=15.75mil|YSize=31.5mil|CornerRadius=3.94mil|HoleSize=0mil|Usage=FLASHONLY|Rotation=180.000|XOffset=0mil|YOffset=0mil|HoleType=Round|Shape=RoundedRectangle|*
%AMROUNDEDRECTD35*
21,1,0.01575,0.02362,0,0,180.0*
21,1,0.00787,0.03150,0,0,180.0*
1,1,0.00787,-0.00394,0.01181*
1,1,0.00787,0.00394,0.01181*
1,1,0.00787,0.00394,-0.01181*
1,1,0.00787,-0.00394,-0.01181*
%
%ADD35ROUNDEDRECTD35*%
%ADD36C,0.00984*%
G04:AMPARAMS|DCode=37|XSize=59.06mil|YSize=118.11mil|CornerRadius=14.76mil|HoleSize=0mil|Usage=FLASHONLY|Rotation=90.000|XOffset=0mil|YOffset=0mil|HoleType=Round|Shape=RoundedRectangle|*
%AMROUNDEDRECTD37*
21,1,0.05906,0.08858,0,0,90.0*
21,1,0.02953,0.11811,0,0,90.0*
1,1,0.02953,0.04429,0.01476*
1,1,0.02953,0.04429,-0.01476*
1,1,0.02953,-0.04429,-0.01476*
1,1,0.02953,-0.04429,0.01476*
%
%ADD37ROUNDEDRECTD37*%
%ADD49O,0.04921X0.05906*%
%ADD50C,0.21654*%
%ADD51O,0.03150X0.04724*%
%ADD52C,0.05906*%
G04:AMPARAMS|DCode=53|XSize=59.06mil|YSize=59.06mil|CornerRadius=14.76mil|HoleSize=0mil|Usage=FLASHONLY|Rotation=90.000|XOffset=0mil|YOffset=0mil|HoleType=Round|Shape=RoundedRectangle|*
%AMROUNDEDRECTD53*
21,1,0.05906,0.02953,0,0,90.0*
21,1,0.02953,0.05906,0,0,90.0*
1,1,0.02953,0.01476,0.01476*
1,1,0.02953,0.01476,-0.01476*
1,1,0.02953,-0.01476,-0.01476*
1,1,0.02953,-0.01476,0.01476*
%
%ADD53ROUNDEDRECTD53*%
D10*
X357185Y251279D02*
D03*
X10433Y87008D02*
D03*
X9646Y315846D02*
D03*
D13*
X76304Y144983D02*
D03*
Y143014D02*
D03*
Y141046D02*
D03*
Y139077D02*
D03*
Y137109D02*
D03*
X91265D02*
D03*
Y139077D02*
D03*
Y141046D02*
D03*
Y143014D02*
D03*
Y144983D02*
D03*
X183076D02*
D03*
Y143014D02*
D03*
Y141046D02*
D03*
Y139077D02*
D03*
Y137109D02*
D03*
X198036D02*
D03*
Y139077D02*
D03*
Y141046D02*
D03*
Y143014D02*
D03*
Y144983D02*
D03*
X289847D02*
D03*
Y143014D02*
D03*
Y141046D02*
D03*
Y139077D02*
D03*
Y137109D02*
D03*
X304808D02*
D03*
Y139077D02*
D03*
Y141046D02*
D03*
Y143014D02*
D03*
Y144983D02*
D03*
X76304Y303487D02*
D03*
Y301518D02*
D03*
Y299550D02*
D03*
Y297581D02*
D03*
Y295613D02*
D03*
X91265D02*
D03*
Y297581D02*
D03*
Y299550D02*
D03*
Y301518D02*
D03*
Y303487D02*
D03*
X183076D02*
D03*
Y301518D02*
D03*
Y299550D02*
D03*
Y297581D02*
D03*
Y295613D02*
D03*
X198036D02*
D03*
Y297581D02*
D03*
Y299550D02*
D03*
Y301518D02*
D03*
Y303487D02*
D03*
X289847D02*
D03*
Y301518D02*
D03*
Y299550D02*
D03*
Y297581D02*
D03*
Y295613D02*
D03*
X304808D02*
D03*
Y297581D02*
D03*
Y299550D02*
D03*
Y301518D02*
D03*
Y303487D02*
D03*
D14*
X79847Y133565D02*
D03*
X81816D02*
D03*
X83784D02*
D03*
X85753D02*
D03*
X87722D02*
D03*
Y148526D02*
D03*
X85753D02*
D03*
X83784D02*
D03*
X81816D02*
D03*
X79847D02*
D03*
X186619Y133565D02*
D03*
X188588D02*
D03*
X190556D02*
D03*
X192525D02*
D03*
X194493D02*
D03*
Y148526D02*
D03*
X192525D02*
D03*
X190556D02*
D03*
X188588D02*
D03*
X186619D02*
D03*
X293391Y133565D02*
D03*
X295359D02*
D03*
X297328D02*
D03*
X299296D02*
D03*
X301265D02*
D03*
Y148526D02*
D03*
X299296D02*
D03*
X297328D02*
D03*
X295359D02*
D03*
X293391D02*
D03*
X79847Y292069D02*
D03*
X81816D02*
D03*
X83784D02*
D03*
X85753D02*
D03*
X87722D02*
D03*
Y307030D02*
D03*
X85753D02*
D03*
X83784D02*
D03*
X81816D02*
D03*
X79847D02*
D03*
X186619Y292069D02*
D03*
X188588D02*
D03*
X190556D02*
D03*
X192525D02*
D03*
X194493D02*
D03*
Y307030D02*
D03*
X192525D02*
D03*
X190556D02*
D03*
X188588D02*
D03*
X186619D02*
D03*
X293391Y292069D02*
D03*
X295359D02*
D03*
X297328D02*
D03*
X299296D02*
D03*
X301265D02*
D03*
Y307030D02*
D03*
X299296D02*
D03*
X297328D02*
D03*
X295359D02*
D03*
X293391D02*
D03*
D15*
X83784Y141046D02*
D03*
X190556D02*
D03*
X297328D02*
D03*
X83784Y299550D02*
D03*
X190556D02*
D03*
X297328D02*
D03*
D16*
X99557Y104057D02*
D03*
X95557D02*
D03*
X87757Y77057D02*
D03*
X91757D02*
D03*
X46757Y61557D02*
D03*
X50757D02*
D03*
X71357Y78157D02*
D03*
X67357D02*
D03*
X97076Y44879D02*
D03*
X93076D02*
D03*
X95242Y40746D02*
D03*
X99242D02*
D03*
Y36513D02*
D03*
X95242D02*
D03*
X99242Y32379D02*
D03*
X95242D02*
D03*
X91368Y36513D02*
D03*
X87368D02*
D03*
X67879Y45175D02*
D03*
X71880D02*
D03*
X75950Y44978D02*
D03*
X79950D02*
D03*
X98750Y65647D02*
D03*
X94750D02*
D03*
X121909Y88673D02*
D03*
X117909D02*
D03*
X91072Y65647D02*
D03*
X87072D02*
D03*
X95257Y77057D02*
D03*
X99257D02*
D03*
X91732Y81432D02*
D03*
X87732D02*
D03*
X91732Y89832D02*
D03*
X87732D02*
D03*
X91732Y85632D02*
D03*
X87732D02*
D03*
X91732Y95432D02*
D03*
X87732D02*
D03*
X91532Y104332D02*
D03*
X87532D02*
D03*
X108532Y103532D02*
D03*
X104532D02*
D03*
X91632Y99930D02*
D03*
X87632D02*
D03*
X91532Y108332D02*
D03*
X87532D02*
D03*
X95332Y99832D02*
D03*
X99332D02*
D03*
X107532Y82833D02*
D03*
X111532D02*
D03*
X87532Y112432D02*
D03*
X91532D02*
D03*
X57832Y136032D02*
D03*
X61832D02*
D03*
X82157Y154457D02*
D03*
X86157D02*
D03*
X74032Y111432D02*
D03*
X70032D02*
D03*
X100357Y115457D02*
D03*
X96357D02*
D03*
X206328Y104057D02*
D03*
X202328D02*
D03*
X194528Y77057D02*
D03*
X198528D02*
D03*
X153528Y61557D02*
D03*
X157528D02*
D03*
X178128Y78157D02*
D03*
X174128D02*
D03*
X203848Y44879D02*
D03*
X199848D02*
D03*
X202013Y40746D02*
D03*
X206013D02*
D03*
Y36513D02*
D03*
X202013D02*
D03*
X206013Y32379D02*
D03*
X202013D02*
D03*
X198139Y36513D02*
D03*
X194139D02*
D03*
X174651Y45175D02*
D03*
X178651D02*
D03*
X182722Y44978D02*
D03*
X186722D02*
D03*
X205521Y65647D02*
D03*
X201521D02*
D03*
X228680Y88673D02*
D03*
X224680D02*
D03*
X197844Y65647D02*
D03*
X193844D02*
D03*
X202028Y77057D02*
D03*
X206028D02*
D03*
X198503Y81432D02*
D03*
X194503D02*
D03*
X198503Y89832D02*
D03*
X194503D02*
D03*
X198503Y85632D02*
D03*
X194503D02*
D03*
X198503Y95432D02*
D03*
X194503D02*
D03*
X198303Y104332D02*
D03*
X194303D02*
D03*
X215303Y103532D02*
D03*
X211303D02*
D03*
X198403Y99930D02*
D03*
X194403D02*
D03*
X198303Y108332D02*
D03*
X194303D02*
D03*
X202103Y99832D02*
D03*
X206103D02*
D03*
X214303Y82833D02*
D03*
X218303D02*
D03*
X194303Y112432D02*
D03*
X198303D02*
D03*
X164603Y136032D02*
D03*
X168603D02*
D03*
X188928Y154457D02*
D03*
X192928D02*
D03*
X180803Y111432D02*
D03*
X176803D02*
D03*
X207128Y115457D02*
D03*
X203128D02*
D03*
X313100Y104057D02*
D03*
X309100D02*
D03*
X301300Y77057D02*
D03*
X305300D02*
D03*
X260300Y61557D02*
D03*
X264300D02*
D03*
X284900Y78157D02*
D03*
X280900D02*
D03*
X310620Y44879D02*
D03*
X306620D02*
D03*
X308785Y40746D02*
D03*
X312785D02*
D03*
Y36513D02*
D03*
X308785D02*
D03*
X312785Y32379D02*
D03*
X308785D02*
D03*
X304911Y36513D02*
D03*
X300911D02*
D03*
X281423Y45175D02*
D03*
X285423D02*
D03*
X289494Y44978D02*
D03*
X293494D02*
D03*
X312293Y65647D02*
D03*
X308293D02*
D03*
X335452Y88673D02*
D03*
X331452D02*
D03*
X304616Y65647D02*
D03*
X300616D02*
D03*
X308800Y77057D02*
D03*
X312800D02*
D03*
X305275Y81432D02*
D03*
X301275D02*
D03*
X305275Y89832D02*
D03*
X301275D02*
D03*
X305275Y85632D02*
D03*
X301275D02*
D03*
X305275Y95432D02*
D03*
X301275D02*
D03*
X305075Y104332D02*
D03*
X301075D02*
D03*
X322075Y103532D02*
D03*
X318075D02*
D03*
X305175Y99930D02*
D03*
X301175D02*
D03*
X305075Y108332D02*
D03*
X301075D02*
D03*
X308875Y99832D02*
D03*
X312875D02*
D03*
X321075Y82833D02*
D03*
X325075D02*
D03*
X301075Y112432D02*
D03*
X305075D02*
D03*
X271375Y136032D02*
D03*
X275375D02*
D03*
X295700Y154457D02*
D03*
X299700D02*
D03*
X287575Y111432D02*
D03*
X283575D02*
D03*
X313900Y115457D02*
D03*
X309900D02*
D03*
X99557Y262561D02*
D03*
X95557D02*
D03*
X87757Y235561D02*
D03*
X91757D02*
D03*
X46757Y220061D02*
D03*
X50757D02*
D03*
X71357Y236661D02*
D03*
X67357D02*
D03*
X97076Y203383D02*
D03*
X93076D02*
D03*
X95242Y199250D02*
D03*
X99242D02*
D03*
Y195017D02*
D03*
X95242D02*
D03*
X99242Y190883D02*
D03*
X95242D02*
D03*
X91368Y195017D02*
D03*
X87368D02*
D03*
X67879Y203679D02*
D03*
X71880D02*
D03*
X75950Y203482D02*
D03*
X79950D02*
D03*
X98750Y224151D02*
D03*
X94750D02*
D03*
X121909Y247177D02*
D03*
X117909D02*
D03*
X91072Y224151D02*
D03*
X87072D02*
D03*
X95257Y235561D02*
D03*
X99257D02*
D03*
X91732Y239936D02*
D03*
X87732D02*
D03*
X91732Y248336D02*
D03*
X87732D02*
D03*
X91732Y244136D02*
D03*
X87732D02*
D03*
X91732Y253936D02*
D03*
X87732D02*
D03*
X91532Y262836D02*
D03*
X87532D02*
D03*
X108532Y262036D02*
D03*
X104532D02*
D03*
X91632Y258434D02*
D03*
X87632D02*
D03*
X91532Y266836D02*
D03*
X87532D02*
D03*
X95332Y258336D02*
D03*
X99332D02*
D03*
X107532Y241337D02*
D03*
X111532D02*
D03*
X87532Y270936D02*
D03*
X91532D02*
D03*
X57832Y294536D02*
D03*
X61832D02*
D03*
X82157Y312961D02*
D03*
X86157D02*
D03*
X74032Y269936D02*
D03*
X70032D02*
D03*
X100357Y273961D02*
D03*
X96357D02*
D03*
X206328Y262561D02*
D03*
X202328D02*
D03*
X194528Y235561D02*
D03*
X198528D02*
D03*
X153528Y220061D02*
D03*
X157528D02*
D03*
X178128Y236661D02*
D03*
X174128D02*
D03*
X203848Y203383D02*
D03*
X199848D02*
D03*
X202013Y199250D02*
D03*
X206013D02*
D03*
Y195017D02*
D03*
X202013D02*
D03*
X206013Y190883D02*
D03*
X202013D02*
D03*
X198139Y195017D02*
D03*
X194139D02*
D03*
X174651Y203679D02*
D03*
X178651D02*
D03*
X182722Y203482D02*
D03*
X186722D02*
D03*
X205521Y224151D02*
D03*
X201521D02*
D03*
X228680Y247177D02*
D03*
X224680D02*
D03*
X197844Y224151D02*
D03*
X193844D02*
D03*
X202028Y235561D02*
D03*
X206028D02*
D03*
X198503Y239936D02*
D03*
X194503D02*
D03*
X198503Y248336D02*
D03*
X194503D02*
D03*
X198503Y244136D02*
D03*
X194503D02*
D03*
X198503Y253936D02*
D03*
X194503D02*
D03*
X198303Y262836D02*
D03*
X194303D02*
D03*
X215303Y262036D02*
D03*
X211303D02*
D03*
X198403Y258434D02*
D03*
X194403D02*
D03*
X198303Y266836D02*
D03*
X194303D02*
D03*
X202103Y258336D02*
D03*
X206103D02*
D03*
X214303Y241337D02*
D03*
X218303D02*
D03*
X194303Y270936D02*
D03*
X198303D02*
D03*
X164603Y294536D02*
D03*
X168603D02*
D03*
X188928Y312961D02*
D03*
X192928D02*
D03*
X180803Y269936D02*
D03*
X176803D02*
D03*
X207128Y273961D02*
D03*
X203128D02*
D03*
X313100Y262561D02*
D03*
X309100D02*
D03*
X301300Y235561D02*
D03*
X305300D02*
D03*
X260300Y220061D02*
D03*
X264300D02*
D03*
X284900Y236661D02*
D03*
X280900D02*
D03*
X310620Y203383D02*
D03*
X306620D02*
D03*
X308785Y199250D02*
D03*
X312785D02*
D03*
Y195017D02*
D03*
X308785D02*
D03*
X312785Y190883D02*
D03*
X308785D02*
D03*
X304911Y195017D02*
D03*
X300911D02*
D03*
X281423Y203679D02*
D03*
X285423D02*
D03*
X289494Y203482D02*
D03*
X293494D02*
D03*
X312293Y224151D02*
D03*
X308293D02*
D03*
X335452Y247177D02*
D03*
X331452D02*
D03*
X304616Y224151D02*
D03*
X300616D02*
D03*
X308800Y235561D02*
D03*
X312800D02*
D03*
X305275Y239936D02*
D03*
X301275D02*
D03*
X305275Y248336D02*
D03*
X301275D02*
D03*
X305275Y244136D02*
D03*
X301275D02*
D03*
X305275Y253936D02*
D03*
X301275D02*
D03*
X305075Y262836D02*
D03*
X301075D02*
D03*
X322075Y262036D02*
D03*
X318075D02*
D03*
X305175Y258434D02*
D03*
X301175D02*
D03*
X305075Y266836D02*
D03*
X301075D02*
D03*
X308875Y258336D02*
D03*
X312875D02*
D03*
X321075Y241337D02*
D03*
X325075D02*
D03*
X301075Y270936D02*
D03*
X305075D02*
D03*
X271375Y294536D02*
D03*
X275375D02*
D03*
X295700Y312961D02*
D03*
X299700D02*
D03*
X287575Y269936D02*
D03*
X283575D02*
D03*
X313900Y273961D02*
D03*
X309900D02*
D03*
D17*
X42257Y65757D02*
D03*
Y69757D02*
D03*
Y73057D02*
D03*
Y77057D02*
D03*
X59157Y66257D02*
D03*
Y70257D02*
D03*
X63257D02*
D03*
Y66257D02*
D03*
Y78157D02*
D03*
Y74157D02*
D03*
X59157Y78157D02*
D03*
Y74157D02*
D03*
X89663Y61348D02*
D03*
Y57348D02*
D03*
X94092Y61348D02*
D03*
Y57348D02*
D03*
X98521D02*
D03*
Y61348D02*
D03*
X63257Y54557D02*
D03*
Y58557D02*
D03*
X81789Y57151D02*
D03*
Y61151D02*
D03*
Y48883D02*
D03*
Y52883D02*
D03*
X112657Y107457D02*
D03*
Y103457D02*
D03*
X96532Y147232D02*
D03*
Y143232D02*
D03*
X70132Y127232D02*
D03*
Y123232D02*
D03*
X99130Y94732D02*
D03*
Y90732D02*
D03*
X70132Y115332D02*
D03*
Y119332D02*
D03*
X62432Y140132D02*
D03*
Y144132D02*
D03*
X70532Y135932D02*
D03*
Y139932D02*
D03*
Y148135D02*
D03*
Y144135D02*
D03*
X75212Y128774D02*
D03*
Y124774D02*
D03*
X79444Y128806D02*
D03*
Y124806D02*
D03*
X83775Y128806D02*
D03*
Y124806D02*
D03*
X66432Y139932D02*
D03*
Y135932D02*
D03*
Y144135D02*
D03*
Y148135D02*
D03*
X92338Y128873D02*
D03*
Y124873D02*
D03*
X88106Y128873D02*
D03*
Y124873D02*
D03*
X100132Y135132D02*
D03*
Y139132D02*
D03*
X96285Y139093D02*
D03*
Y135093D02*
D03*
X74032Y119332D02*
D03*
Y115332D02*
D03*
X49557Y91357D02*
D03*
Y95357D02*
D03*
X53757Y91357D02*
D03*
Y95357D02*
D03*
X104457Y111657D02*
D03*
Y107657D02*
D03*
X96457Y107757D02*
D03*
Y111757D02*
D03*
X100457D02*
D03*
Y107757D02*
D03*
X149028Y65757D02*
D03*
Y69757D02*
D03*
Y73057D02*
D03*
Y77057D02*
D03*
X165928Y66257D02*
D03*
Y70257D02*
D03*
X170028D02*
D03*
Y66257D02*
D03*
Y78157D02*
D03*
Y74157D02*
D03*
X165928Y78157D02*
D03*
Y74157D02*
D03*
X196435Y61348D02*
D03*
Y57348D02*
D03*
X200864Y61348D02*
D03*
Y57348D02*
D03*
X205293D02*
D03*
Y61348D02*
D03*
X170028Y54557D02*
D03*
Y58557D02*
D03*
X188561Y57151D02*
D03*
Y61151D02*
D03*
Y48883D02*
D03*
Y52883D02*
D03*
X219428Y107457D02*
D03*
Y103457D02*
D03*
X203303Y147232D02*
D03*
Y143232D02*
D03*
X176903Y127232D02*
D03*
Y123232D02*
D03*
X205902Y94732D02*
D03*
Y90732D02*
D03*
X176903Y115332D02*
D03*
Y119332D02*
D03*
X169203Y140132D02*
D03*
Y144132D02*
D03*
X177303Y135932D02*
D03*
Y139932D02*
D03*
Y148135D02*
D03*
Y144135D02*
D03*
X181984Y128774D02*
D03*
Y124774D02*
D03*
X186216Y128806D02*
D03*
Y124806D02*
D03*
X190547Y128806D02*
D03*
Y124806D02*
D03*
X173203Y139932D02*
D03*
Y135932D02*
D03*
Y144135D02*
D03*
Y148135D02*
D03*
X199110Y128873D02*
D03*
Y124873D02*
D03*
X194877Y128873D02*
D03*
Y124873D02*
D03*
X206903Y135132D02*
D03*
Y139132D02*
D03*
X203056Y139093D02*
D03*
Y135093D02*
D03*
X180803Y119332D02*
D03*
Y115332D02*
D03*
X156328Y91357D02*
D03*
Y95357D02*
D03*
X160528Y91357D02*
D03*
Y95357D02*
D03*
X211228Y111657D02*
D03*
Y107657D02*
D03*
X203228Y107757D02*
D03*
Y111757D02*
D03*
X207228D02*
D03*
Y107757D02*
D03*
X255800Y65757D02*
D03*
Y69757D02*
D03*
Y73057D02*
D03*
Y77057D02*
D03*
X272700Y66257D02*
D03*
Y70257D02*
D03*
X276800D02*
D03*
Y66257D02*
D03*
Y78157D02*
D03*
Y74157D02*
D03*
X272700Y78157D02*
D03*
Y74157D02*
D03*
X303206Y61348D02*
D03*
Y57348D02*
D03*
X307635Y61348D02*
D03*
Y57348D02*
D03*
X312065D02*
D03*
Y61348D02*
D03*
X276800Y54557D02*
D03*
Y58557D02*
D03*
X295332Y57151D02*
D03*
Y61151D02*
D03*
Y48883D02*
D03*
Y52883D02*
D03*
X326200Y107457D02*
D03*
Y103457D02*
D03*
X310075Y147232D02*
D03*
Y143232D02*
D03*
X283675Y127232D02*
D03*
Y123232D02*
D03*
X312673Y94732D02*
D03*
Y90732D02*
D03*
X283675Y115332D02*
D03*
Y119332D02*
D03*
X275975Y140132D02*
D03*
Y144132D02*
D03*
X284075Y135932D02*
D03*
Y139932D02*
D03*
Y148135D02*
D03*
Y144135D02*
D03*
X288755Y128774D02*
D03*
Y124774D02*
D03*
X292988Y128806D02*
D03*
Y124806D02*
D03*
X297318Y128806D02*
D03*
Y124806D02*
D03*
X279975Y139932D02*
D03*
Y135932D02*
D03*
Y144135D02*
D03*
Y148135D02*
D03*
X305881Y128873D02*
D03*
Y124873D02*
D03*
X301649Y128873D02*
D03*
Y124873D02*
D03*
X313675Y135132D02*
D03*
Y139132D02*
D03*
X309828Y139093D02*
D03*
Y135093D02*
D03*
X287575Y119332D02*
D03*
Y115332D02*
D03*
X263100Y91357D02*
D03*
Y95357D02*
D03*
X267300Y91357D02*
D03*
Y95357D02*
D03*
X318000Y111657D02*
D03*
Y107657D02*
D03*
X310000Y107757D02*
D03*
Y111757D02*
D03*
X314000D02*
D03*
Y107757D02*
D03*
X42257Y224261D02*
D03*
Y228261D02*
D03*
Y231561D02*
D03*
Y235561D02*
D03*
X59157Y224761D02*
D03*
Y228761D02*
D03*
X63257D02*
D03*
Y224761D02*
D03*
Y236661D02*
D03*
Y232661D02*
D03*
X59157Y236661D02*
D03*
Y232661D02*
D03*
X89663Y219852D02*
D03*
Y215852D02*
D03*
X94092Y219852D02*
D03*
Y215852D02*
D03*
X98521D02*
D03*
Y219852D02*
D03*
X63257Y213061D02*
D03*
Y217061D02*
D03*
X81789Y215655D02*
D03*
Y219655D02*
D03*
Y207387D02*
D03*
Y211387D02*
D03*
X112657Y265961D02*
D03*
Y261961D02*
D03*
X96532Y305736D02*
D03*
Y301736D02*
D03*
X70132Y285736D02*
D03*
Y281736D02*
D03*
X99130Y253236D02*
D03*
Y249236D02*
D03*
X70132Y273836D02*
D03*
Y277836D02*
D03*
X62432Y298636D02*
D03*
Y302636D02*
D03*
X70532Y294436D02*
D03*
Y298436D02*
D03*
Y306639D02*
D03*
Y302639D02*
D03*
X75212Y287278D02*
D03*
Y283278D02*
D03*
X79444Y287310D02*
D03*
Y283310D02*
D03*
X83775Y287310D02*
D03*
Y283310D02*
D03*
X66432Y298436D02*
D03*
Y294436D02*
D03*
Y302639D02*
D03*
Y306639D02*
D03*
X92338Y287376D02*
D03*
Y283377D02*
D03*
X88106Y287376D02*
D03*
Y283377D02*
D03*
X100132Y293636D02*
D03*
Y297636D02*
D03*
X96285Y297597D02*
D03*
Y293597D02*
D03*
X74032Y277836D02*
D03*
Y273836D02*
D03*
X49557Y249861D02*
D03*
Y253861D02*
D03*
X53757Y249861D02*
D03*
Y253861D02*
D03*
X104457Y270161D02*
D03*
Y266161D02*
D03*
X96457Y266261D02*
D03*
Y270261D02*
D03*
X100457D02*
D03*
Y266261D02*
D03*
X149028Y224261D02*
D03*
Y228261D02*
D03*
Y231561D02*
D03*
Y235561D02*
D03*
X165928Y224761D02*
D03*
Y228761D02*
D03*
X170028D02*
D03*
Y224761D02*
D03*
Y236661D02*
D03*
Y232661D02*
D03*
X165928Y236661D02*
D03*
Y232661D02*
D03*
X196435Y219852D02*
D03*
Y215852D02*
D03*
X200864Y219852D02*
D03*
Y215852D02*
D03*
X205293D02*
D03*
Y219852D02*
D03*
X170028Y213061D02*
D03*
Y217061D02*
D03*
X188561Y215655D02*
D03*
Y219655D02*
D03*
Y207387D02*
D03*
Y211387D02*
D03*
X219428Y265961D02*
D03*
Y261961D02*
D03*
X203303Y305736D02*
D03*
Y301736D02*
D03*
X176903Y285736D02*
D03*
Y281736D02*
D03*
X205902Y253236D02*
D03*
Y249236D02*
D03*
X176903Y273836D02*
D03*
Y277836D02*
D03*
X169203Y298636D02*
D03*
Y302636D02*
D03*
X177303Y294436D02*
D03*
Y298436D02*
D03*
Y306639D02*
D03*
Y302639D02*
D03*
X181984Y287278D02*
D03*
Y283278D02*
D03*
X186216Y287310D02*
D03*
Y283310D02*
D03*
X190547Y287310D02*
D03*
Y283310D02*
D03*
X173203Y298436D02*
D03*
Y294436D02*
D03*
Y302639D02*
D03*
Y306639D02*
D03*
X199110Y287376D02*
D03*
Y283377D02*
D03*
X194877Y287376D02*
D03*
Y283377D02*
D03*
X206903Y293636D02*
D03*
Y297636D02*
D03*
X203056Y297597D02*
D03*
Y293597D02*
D03*
X180803Y277836D02*
D03*
Y273836D02*
D03*
X156328Y249861D02*
D03*
Y253861D02*
D03*
X160528Y249861D02*
D03*
Y253861D02*
D03*
X211228Y270161D02*
D03*
Y266161D02*
D03*
X203228Y266261D02*
D03*
Y270261D02*
D03*
X207228D02*
D03*
Y266261D02*
D03*
X255800Y224261D02*
D03*
Y228261D02*
D03*
Y231561D02*
D03*
Y235561D02*
D03*
X272700Y224761D02*
D03*
Y228761D02*
D03*
X276800D02*
D03*
Y224761D02*
D03*
Y236661D02*
D03*
Y232661D02*
D03*
X272700Y236661D02*
D03*
Y232661D02*
D03*
X303206Y219852D02*
D03*
Y215852D02*
D03*
X307635Y219852D02*
D03*
Y215852D02*
D03*
X312065D02*
D03*
Y219852D02*
D03*
X276800Y213061D02*
D03*
Y217061D02*
D03*
X295332Y215655D02*
D03*
Y219655D02*
D03*
Y207387D02*
D03*
Y211387D02*
D03*
X326200Y265961D02*
D03*
Y261961D02*
D03*
X310075Y305736D02*
D03*
Y301736D02*
D03*
X283675Y285736D02*
D03*
Y281736D02*
D03*
X312673Y253236D02*
D03*
Y249236D02*
D03*
X283675Y273836D02*
D03*
Y277836D02*
D03*
X275975Y298636D02*
D03*
Y302636D02*
D03*
X284075Y294436D02*
D03*
Y298436D02*
D03*
Y306639D02*
D03*
Y302639D02*
D03*
X288755Y287278D02*
D03*
Y283278D02*
D03*
X292988Y287310D02*
D03*
Y283310D02*
D03*
X297318Y287310D02*
D03*
Y283310D02*
D03*
X279975Y298436D02*
D03*
Y294436D02*
D03*
Y302639D02*
D03*
Y306639D02*
D03*
X305881Y287376D02*
D03*
Y283377D02*
D03*
X301649Y287376D02*
D03*
Y283377D02*
D03*
X313675Y293636D02*
D03*
Y297636D02*
D03*
X309828Y297597D02*
D03*
Y293597D02*
D03*
X287575Y277836D02*
D03*
Y273836D02*
D03*
X263100Y249861D02*
D03*
Y253861D02*
D03*
X267300Y249861D02*
D03*
Y253861D02*
D03*
X318000Y270161D02*
D03*
Y266161D02*
D03*
X310000Y266261D02*
D03*
Y270261D02*
D03*
X314000D02*
D03*
Y266261D02*
D03*
D18*
X46716Y66238D02*
D03*
X50457D02*
D03*
X54197D02*
D03*
Y76475D02*
D03*
X50457D02*
D03*
X46716D02*
D03*
X153488Y66238D02*
D03*
X157228D02*
D03*
X160968D02*
D03*
Y76475D02*
D03*
X157228D02*
D03*
X153488D02*
D03*
X260260Y66238D02*
D03*
X264000D02*
D03*
X267740D02*
D03*
Y76475D02*
D03*
X264000D02*
D03*
X260260D02*
D03*
X46716Y224743D02*
D03*
X50457D02*
D03*
X54197D02*
D03*
Y234979D02*
D03*
X50457D02*
D03*
X46716D02*
D03*
X153488Y224743D02*
D03*
X157228D02*
D03*
X160968D02*
D03*
Y234979D02*
D03*
X157228D02*
D03*
X153488D02*
D03*
X260260Y224743D02*
D03*
X264000D02*
D03*
X267740D02*
D03*
Y234979D02*
D03*
X264000D02*
D03*
X260260D02*
D03*
D19*
X86761Y50096D02*
D03*
X92761D02*
D03*
X67864Y39860D02*
D03*
X73864D02*
D03*
X193533Y50096D02*
D03*
X199533D02*
D03*
X174635Y39860D02*
D03*
X180635D02*
D03*
X300305Y50096D02*
D03*
X306305D02*
D03*
X281407Y39860D02*
D03*
X287407D02*
D03*
X86761Y208600D02*
D03*
X92761D02*
D03*
X67864Y198364D02*
D03*
X73864D02*
D03*
X193533Y208600D02*
D03*
X199533D02*
D03*
X174635Y198364D02*
D03*
X180635D02*
D03*
X300305Y208600D02*
D03*
X306305D02*
D03*
X281407Y198364D02*
D03*
X287407D02*
D03*
D20*
X89072Y41336D02*
D03*
X87498D02*
D03*
X89072Y42911D02*
D03*
X87498D02*
D03*
X89072Y44486D02*
D03*
X87498D02*
D03*
X195844Y41336D02*
D03*
X194269D02*
D03*
X195844Y42911D02*
D03*
X194269D02*
D03*
X195844Y44486D02*
D03*
X194269D02*
D03*
X302616Y41336D02*
D03*
X301041D02*
D03*
X302616Y42911D02*
D03*
X301041D02*
D03*
X302616Y44486D02*
D03*
X301041D02*
D03*
X89072Y199840D02*
D03*
X87498D02*
D03*
X89072Y201415D02*
D03*
X87498D02*
D03*
X89072Y202990D02*
D03*
X87498D02*
D03*
X195844Y199840D02*
D03*
X194269D02*
D03*
X195844Y201415D02*
D03*
X194269D02*
D03*
X195844Y202990D02*
D03*
X194269D02*
D03*
X302616Y199840D02*
D03*
X301041D02*
D03*
X302616Y201415D02*
D03*
X301041D02*
D03*
X302616Y202990D02*
D03*
X301041D02*
D03*
D21*
X81297Y32675D02*
D03*
Y38974D02*
D03*
X188068Y32675D02*
D03*
Y38974D02*
D03*
X294840Y32675D02*
D03*
Y38974D02*
D03*
X81297Y191179D02*
D03*
Y197478D02*
D03*
X188068Y191179D02*
D03*
Y197478D02*
D03*
X294840Y191179D02*
D03*
Y197478D02*
D03*
D22*
X67813Y50490D02*
D03*
X77261D02*
D03*
X174584D02*
D03*
X184033D02*
D03*
X281356D02*
D03*
X290805D02*
D03*
X67813Y208994D02*
D03*
X77261D02*
D03*
X174584D02*
D03*
X184033D02*
D03*
X281356D02*
D03*
X290805D02*
D03*
D23*
X77025Y59348D02*
D03*
X68049D02*
D03*
X183797D02*
D03*
X174820D02*
D03*
X290568D02*
D03*
X281592D02*
D03*
X77025Y217852D02*
D03*
X68049D02*
D03*
X183797D02*
D03*
X174820D02*
D03*
X290568D02*
D03*
X281592D02*
D03*
D24*
X72537Y59348D02*
D03*
X179309D02*
D03*
X286080D02*
D03*
X72537Y217852D02*
D03*
X179309D02*
D03*
X286080D02*
D03*
D25*
X72537Y54820D02*
D03*
X179309D02*
D03*
X286080D02*
D03*
X72537Y213324D02*
D03*
X179309D02*
D03*
X286080D02*
D03*
D26*
X42057Y116957D02*
D03*
X65357Y114357D02*
D03*
X38857Y74157D02*
D03*
X51357Y129457D02*
D03*
X86957Y117557D02*
D03*
X78857Y152557D02*
D03*
X40257Y110157D02*
D03*
X41890Y121823D02*
D03*
X82380Y46159D02*
D03*
X148828Y116957D02*
D03*
X172128Y114357D02*
D03*
X145628Y74157D02*
D03*
X158128Y129457D02*
D03*
X193728Y117557D02*
D03*
X185628Y152557D02*
D03*
X147028Y110157D02*
D03*
X148662Y121823D02*
D03*
X189151Y46159D02*
D03*
X255600Y116957D02*
D03*
X278900Y114357D02*
D03*
X252400Y74157D02*
D03*
X264900Y129457D02*
D03*
X300500Y117557D02*
D03*
X292400Y152557D02*
D03*
X253800Y110157D02*
D03*
X255434Y121823D02*
D03*
X295923Y46159D02*
D03*
X42057Y275461D02*
D03*
X65357Y272861D02*
D03*
X38857Y232661D02*
D03*
X51357Y287961D02*
D03*
X86957Y276061D02*
D03*
X78857Y311061D02*
D03*
X40257Y268661D02*
D03*
X41890Y280327D02*
D03*
X82380Y204663D02*
D03*
X148828Y275461D02*
D03*
X172128Y272861D02*
D03*
X145628Y232661D02*
D03*
X158128Y287961D02*
D03*
X193728Y276061D02*
D03*
X185628Y311061D02*
D03*
X147028Y268661D02*
D03*
X148662Y280327D02*
D03*
X189151Y204663D02*
D03*
X255600Y275461D02*
D03*
X278900Y272861D02*
D03*
X252400Y232661D02*
D03*
X264900Y287961D02*
D03*
X300500Y276061D02*
D03*
X292400Y311061D02*
D03*
X253800Y268661D02*
D03*
X255434Y280327D02*
D03*
X295923Y204663D02*
D03*
D27*
X90604Y154306D02*
D03*
X93432Y151478D02*
D03*
X197376Y154306D02*
D03*
X200204Y151478D02*
D03*
X304147Y154306D02*
D03*
X306976Y151478D02*
D03*
X90604Y312810D02*
D03*
X93432Y309982D02*
D03*
X197376Y312810D02*
D03*
X200204Y309982D02*
D03*
X304147Y312810D02*
D03*
X306976Y309982D02*
D03*
D28*
X111957Y140057D02*
D03*
Y147057D02*
D03*
X119757Y140157D02*
D03*
Y147157D02*
D03*
X34457Y148157D02*
D03*
Y141157D02*
D03*
X119757Y70057D02*
D03*
Y63057D02*
D03*
X34157D02*
D03*
Y70057D02*
D03*
X218728Y140057D02*
D03*
Y147057D02*
D03*
X226528Y140157D02*
D03*
Y147157D02*
D03*
X141228Y148157D02*
D03*
Y141157D02*
D03*
X226528Y70057D02*
D03*
Y63057D02*
D03*
X140928D02*
D03*
Y70057D02*
D03*
X325500Y140057D02*
D03*
Y147057D02*
D03*
X333300Y140157D02*
D03*
Y147157D02*
D03*
X248000Y148157D02*
D03*
Y141157D02*
D03*
X333300Y70057D02*
D03*
Y63057D02*
D03*
X247700D02*
D03*
Y70057D02*
D03*
X111957Y298561D02*
D03*
Y305561D02*
D03*
X119757Y298661D02*
D03*
Y305661D02*
D03*
X34457Y306661D02*
D03*
Y299661D02*
D03*
X119757Y228561D02*
D03*
Y221561D02*
D03*
X34157D02*
D03*
Y228561D02*
D03*
X218728Y298561D02*
D03*
Y305561D02*
D03*
X226528Y298661D02*
D03*
Y305661D02*
D03*
X141228Y306661D02*
D03*
Y299661D02*
D03*
X226528Y228561D02*
D03*
Y221561D02*
D03*
X140928D02*
D03*
Y228561D02*
D03*
X325500Y298561D02*
D03*
Y305561D02*
D03*
X333300Y298661D02*
D03*
Y305661D02*
D03*
X248000Y306661D02*
D03*
Y299661D02*
D03*
X333300Y228561D02*
D03*
Y221561D02*
D03*
X247700D02*
D03*
Y228561D02*
D03*
D29*
X33557Y100183D02*
D03*
Y102151D02*
D03*
Y104120D02*
D03*
Y98214D02*
D03*
Y110025D02*
D03*
Y111994D02*
D03*
Y113962D02*
D03*
Y106088D02*
D03*
Y108057D02*
D03*
Y119868D02*
D03*
Y121836D02*
D03*
Y123805D02*
D03*
Y125773D02*
D03*
Y115931D02*
D03*
Y117899D02*
D03*
X140328Y100183D02*
D03*
Y102151D02*
D03*
Y104120D02*
D03*
Y98214D02*
D03*
Y110025D02*
D03*
Y111994D02*
D03*
Y113962D02*
D03*
Y106088D02*
D03*
Y108057D02*
D03*
Y119868D02*
D03*
Y121836D02*
D03*
Y123805D02*
D03*
Y125773D02*
D03*
Y115931D02*
D03*
Y117899D02*
D03*
X247100Y100183D02*
D03*
Y102151D02*
D03*
Y104120D02*
D03*
Y98214D02*
D03*
Y110025D02*
D03*
Y111994D02*
D03*
Y113962D02*
D03*
Y106088D02*
D03*
Y108057D02*
D03*
Y119868D02*
D03*
Y121836D02*
D03*
Y123805D02*
D03*
Y125773D02*
D03*
Y115931D02*
D03*
Y117899D02*
D03*
X33557Y258687D02*
D03*
Y260655D02*
D03*
Y262624D02*
D03*
Y256718D02*
D03*
Y268529D02*
D03*
Y270498D02*
D03*
Y272466D02*
D03*
Y264592D02*
D03*
Y266561D02*
D03*
Y278372D02*
D03*
Y280340D02*
D03*
Y282309D02*
D03*
Y284277D02*
D03*
Y274435D02*
D03*
Y276403D02*
D03*
X140328Y258687D02*
D03*
Y260655D02*
D03*
Y262624D02*
D03*
Y256718D02*
D03*
Y268529D02*
D03*
Y270498D02*
D03*
Y272466D02*
D03*
Y264592D02*
D03*
Y266561D02*
D03*
Y278372D02*
D03*
Y280340D02*
D03*
Y282309D02*
D03*
Y284277D02*
D03*
Y274435D02*
D03*
Y276403D02*
D03*
X247100Y258687D02*
D03*
Y260655D02*
D03*
Y262624D02*
D03*
Y256718D02*
D03*
Y268529D02*
D03*
Y270498D02*
D03*
Y272466D02*
D03*
Y264592D02*
D03*
Y266561D02*
D03*
Y278372D02*
D03*
Y280340D02*
D03*
Y282309D02*
D03*
Y284277D02*
D03*
Y274435D02*
D03*
Y276403D02*
D03*
D30*
X43399Y94277D02*
D03*
Y129710D02*
D03*
X150171Y94277D02*
D03*
Y129710D02*
D03*
X256943Y94277D02*
D03*
Y129710D02*
D03*
X43399Y252781D02*
D03*
Y288214D02*
D03*
X150171Y252781D02*
D03*
Y288214D02*
D03*
X256943Y252781D02*
D03*
Y288214D02*
D03*
D31*
X89357Y170757D02*
D03*
X50457Y81457D02*
D03*
X53657Y86757D02*
D03*
X87006Y69880D02*
D03*
X104457Y115657D02*
D03*
X98521Y53147D02*
D03*
X196128Y170757D02*
D03*
X157228Y81457D02*
D03*
X160428Y86757D02*
D03*
X193777Y69880D02*
D03*
X211228Y115657D02*
D03*
X205293Y53147D02*
D03*
X302900Y170757D02*
D03*
X264000Y81457D02*
D03*
X267200Y86757D02*
D03*
X300549Y69880D02*
D03*
X318000Y115657D02*
D03*
X312065Y53147D02*
D03*
X89357Y329261D02*
D03*
X50457Y239961D02*
D03*
X53657Y245261D02*
D03*
X87006Y228383D02*
D03*
X104457Y274161D02*
D03*
X98521Y211651D02*
D03*
X196128Y329261D02*
D03*
X157228Y239961D02*
D03*
X160428Y245261D02*
D03*
X193777Y228383D02*
D03*
X211228Y274161D02*
D03*
X205293Y211651D02*
D03*
X302900Y329261D02*
D03*
X264000Y239961D02*
D03*
X267200Y245261D02*
D03*
X300549Y228383D02*
D03*
X318000Y274161D02*
D03*
X312065Y211651D02*
D03*
D32*
X64706Y120697D02*
D03*
X57694D02*
D03*
X64706Y130099D02*
D03*
X57694D02*
D03*
X111863Y89056D02*
D03*
X104851D02*
D03*
X111863Y98457D02*
D03*
X104851D02*
D03*
X171478Y120697D02*
D03*
X164466D02*
D03*
X171478Y130099D02*
D03*
X164466D02*
D03*
X218634Y89056D02*
D03*
X211622D02*
D03*
X218634Y98457D02*
D03*
X211622D02*
D03*
X278250Y120697D02*
D03*
X271238D02*
D03*
X278250Y130099D02*
D03*
X271238D02*
D03*
X325406Y89056D02*
D03*
X318394D02*
D03*
X325406Y98457D02*
D03*
X318394D02*
D03*
X64706Y279201D02*
D03*
X57694D02*
D03*
X64706Y288602D02*
D03*
X57694D02*
D03*
X111863Y247560D02*
D03*
X104851D02*
D03*
X111863Y256961D02*
D03*
X104851D02*
D03*
X171478Y279201D02*
D03*
X164466D02*
D03*
X171478Y288602D02*
D03*
X164466D02*
D03*
X218634Y247560D02*
D03*
X211622D02*
D03*
X218634Y256961D02*
D03*
X211622D02*
D03*
X278250Y279201D02*
D03*
X271238D02*
D03*
X278250Y288602D02*
D03*
X271238D02*
D03*
X325406Y247560D02*
D03*
X318394D02*
D03*
X325406Y256961D02*
D03*
X318394D02*
D03*
D33*
X85726Y61218D02*
D03*
Y58758D02*
D03*
X192498Y61218D02*
D03*
Y58758D02*
D03*
X299269Y61218D02*
D03*
Y58758D02*
D03*
X85726Y219722D02*
D03*
Y217262D02*
D03*
X192498Y219722D02*
D03*
Y217262D02*
D03*
X299269Y219722D02*
D03*
Y217262D02*
D03*
D34*
X88654Y164047D02*
D03*
X86685D02*
D03*
X84717D02*
D03*
X90622D02*
D03*
X78811D02*
D03*
X76843D02*
D03*
X74874D02*
D03*
X82748D02*
D03*
X80780D02*
D03*
X68969D02*
D03*
X67000D02*
D03*
X65032D02*
D03*
X63063D02*
D03*
X72906D02*
D03*
X70937D02*
D03*
X195425D02*
D03*
X193457D02*
D03*
X191488D02*
D03*
X197394D02*
D03*
X185583D02*
D03*
X183614D02*
D03*
X181646D02*
D03*
X189520D02*
D03*
X187551D02*
D03*
X175740D02*
D03*
X173772D02*
D03*
X171803D02*
D03*
X169835D02*
D03*
X179677D02*
D03*
X177709D02*
D03*
X302197D02*
D03*
X300229D02*
D03*
X298260D02*
D03*
X304166D02*
D03*
X292354D02*
D03*
X290386D02*
D03*
X288418D02*
D03*
X296292D02*
D03*
X294323D02*
D03*
X282512D02*
D03*
X280543D02*
D03*
X278575D02*
D03*
X276606D02*
D03*
X286449D02*
D03*
X284481D02*
D03*
X88654Y322551D02*
D03*
X86685D02*
D03*
X84717D02*
D03*
X90622D02*
D03*
X78811D02*
D03*
X76843D02*
D03*
X74874D02*
D03*
X82748D02*
D03*
X80780D02*
D03*
X68969D02*
D03*
X67000D02*
D03*
X65032D02*
D03*
X63063D02*
D03*
X72906D02*
D03*
X70937D02*
D03*
X195425D02*
D03*
X193457D02*
D03*
X191488D02*
D03*
X197394D02*
D03*
X185583D02*
D03*
X183614D02*
D03*
X181646D02*
D03*
X189520D02*
D03*
X187551D02*
D03*
X175740D02*
D03*
X173772D02*
D03*
X171803D02*
D03*
X169835D02*
D03*
X179677D02*
D03*
X177709D02*
D03*
X302197D02*
D03*
X300229D02*
D03*
X298260D02*
D03*
X304166D02*
D03*
X292354D02*
D03*
X290386D02*
D03*
X288418D02*
D03*
X296292D02*
D03*
X294323D02*
D03*
X282512D02*
D03*
X280543D02*
D03*
X278575D02*
D03*
X276606D02*
D03*
X286449D02*
D03*
X284481D02*
D03*
D35*
X94559Y173890D02*
D03*
X59126D02*
D03*
X201331D02*
D03*
X165898D02*
D03*
X308103D02*
D03*
X272670D02*
D03*
X94559Y332394D02*
D03*
X59126D02*
D03*
X201331D02*
D03*
X165898D02*
D03*
X308103D02*
D03*
X272670D02*
D03*
D36*
X81758Y84605D02*
D03*
X79790D02*
D03*
X77821D02*
D03*
X75853D02*
D03*
X73884D02*
D03*
X71916D02*
D03*
X69947D02*
D03*
X67979D02*
D03*
X66010D02*
D03*
X64042D02*
D03*
X62073D02*
D03*
X60105D02*
D03*
X81758Y86573D02*
D03*
X79790D02*
D03*
X77821D02*
D03*
X75853D02*
D03*
X73884D02*
D03*
X71916D02*
D03*
X69947D02*
D03*
X67979D02*
D03*
X66010D02*
D03*
X64042D02*
D03*
X62073D02*
D03*
X60105D02*
D03*
X81758Y88542D02*
D03*
X79790D02*
D03*
X77821D02*
D03*
X75853D02*
D03*
X73884D02*
D03*
X67979D02*
D03*
X66010D02*
D03*
X64042D02*
D03*
X62073D02*
D03*
X60105D02*
D03*
X81758Y90510D02*
D03*
X79790D02*
D03*
X77821D02*
D03*
X64042D02*
D03*
X62073D02*
D03*
X60105D02*
D03*
X81758Y92479D02*
D03*
X79790D02*
D03*
X77821D02*
D03*
X64042D02*
D03*
X62073D02*
D03*
X60105D02*
D03*
X81758Y94447D02*
D03*
X79790D02*
D03*
X62073D02*
D03*
X60105D02*
D03*
X81758Y96416D02*
D03*
X79790D02*
D03*
X62073D02*
D03*
X60105D02*
D03*
X81758Y98384D02*
D03*
X79790D02*
D03*
X77821D02*
D03*
X64042D02*
D03*
X62073D02*
D03*
X60105D02*
D03*
X81758Y100353D02*
D03*
X79790D02*
D03*
X77821D02*
D03*
X64042D02*
D03*
X62073D02*
D03*
X60105D02*
D03*
X81758Y102321D02*
D03*
X79790D02*
D03*
X77821D02*
D03*
X75853D02*
D03*
X73884D02*
D03*
X67979D02*
D03*
X66010D02*
D03*
X64042D02*
D03*
X62073D02*
D03*
X60105D02*
D03*
X81758Y104290D02*
D03*
X79790D02*
D03*
X77821D02*
D03*
X75853D02*
D03*
X73884D02*
D03*
X71916D02*
D03*
X69947D02*
D03*
X67979D02*
D03*
X66010D02*
D03*
X64042D02*
D03*
X62073D02*
D03*
X60105D02*
D03*
X81758Y106258D02*
D03*
X79790D02*
D03*
X77821D02*
D03*
X75853D02*
D03*
X73884D02*
D03*
X71916D02*
D03*
X69947D02*
D03*
X67979D02*
D03*
X66010D02*
D03*
X64042D02*
D03*
X62073D02*
D03*
X60105D02*
D03*
X188530Y84605D02*
D03*
X186562D02*
D03*
X184593D02*
D03*
X182625D02*
D03*
X180656D02*
D03*
X178688D02*
D03*
X176719D02*
D03*
X174751D02*
D03*
X172782D02*
D03*
X170814D02*
D03*
X168845D02*
D03*
X166877D02*
D03*
X188530Y86573D02*
D03*
X186562D02*
D03*
X184593D02*
D03*
X182625D02*
D03*
X180656D02*
D03*
X178688D02*
D03*
X176719D02*
D03*
X174751D02*
D03*
X172782D02*
D03*
X170814D02*
D03*
X168845D02*
D03*
X166877D02*
D03*
X188530Y88542D02*
D03*
X186562D02*
D03*
X184593D02*
D03*
X182625D02*
D03*
X180656D02*
D03*
X174751D02*
D03*
X172782D02*
D03*
X170814D02*
D03*
X168845D02*
D03*
X166877D02*
D03*
X188530Y90510D02*
D03*
X186562D02*
D03*
X184593D02*
D03*
X170814D02*
D03*
X168845D02*
D03*
X166877D02*
D03*
X188530Y92479D02*
D03*
X186562D02*
D03*
X184593D02*
D03*
X170814D02*
D03*
X168845D02*
D03*
X166877D02*
D03*
X188530Y94447D02*
D03*
X186562D02*
D03*
X168845D02*
D03*
X166877D02*
D03*
X188530Y96416D02*
D03*
X186562D02*
D03*
X168845D02*
D03*
X166877D02*
D03*
X188530Y98384D02*
D03*
X186562D02*
D03*
X184593D02*
D03*
X170814D02*
D03*
X168845D02*
D03*
X166877D02*
D03*
X188530Y100353D02*
D03*
X186562D02*
D03*
X184593D02*
D03*
X170814D02*
D03*
X168845D02*
D03*
X166877D02*
D03*
X188530Y102321D02*
D03*
X186562D02*
D03*
X184593D02*
D03*
X182625D02*
D03*
X180656D02*
D03*
X174751D02*
D03*
X172782D02*
D03*
X170814D02*
D03*
X168845D02*
D03*
X166877D02*
D03*
X188530Y104290D02*
D03*
X186562D02*
D03*
X184593D02*
D03*
X182625D02*
D03*
X180656D02*
D03*
X178688D02*
D03*
X176719D02*
D03*
X174751D02*
D03*
X172782D02*
D03*
X170814D02*
D03*
X168845D02*
D03*
X166877D02*
D03*
X188530Y106258D02*
D03*
X186562D02*
D03*
X184593D02*
D03*
X182625D02*
D03*
X180656D02*
D03*
X178688D02*
D03*
X176719D02*
D03*
X174751D02*
D03*
X172782D02*
D03*
X170814D02*
D03*
X168845D02*
D03*
X166877D02*
D03*
X295302Y84605D02*
D03*
X293333D02*
D03*
X291365D02*
D03*
X289396D02*
D03*
X287428D02*
D03*
X285459D02*
D03*
X283491D02*
D03*
X281522D02*
D03*
X279554D02*
D03*
X277585D02*
D03*
X275617D02*
D03*
X273648D02*
D03*
X295302Y86573D02*
D03*
X293333D02*
D03*
X291365D02*
D03*
X289396D02*
D03*
X287428D02*
D03*
X285459D02*
D03*
X283491D02*
D03*
X281522D02*
D03*
X279554D02*
D03*
X277585D02*
D03*
X275617D02*
D03*
X273648D02*
D03*
X295302Y88542D02*
D03*
X293333D02*
D03*
X291365D02*
D03*
X289396D02*
D03*
X287428D02*
D03*
X281522D02*
D03*
X279554D02*
D03*
X277585D02*
D03*
X275617D02*
D03*
X273648D02*
D03*
X295302Y90510D02*
D03*
X293333D02*
D03*
X291365D02*
D03*
X277585D02*
D03*
X275617D02*
D03*
X273648D02*
D03*
X295302Y92479D02*
D03*
X293333D02*
D03*
X291365D02*
D03*
X277585D02*
D03*
X275617D02*
D03*
X273648D02*
D03*
X295302Y94447D02*
D03*
X293333D02*
D03*
X275617D02*
D03*
X273648D02*
D03*
X295302Y96416D02*
D03*
X293333D02*
D03*
X275617D02*
D03*
X273648D02*
D03*
X295302Y98384D02*
D03*
X293333D02*
D03*
X291365D02*
D03*
X277585D02*
D03*
X275617D02*
D03*
X273648D02*
D03*
X295302Y100353D02*
D03*
X293333D02*
D03*
X291365D02*
D03*
X277585D02*
D03*
X275617D02*
D03*
X273648D02*
D03*
X295302Y102321D02*
D03*
X293333D02*
D03*
X291365D02*
D03*
X289396D02*
D03*
X287428D02*
D03*
X281522D02*
D03*
X279554D02*
D03*
X277585D02*
D03*
X275617D02*
D03*
X273648D02*
D03*
X295302Y104290D02*
D03*
X293333D02*
D03*
X291365D02*
D03*
X289396D02*
D03*
X287428D02*
D03*
X285459D02*
D03*
X283491D02*
D03*
X281522D02*
D03*
X279554D02*
D03*
X277585D02*
D03*
X275617D02*
D03*
X273648D02*
D03*
X295302Y106258D02*
D03*
X293333D02*
D03*
X291365D02*
D03*
X289396D02*
D03*
X287428D02*
D03*
X285459D02*
D03*
X283491D02*
D03*
X281522D02*
D03*
X279554D02*
D03*
X277585D02*
D03*
X275617D02*
D03*
X273648D02*
D03*
X81758Y243109D02*
D03*
X79790D02*
D03*
X77821D02*
D03*
X75853D02*
D03*
X73884D02*
D03*
X71916D02*
D03*
X69947D02*
D03*
X67979D02*
D03*
X66010D02*
D03*
X64042D02*
D03*
X62073D02*
D03*
X60105D02*
D03*
X81758Y245077D02*
D03*
X79790D02*
D03*
X77821D02*
D03*
X75853D02*
D03*
X73884D02*
D03*
X71916D02*
D03*
X69947D02*
D03*
X67979D02*
D03*
X66010D02*
D03*
X64042D02*
D03*
X62073D02*
D03*
X60105D02*
D03*
X81758Y247046D02*
D03*
X79790D02*
D03*
X77821D02*
D03*
X75853D02*
D03*
X73884D02*
D03*
X67979D02*
D03*
X66010D02*
D03*
X64042D02*
D03*
X62073D02*
D03*
X60105D02*
D03*
X81758Y249014D02*
D03*
X79790D02*
D03*
X77821D02*
D03*
X64042D02*
D03*
X62073D02*
D03*
X60105D02*
D03*
X81758Y250983D02*
D03*
X79790D02*
D03*
X77821D02*
D03*
X64042D02*
D03*
X62073D02*
D03*
X60105D02*
D03*
X81758Y252951D02*
D03*
X79790D02*
D03*
X62073D02*
D03*
X60105D02*
D03*
X81758Y254920D02*
D03*
X79790D02*
D03*
X62073D02*
D03*
X60105D02*
D03*
X81758Y256888D02*
D03*
X79790D02*
D03*
X77821D02*
D03*
X64042D02*
D03*
X62073D02*
D03*
X60105D02*
D03*
X81758Y258857D02*
D03*
X79790D02*
D03*
X77821D02*
D03*
X64042D02*
D03*
X62073D02*
D03*
X60105D02*
D03*
X81758Y260825D02*
D03*
X79790D02*
D03*
X77821D02*
D03*
X75853D02*
D03*
X73884D02*
D03*
X67979D02*
D03*
X66010D02*
D03*
X64042D02*
D03*
X62073D02*
D03*
X60105D02*
D03*
X81758Y262794D02*
D03*
X79790D02*
D03*
X77821D02*
D03*
X75853D02*
D03*
X73884D02*
D03*
X71916D02*
D03*
X69947D02*
D03*
X67979D02*
D03*
X66010D02*
D03*
X64042D02*
D03*
X62073D02*
D03*
X60105D02*
D03*
X81758Y264762D02*
D03*
X79790D02*
D03*
X77821D02*
D03*
X75853D02*
D03*
X73884D02*
D03*
X71916D02*
D03*
X69947D02*
D03*
X67979D02*
D03*
X66010D02*
D03*
X64042D02*
D03*
X62073D02*
D03*
X60105D02*
D03*
X188530Y243109D02*
D03*
X186562D02*
D03*
X184593D02*
D03*
X182625D02*
D03*
X180656D02*
D03*
X178688D02*
D03*
X176719D02*
D03*
X174751D02*
D03*
X172782D02*
D03*
X170814D02*
D03*
X168845D02*
D03*
X166877D02*
D03*
X188530Y245077D02*
D03*
X186562D02*
D03*
X184593D02*
D03*
X182625D02*
D03*
X180656D02*
D03*
X178688D02*
D03*
X176719D02*
D03*
X174751D02*
D03*
X172782D02*
D03*
X170814D02*
D03*
X168845D02*
D03*
X166877D02*
D03*
X188530Y247046D02*
D03*
X186562D02*
D03*
X184593D02*
D03*
X182625D02*
D03*
X180656D02*
D03*
X174751D02*
D03*
X172782D02*
D03*
X170814D02*
D03*
X168845D02*
D03*
X166877D02*
D03*
X188530Y249014D02*
D03*
X186562D02*
D03*
X184593D02*
D03*
X170814D02*
D03*
X168845D02*
D03*
X166877D02*
D03*
X188530Y250983D02*
D03*
X186562D02*
D03*
X184593D02*
D03*
X170814D02*
D03*
X168845D02*
D03*
X166877D02*
D03*
X188530Y252951D02*
D03*
X186562D02*
D03*
X168845D02*
D03*
X166877D02*
D03*
X188530Y254920D02*
D03*
X186562D02*
D03*
X168845D02*
D03*
X166877D02*
D03*
X188530Y256888D02*
D03*
X186562D02*
D03*
X184593D02*
D03*
X170814D02*
D03*
X168845D02*
D03*
X166877D02*
D03*
X188530Y258857D02*
D03*
X186562D02*
D03*
X184593D02*
D03*
X170814D02*
D03*
X168845D02*
D03*
X166877D02*
D03*
X188530Y260825D02*
D03*
X186562D02*
D03*
X184593D02*
D03*
X182625D02*
D03*
X180656D02*
D03*
X174751D02*
D03*
X172782D02*
D03*
X170814D02*
D03*
X168845D02*
D03*
X166877D02*
D03*
X188530Y262794D02*
D03*
X186562D02*
D03*
X184593D02*
D03*
X182625D02*
D03*
X180656D02*
D03*
X178688D02*
D03*
X176719D02*
D03*
X174751D02*
D03*
X172782D02*
D03*
X170814D02*
D03*
X168845D02*
D03*
X166877D02*
D03*
X188530Y264762D02*
D03*
X186562D02*
D03*
X184593D02*
D03*
X182625D02*
D03*
X180656D02*
D03*
X178688D02*
D03*
X176719D02*
D03*
X174751D02*
D03*
X172782D02*
D03*
X170814D02*
D03*
X168845D02*
D03*
X166877D02*
D03*
X295302Y243109D02*
D03*
X293333D02*
D03*
X291365D02*
D03*
X289396D02*
D03*
X287428D02*
D03*
X285459D02*
D03*
X283491D02*
D03*
X281522D02*
D03*
X279554D02*
D03*
X277585D02*
D03*
X275617D02*
D03*
X273648D02*
D03*
X295302Y245077D02*
D03*
X293333D02*
D03*
X291365D02*
D03*
X289396D02*
D03*
X287428D02*
D03*
X285459D02*
D03*
X283491D02*
D03*
X281522D02*
D03*
X279554D02*
D03*
X277585D02*
D03*
X275617D02*
D03*
X273648D02*
D03*
X295302Y247046D02*
D03*
X293333D02*
D03*
X291365D02*
D03*
X289396D02*
D03*
X287428D02*
D03*
X281522D02*
D03*
X279554D02*
D03*
X277585D02*
D03*
X275617D02*
D03*
X273648D02*
D03*
X295302Y249014D02*
D03*
X293333D02*
D03*
X291365D02*
D03*
X277585D02*
D03*
X275617D02*
D03*
X273648D02*
D03*
X295302Y250983D02*
D03*
X293333D02*
D03*
X291365D02*
D03*
X277585D02*
D03*
X275617D02*
D03*
X273648D02*
D03*
X295302Y252951D02*
D03*
X293333D02*
D03*
X275617D02*
D03*
X273648D02*
D03*
X295302Y254920D02*
D03*
X293333D02*
D03*
X275617D02*
D03*
X273648D02*
D03*
X295302Y256888D02*
D03*
X293333D02*
D03*
X291365D02*
D03*
X277585D02*
D03*
X275617D02*
D03*
X273648D02*
D03*
X295302Y258857D02*
D03*
X293333D02*
D03*
X291365D02*
D03*
X277585D02*
D03*
X275617D02*
D03*
X273648D02*
D03*
X295302Y260825D02*
D03*
X293333D02*
D03*
X291365D02*
D03*
X289396D02*
D03*
X287428D02*
D03*
X281522D02*
D03*
X279554D02*
D03*
X277585D02*
D03*
X275617D02*
D03*
X273648D02*
D03*
X295302Y262794D02*
D03*
X293333D02*
D03*
X291365D02*
D03*
X289396D02*
D03*
X287428D02*
D03*
X285459D02*
D03*
X283491D02*
D03*
X281522D02*
D03*
X279554D02*
D03*
X277585D02*
D03*
X275617D02*
D03*
X273648D02*
D03*
X295302Y264762D02*
D03*
X293333D02*
D03*
X291365D02*
D03*
X289396D02*
D03*
X287428D02*
D03*
X285459D02*
D03*
X283491D02*
D03*
X281522D02*
D03*
X279554D02*
D03*
X277585D02*
D03*
X275617D02*
D03*
X273648D02*
D03*
D37*
X54957Y34857D02*
D03*
X161728D02*
D03*
X268500D02*
D03*
X54957Y193361D02*
D03*
X161728D02*
D03*
X268500D02*
D03*
D49*
X76993Y71946D02*
D03*
X183765D02*
D03*
X290537D02*
D03*
X76993Y230450D02*
D03*
X183765D02*
D03*
X290537D02*
D03*
D50*
X39565Y47635D02*
D03*
X114368D02*
D03*
X41336Y162990D02*
D03*
X112202D02*
D03*
X146336Y47635D02*
D03*
X221139D02*
D03*
X148108Y162990D02*
D03*
X218974D02*
D03*
X253108Y47635D02*
D03*
X327911D02*
D03*
X254880Y162990D02*
D03*
X325746D02*
D03*
X39565Y206139D02*
D03*
X114368D02*
D03*
X41336Y321494D02*
D03*
X112202D02*
D03*
X146336Y206139D02*
D03*
X221139D02*
D03*
X148108Y321494D02*
D03*
X218974D02*
D03*
X253108Y206139D02*
D03*
X327911D02*
D03*
X254880Y321494D02*
D03*
X325746D02*
D03*
D51*
X80930Y66631D02*
D03*
X73056D02*
D03*
X187702D02*
D03*
X179828D02*
D03*
X294474D02*
D03*
X286600D02*
D03*
X80930Y225135D02*
D03*
X73056D02*
D03*
X187702D02*
D03*
X179828D02*
D03*
X294474D02*
D03*
X286600D02*
D03*
D52*
X121232Y126665D02*
D03*
Y116665D02*
D03*
Y106666D02*
D03*
X228004Y126665D02*
D03*
Y116665D02*
D03*
Y106666D02*
D03*
X334776Y126665D02*
D03*
Y116665D02*
D03*
Y106666D02*
D03*
X121232Y285170D02*
D03*
Y275169D02*
D03*
Y265170D02*
D03*
X228004Y285170D02*
D03*
Y275169D02*
D03*
Y265170D02*
D03*
X334776Y285170D02*
D03*
Y275169D02*
D03*
Y265170D02*
D03*
D53*
X121232Y96666D02*
D03*
X228004D02*
D03*
X334776D02*
D03*
X121232Y255170D02*
D03*
X228004D02*
D03*
X334776D02*
D03*
M02*
