M48
;Layer_Color=9474304
;FILE_FORMAT=2:5
INCH,TZ
;TYPE=PLATED
T3F00S00C0.02165
T5F00S00C0.03937
%
G90
G05
T03
G00X179828Y66926
M15
G01Y67910
M16
G00X187702Y66926
M15
G01Y67910
M16
G00X286600Y66926
M15
G01Y67910
M16
G00X294474Y66926
M15
G01Y67910
M16
G00X80930Y66926
M15
G01Y67910
M16
G00X73056Y66926
M15
G01Y67910
M16
G00X73056Y225430
M15
G01Y226414
M16
G00X80930Y225430
M15
G01Y226414
M16
G00X179828Y225430
M15
G01Y226414
M16
G00X187702Y225430
M15
G01Y226414
M16
G00X286600Y225430
M15
G01Y226414
M16
G00X294474Y225430
M15
G01Y226414
M16
T05
G00X183765Y70962
M15
G01Y71946
M16
G00X290537Y70962
M15
G01Y71946
M16
G00X76993Y70962
M15
G01Y71946
M16
G00X76993Y229466
M15
G01Y230450
M16
G00X183765Y229466
M15
G01Y230450
M16
G00X290537Y229466
M15
G01Y230450
M16
M17
M30
