M48
;Layer_Color=9474304
;FILE_FORMAT=2:5
INCH,TZ
;TYPE=PLATED
T1F00S00C0.00787
T2F00S00C0.01181
T4F00S00C0.03543
T6F00S00C0.11811
T7F00S00C0.12598
%
T01
X310588Y47242
X312975Y145864
X314475Y146864
X316075Y145964
X317675Y146864
X319275Y145964
X296358Y151216
X270582Y147939
X267800Y149457
X267300Y146557
X267050Y129432
X250200Y130357
X250100Y132657
X247900Y132857
X248400Y135557
X251779Y125535
Y123805
X286225Y123600
X285000Y113357
X278900Y112357
X281875Y99932
X281175Y96932
X279375
X277575
X279975Y93932
X282975
X285875Y92032
X284075Y89832
X280275Y91032
X281522Y83257
X271600Y83557
Y85457
Y87303
X263100Y88057
X289475Y91132
X287475Y95032
X291375Y95432
X298475
X297175Y100332
X307025Y99832
X307775Y86395
X305325Y83514
X302075Y83532
X300375
X298775Y85432
Y87712
X297154Y86573
Y88851
Y84293
X300388Y79319
X302087
X287500Y78957
Y77357
X284475Y102032
X300500Y115757
X293200Y52657
X203817Y47242
X186428Y52657
X180728Y77357
Y78957
X174751Y83257
X173503Y91032
X173203Y93932
X176203
X179103Y92032
X177303Y89832
X182703Y91132
X180703Y95032
X184603Y95432
X191703
X190403Y100332
X200253Y99832
X201003Y86395
X198553Y83514
X195303Y83532
X193603
X192003Y85432
Y87712
X190382Y86573
Y88851
Y84293
X193616Y79319
X195316
X164828Y83557
Y85457
Y87303
X156328Y88057
X170803Y96932
X172603
X174403
X175103Y99932
X177703Y102032
X178228Y113357
X172128Y112357
X179454Y123600
X193728Y115757
X189586Y151216
X206203Y145864
X207703Y146864
X209303Y145964
X210903Y146864
X212503Y145964
X163811Y147939
X161028Y149457
X160528Y146557
X160278Y129432
X143428Y130357
X143328Y132657
X141128Y132857
X141628Y135557
X145007Y125535
Y123805
X105732Y145964
X104132Y146864
X102532Y145964
X100932Y146864
X99432Y145864
X82814Y151216
X57039Y147939
X54257Y149457
X53757Y146557
X53507Y129432
X36657Y130357
X36557Y132657
X34357Y132857
X34857Y135557
X38236Y125535
Y123805
X72682Y123600
X71457Y113357
X65357Y112357
X68332Y99932
X67632Y96932
X65832
X64032
X66432Y93932
X69432
X72332Y92032
X70532Y89832
X66732Y91032
X67979Y83257
X58057Y83557
Y85457
Y87303
X49557Y88057
X75932Y91132
X73932Y95032
X77832Y95432
X84932
X83632Y100332
X93482Y99832
X94231Y86395
X91782Y83514
X88532Y83532
X86832
X85232Y85432
Y87712
X83610Y86573
Y88851
Y84293
X86844Y79319
X88544
X73957Y78957
Y77357
X70932Y102032
X86957Y115757
X79657Y52657
X97045Y47242
Y205746
X79657Y211161
X73957Y235861
Y237461
X67979Y241761
X66732Y249536
X66432Y252436
X69432
X72332Y250536
X70532Y248336
X75932Y249636
X73932Y253536
X77832Y253936
X84932
X83632Y258836
X93482Y258336
X94231Y244899
X91782Y242018
X88532Y242036
X86832
X85232Y243936
Y246216
X83610Y245077
Y247355
Y242797
X86844Y237823
X88544
X58057Y242061
Y243961
Y245807
X49557Y246561
X64032Y255436
X65832
X67632
X68332Y258436
X70932Y260536
X71457Y271861
X65357Y270861
X72682Y282104
X86957Y274261
X82814Y309720
X99432Y304368
X100932Y305368
X102532Y304468
X104132Y305368
X105732Y304468
X141628Y294061
X141128Y291361
X143328Y291161
X143428Y288861
X145007Y284039
Y282309
X53507Y287936
X53757Y305061
X54257Y307961
X57039Y306443
X34857Y294061
X34357Y291361
X36557Y291161
X36657Y288861
X38236Y284039
Y282309
X160278Y287936
X160528Y305061
X161028Y307961
X163811Y306443
X189586Y309720
X206203Y304368
X207703Y305368
X209303Y304468
X210903Y305368
X212503Y304468
X248400Y294061
X247900Y291361
X250100Y291161
X250200Y288861
X251779Y284039
Y282309
X267050Y287936
X267300Y305061
X267800Y307961
X270582Y306443
X296358Y309720
X286225Y282104
X285000Y271861
X278900Y270861
X281875Y258436
X281175Y255436
X279375
X277575
X279975Y252436
X282975
X285875Y250536
X284075Y248336
X280275Y249536
X281522Y241761
X271600Y242061
Y243961
Y245807
X263100Y246561
X289475Y249636
X287475Y253536
X291375Y253936
X298475
X297175Y258836
X307025Y258336
X307775Y244899
X305325Y242018
X302075Y242036
X300375
X298775Y243936
Y246216
X297154Y245077
Y247355
Y242797
X300388Y237823
X302087
X287500Y237461
Y235861
X284475Y260536
X300500Y274261
X293200Y211161
X203817Y205746
X186428Y211161
X180728Y235861
Y237461
X174751Y241761
X173503Y249536
X173203Y252436
X176203
X179103Y250536
X177303Y248336
X182703Y249636
X180703Y253536
X184603Y253936
X191703
X190403Y258836
X200253Y258336
X201003Y244899
X198553Y242018
X195303Y242036
X193603
X192003Y243936
Y246216
X190382Y245077
Y247355
Y242797
X193616Y237823
X195316
X164828Y242061
Y243961
Y245807
X156328Y246561
X170803Y255436
X172603
X174403
X175103Y258436
X177703Y260536
X178228Y271861
X172128Y270861
X179454Y282104
X193728Y274261
X312975Y304368
X314475Y305368
X316075Y304468
X317675Y305368
X319275Y304468
X310588Y205746
T02
X32445Y32225
X46356Y32086
X71477Y36221
X75016Y36075
X75465Y26744
X77827
X80189
X82551
X73103
X70740
X88957Y33157
X91336Y34053
X111710Y31690
X121564Y31567
X139217Y32225
X153128Y32086
X178248Y36221
X181788Y36075
X182236Y26744
X184599
X186961
X189323
X179874
X177512
X195728Y33157
X198108Y34053
X218482Y31690
X228336Y31567
X245988Y32225
X259900Y32086
X285020Y36221
X288560Y36075
X289008Y26744
X291370
X293733
X296095
X286646
X284284
X302500Y33157
X304880Y34053
X325254Y31690
X335107Y31567
X340681Y66902
Y69264
Y71626
Y73988
Y76351
Y78713
X335484Y74714
X332178Y74801
X322475Y71332
X313975Y69432
X316566Y78910
X318279Y82749
X321056Y85642
X325913Y94226
X324816Y111743
X324682Y119830
X324655Y127272
X327073Y135155
X332241Y135126
X335096Y135155
X340681Y137768
Y140130
Y142492
Y144854
Y147217
Y149579
X308583Y149870
X309660Y131912
X313600Y132157
X309677Y125899
X309992Y118868
X312398Y174834
X325254Y190194
X335107Y190071
X319746Y62014
X307381Y69815
X301663Y53252
X298992Y53225
X298671Y47201
X287478Y47629
X286117Y51160
X286080Y54820
X282318Y54852
X277565Y51838
X277713Y48483
X269892Y44722
X265318Y58102
X267900Y61008
X255984Y62898
X255800Y79857
X259767Y80368
X258715Y91008
X253165Y94063
X265249Y95357
X270485Y91964
X270099Y73017
X279991Y74710
X246800Y75857
X244174Y75831
X240288Y76350
Y78713
Y73988
Y71626
Y69264
Y66902
X233910Y66902
Y69264
Y71626
Y73988
Y76351
Y78713
X228712Y74714
X225407Y74801
X215703Y71332
X207203Y69432
X200610Y69815
X209794Y78910
X211507Y82749
X214284Y85642
X219142Y94226
X218045Y111743
X217911Y119830
X217884Y127272
X220301Y135155
X225469Y135126
X228325Y135155
X233910Y137768
Y140130
Y142492
Y144854
Y147217
Y149579
X240386Y149480
Y147118
Y144756
Y142394
Y140032
Y137670
X244439Y136540
X259409Y127332
X259426Y123272
X268379Y141120
X271100Y144096
X273458
X272900Y162557
X270600
X268192Y170416
X267452Y174056
X279300Y172657
X281700
X284382Y178811
X286744
X289106
X291469
X293831
X296193
X296612Y173212
X304909Y174852
X306400Y170457
X304880Y192557
X302500Y191661
X296095Y185248
X293733
X291370
X289008
X286646
X284284
X285020Y194725
X288560Y194578
X259900Y190590
X245988Y190729
X228336Y190071
X218482Y190194
X198108Y192557
X195728Y191661
X189323Y185248
X186961
X184599
X182236
X179874
X177512
X177610Y178811
X179973
X182335
X184697
X187059
X189421
X189840Y173212
X198137Y174852
X199628Y170457
X205627Y174834
X201812Y149870
X199079Y134526
X202889Y131912
X206828Y132157
X202906Y125899
X203220Y118868
X200839Y108133
X200429Y104170
X163713Y91964
X158478Y95357
X152995Y80368
X163327Y73017
X173219Y74710
X175547Y54852
X179309Y54820
X179345Y51160
X180706Y47629
X183458Y42459
X191899Y47201
X192220Y53225
X194891Y53252
X170793Y51838
X170942Y48483
X163120Y44722
X158547Y58102
X161128Y61008
X212974Y62014
X290229Y42459
X307200Y104170
X307610Y108133
X305851Y134526
X282200Y132657
X175428
X166687Y144096
X164328
X161607Y141120
X152638Y127332
X152655Y123272
X163828Y162557
X166128
X161421Y170416
X160680Y174056
X172528Y172657
X174928
X178248Y194725
X181788Y194578
X153128Y190590
X139217Y190729
X121564Y190071
X111710Y190194
X91336Y192557
X88957Y191661
X82551Y185248
X80189
X77827
X75465
X73103
X70740
X70839Y178811
X73201
X75563
X77925
X80288
X82650
X83069Y173212
X91366Y174852
X92857Y170457
X98855Y174834
X95040Y149870
X92307Y134526
X96117Y131912
X100057Y132157
X96134Y125899
X96449Y118868
X94067Y108133
X93657Y104170
X111273Y111743
X111139Y119830
X111112Y127272
X113530Y135155
X118698Y135126
X121553Y135155
X127138Y137768
Y140130
Y142492
Y144854
Y147217
Y149579
X133614Y149480
Y147118
Y144756
Y142394
Y140032
Y137670
X137668Y136540
X146393Y94063
X151943Y91008
X149028Y79857
X140028Y75857
X137402Y75831
X133516Y76350
Y78713
Y73988
Y71626
Y69264
Y66902
X127138Y66902
Y69264
Y71626
Y73988
Y76351
Y78713
X121941Y74714
X118635Y74801
X108932Y71332
X100432Y69432
X93838Y69815
X103023Y78910
X104735Y82749
X107513Y85642
X112370Y94226
X106202Y62014
X88120Y53252
X85448Y53225
X85128Y47201
X73934Y47629
X72574Y51160
X72537Y54820
X68775Y54852
X64022Y51838
X64170Y48483
X56349Y44722
X51775Y58102
X54357Y61008
X42441Y62898
X42257Y79857
X46223Y80368
X45171Y91008
X39622Y94063
X51706Y95357
X56942Y91964
X56555Y73017
X66447Y74710
X33257Y75857
X30631Y75831
X26744Y76350
Y78713
Y73988
Y71626
Y69264
Y66902
X26843Y137670
Y140032
Y142394
Y144756
Y147118
Y149480
X30896Y136540
X45866Y127332
X45883Y123272
X54835Y141120
X57557Y144096
X59915
X59357Y162557
X57057
X54649Y170416
X53909Y174056
X65757Y172657
X68157
X71477Y194725
X75016Y194578
X46356Y190590
X32445Y190729
X68657Y132657
X76686Y42459
X149213Y62898
Y221403
X149028Y238361
X140028Y234361
X137402Y234334
X133516Y234855
Y237217
Y232492
Y230130
Y227768
Y225406
X127138Y225406
Y227768
Y230130
Y232492
Y234855
Y237217
X121941Y233218
X118635Y233305
X108932Y229836
X100432Y227936
X93838Y228319
X103023Y237414
X104735Y241253
X107513Y244146
X112370Y252730
X111273Y270247
X111139Y278334
X111112Y285776
X113530Y293659
X118698Y293630
X121553Y293659
X127138Y296272
Y298634
Y300996
Y303358
Y305721
Y308083
X133614Y307984
Y305622
Y303260
Y300898
Y298536
Y296173
X137668Y295044
X100057Y290661
X96117Y290416
X96134Y284403
X96449Y277372
X94067Y266637
X93657Y262674
X92307Y293030
X95040Y308374
X92857Y328961
X91366Y333356
X98855Y333338
X83069Y331716
X82650Y337315
X80288
X77925
X75563
X73201
X70839
X68157Y331161
X65757
X53909Y332560
X54649Y328920
X57057Y321061
X59357
X59915Y302600
X57557
X54835Y299624
X68657Y291161
X45866Y285836
X45883Y281776
X30896Y295044
X26843Y296173
Y298536
Y300898
Y303260
Y305622
Y307984
X39622Y252567
X45171Y249512
X51706Y253861
X56942Y250468
X56555Y231521
X66447Y233214
X68775Y213356
X72537Y213324
X72574Y209664
X73934Y206133
X76686Y200963
X85128Y205705
X85448Y211729
X88120Y211756
X64022Y210342
X64170Y206987
X56349Y203226
X51775Y216606
X54357Y219512
X42441Y221403
X42257Y238361
X46223Y238872
X33257Y234361
X30631Y234334
X26744Y234855
Y237217
Y232492
Y230130
Y227768
Y225406
X106202Y220518
X146393Y252567
X151943Y249512
X158478Y253861
X163713Y250468
X163327Y231521
X173219Y233214
X175547Y213356
X179309Y213324
X179345Y209664
X180706Y206133
X183458Y200963
X191899Y205705
X192220Y211729
X194891Y211756
X200610Y228319
X207203Y227936
X215703Y229836
X212974Y220518
X209794Y237414
X211507Y241253
X214284Y244146
X219142Y252730
X218045Y270247
X217911Y278334
X217884Y285776
X220301Y293659
X225469Y293630
X228325Y293659
X233910Y296272
Y298634
Y300996
Y303358
Y305721
Y308083
X240386Y307984
Y305622
Y303260
Y300898
Y298536
Y296173
X244439Y295044
X259409Y285836
X259426Y281776
X268379Y299624
X271100Y302600
X273458
X272900Y321061
X270600
X268192Y328920
X267452Y332560
X279300Y331161
X281700
X284382Y337315
X286744
X289106
X291469
X293831
X296193
X296612Y331716
X304909Y333356
X306400Y328961
X305851Y293030
X282200Y291161
X307610Y266637
X307200Y262674
X307381Y228319
X301663Y211756
X298992Y211729
X298671Y205705
X287478Y206133
X286117Y209664
X286080Y213324
X282318Y213356
X277565Y210342
X277713Y206987
X269892Y203226
X265318Y216606
X267900Y219512
X255984Y221403
X255800Y238361
X259767Y238872
X258715Y249512
X253165Y252567
X265249Y253861
X270485Y250468
X270099Y231521
X279991Y233214
X246800Y234361
X244174Y234334
X240288Y234855
Y237217
Y232492
Y230130
Y227768
Y225406
X233910Y225406
Y227768
Y230130
Y232492
Y234855
Y237217
X228712Y233218
X225407Y233305
X200429Y262674
X200839Y266637
X203220Y277372
X202906Y284403
X202889Y290416
X206828Y290661
X199079Y293030
X201812Y308374
X199628Y328961
X198137Y333356
X205627Y333338
X189840Y331716
X189421Y337315
X187059
X184697
X182335
X179973
X177610
X174928Y331161
X172528
X160680Y332560
X161421Y328920
X163828Y321061
X166128
X166687Y302600
X164328
X161607Y299624
X175428Y291161
X152638Y285836
X152655Y281776
X152995Y238872
X161128Y219512
X158547Y216606
X163120Y203226
X170942Y206987
X170793Y210342
X290229Y200963
X319746Y220518
X322475Y229836
X313975Y227936
X316566Y237414
X318279Y241253
X321056Y244146
X325913Y252730
X324816Y270247
X324682Y278334
X324655Y285776
X327073Y293659
X332241Y293630
X335096Y293659
X340681Y296272
Y298634
Y300996
Y303358
Y305721
Y308083
X308583Y308374
X309660Y290416
X313600Y290661
X309677Y284403
X309992Y277372
X312398Y333338
X332178Y233305
X335484Y233218
X340681Y232492
Y230130
Y227768
Y225406
Y234855
Y237217
T04
X334776Y96666
Y106666
Y116665
Y126665
X228004
Y116665
Y106666
Y96666
X121232
Y106666
Y116665
Y126665
Y255170
Y265170
Y275169
Y285170
X228004
Y275169
Y265170
Y255170
X334776
Y265170
Y275169
Y285170
T06
X11122Y10728
X354134Y12205
X10039Y352854
X355709Y351969
T07
X327911Y47635
X325746Y162990
X254880
X218974
X221139Y47635
X253108
X146336
X114368
X39565
X41336Y162990
X112202
X148108
X146336Y206139
X114368
X39565
X41336Y321494
X112202
X148108
X218974
X254880
X253108Y206139
X221139
X327911
X325746Y321494
M30
